<mxfile host="app.diagrams.net" modified="2022-10-31T18:37:46.009Z" agent="5.0 (Macintosh; Intel Mac OS X 10_15_7) AppleWebKit/537.36 (KHTML, like Gecko) Chrome/107.0.0.0 Safari/537.36" etag="FCNZxqqw-RUhMhwx0r0o" version="20.5.0" type="github">
  <diagram id="BiSie5FDL75O26T0mw-8" name="Page-1">
    <mxGraphModel dx="1122" dy="722" grid="1" gridSize="10" guides="1" tooltips="1" connect="1" arrows="1" fold="1" page="1" pageScale="1" pageWidth="827" pageHeight="1169" math="0" shadow="0">
      <root>
        <mxCell id="0" />
        <mxCell id="1" parent="0" />
        <mxCell id="PmZtbSstt38Pnc2JY4bf-3" style="edgeStyle=orthogonalEdgeStyle;rounded=0;orthogonalLoop=1;jettySize=auto;html=1;exitX=0.5;exitY=1;exitDx=0;exitDy=0;entryX=0;entryY=0.5;entryDx=0;entryDy=0;" edge="1" parent="1" source="PmZtbSstt38Pnc2JY4bf-1" target="PmZtbSstt38Pnc2JY4bf-2">
          <mxGeometry relative="1" as="geometry" />
        </mxCell>
        <mxCell id="PmZtbSstt38Pnc2JY4bf-7" style="edgeStyle=orthogonalEdgeStyle;rounded=0;orthogonalLoop=1;jettySize=auto;html=1;exitX=0.5;exitY=1;exitDx=0;exitDy=0;entryX=0;entryY=0.5;entryDx=0;entryDy=0;" edge="1" parent="1" source="PmZtbSstt38Pnc2JY4bf-1" target="PmZtbSstt38Pnc2JY4bf-4">
          <mxGeometry relative="1" as="geometry" />
        </mxCell>
        <mxCell id="PmZtbSstt38Pnc2JY4bf-9" style="edgeStyle=orthogonalEdgeStyle;rounded=0;orthogonalLoop=1;jettySize=auto;html=1;exitX=0.5;exitY=1;exitDx=0;exitDy=0;entryX=0;entryY=0.5;entryDx=0;entryDy=0;" edge="1" parent="1" source="PmZtbSstt38Pnc2JY4bf-1" target="PmZtbSstt38Pnc2JY4bf-8">
          <mxGeometry relative="1" as="geometry" />
        </mxCell>
        <mxCell id="PmZtbSstt38Pnc2JY4bf-11" style="edgeStyle=orthogonalEdgeStyle;rounded=0;orthogonalLoop=1;jettySize=auto;html=1;exitX=0.5;exitY=1;exitDx=0;exitDy=0;entryX=0;entryY=0.5;entryDx=0;entryDy=0;" edge="1" parent="1" source="PmZtbSstt38Pnc2JY4bf-1" target="PmZtbSstt38Pnc2JY4bf-10">
          <mxGeometry relative="1" as="geometry" />
        </mxCell>
        <mxCell id="PmZtbSstt38Pnc2JY4bf-1" value="Panel usage" style="rounded=1;whiteSpace=wrap;html=1;fillColor=#fff2cc;strokeColor=#d6b656;" vertex="1" parent="1">
          <mxGeometry x="80" y="140" width="120" height="60" as="geometry" />
        </mxCell>
        <mxCell id="PmZtbSstt38Pnc2JY4bf-2" value="projects/web/src/views/ClanLeaderboards/index.tsx" style="rounded=1;whiteSpace=wrap;html=1;" vertex="1" parent="1">
          <mxGeometry x="200" y="250" width="310" height="30" as="geometry" />
        </mxCell>
        <mxCell id="PmZtbSstt38Pnc2JY4bf-6" style="edgeStyle=orthogonalEdgeStyle;rounded=0;orthogonalLoop=1;jettySize=auto;html=1;exitX=1;exitY=0.5;exitDx=0;exitDy=0;entryX=0;entryY=0.5;entryDx=0;entryDy=0;" edge="1" parent="1" source="PmZtbSstt38Pnc2JY4bf-4" target="PmZtbSstt38Pnc2JY4bf-5">
          <mxGeometry relative="1" as="geometry" />
        </mxCell>
        <mxCell id="PmZtbSstt38Pnc2JY4bf-4" value="projects/labs-portal/src/pages/Game/Overview/styles.ts" style="rounded=1;whiteSpace=wrap;html=1;fillColor=#ffe6cc;strokeColor=#d79b00;" vertex="1" parent="1">
          <mxGeometry x="200" y="310" width="310" height="30" as="geometry" />
        </mxCell>
        <mxCell id="PmZtbSstt38Pnc2JY4bf-5" value="delete?" style="rounded=1;whiteSpace=wrap;html=1;fillColor=#ffe6cc;strokeColor=#d79b00;" vertex="1" parent="1">
          <mxGeometry x="540" y="310" width="90" height="30" as="geometry" />
        </mxCell>
        <mxCell id="PmZtbSstt38Pnc2JY4bf-8" value="projects/twitch-drops/src/components/PastEvents.tsx" style="rounded=1;whiteSpace=wrap;html=1;" vertex="1" parent="1">
          <mxGeometry x="200" y="370" width="310" height="30" as="geometry" />
        </mxCell>
        <mxCell id="PmZtbSstt38Pnc2JY4bf-14" style="edgeStyle=orthogonalEdgeStyle;rounded=0;orthogonalLoop=1;jettySize=auto;html=1;exitX=1;exitY=0.5;exitDx=0;exitDy=0;entryX=0;entryY=0.5;entryDx=0;entryDy=0;" edge="1" parent="1" source="PmZtbSstt38Pnc2JY4bf-10" target="PmZtbSstt38Pnc2JY4bf-13">
          <mxGeometry relative="1" as="geometry" />
        </mxCell>
        <mxCell id="PmZtbSstt38Pnc2JY4bf-10" value="projects/web/src/views/ClanLeaderboards/styles.ts" style="rounded=1;whiteSpace=wrap;html=1;" vertex="1" parent="1">
          <mxGeometry x="200" y="430" width="310" height="30" as="geometry" />
        </mxCell>
        <mxCell id="PmZtbSstt38Pnc2JY4bf-12" value="" style="shape=image;verticalLabelPosition=bottom;labelBackgroundColor=default;verticalAlign=top;aspect=fixed;imageAspect=0;image=data:image/png,iVBORw0KGgoAAAANSUhEUgAABtQAAAKACAYAAAAM65yTAAAMQGlDQ1BJQ0MgUHJvZmlsZQAASImVVwdYU8kWnluSkEBCCSAgJfQmiEgJICWEFnpHEJWQBAglxEBQsZdFBdcuKmBDV0UUO82O2FkUG/bFgoqyLhbsypsU0HVf+d5839z57z9n/nPm3Jl77wCgfoIrFueiGgDkiQolscH+jLHJKQzSE0ABRgAADNC4vAIxKzo6HN6Bwfbv5d0NgMjaqw4yrX/2/9eiyRcU8ABAoiFO5xfw8iA+CABexRNLCgEgynjzyYViGYYVaEtggBAvlOFMBa6S4XQF3iu3iY9lQ9wKgIoalyvJBIB2GfKMIl4m1KD1Qewk4gtFAKgzIPbJy8vnQ5wGsQ20EUMs02em/6CT+TfN9CFNLjdzCCvmIi8qAcICcS536v+Zjv9d8nKlgz6sYFXLkoTEyuYM83YzJz9MhtUg7hWlR0ZBrAXxByFfbg8xSsmShiQo7FFDXgEb5gzoQuzE5waEQWwIcZAoNzJcyadnCIM4EMMVgk4RFnLiIdaDeKGgIDBOabNJkh+r9IXWZ0jYLCV/jiuR+5X5ui/NSWAp9V9nCThKfYxWnBWfBDEFYosiYWIkxDSIHQty4sKUNmOKs9iRgzYSaawsfguIYwWiYH+FPlaUIQmKVdqX5hUMzhfblCXkRCrx/sKs+BBFfrBWHlceP5wLdlkgYiUM6ggKxoYPzoUvCAhUzB17JhAlxCl1PogL/WMVY3GKODdaaY+bCXKDZbwZxC4FRXHKsXhiIVyQCn08Q1wYHa+IEy/O5oZGK+LBl4FwwAYBgAGksKaDfJANhO29Db3wTtETBLhAAjKBADgomcERSfIeEbzGgWLwJ0QCUDA0zl/eKwBFkP86xCquDiBD3lskH5EDnkCcB8JALryXykeJhrwlgseQEf7DOxdWHow3F1ZZ/7/nB9nvDAsy4UpGOuiRoT5oSQwkBhBDiEFEW9wA98G98HB49YPVGWfiHoPz+G5PeELoIDwkXCd0EW5NFM6V/BRlBOiC+kHKXKT/mAvcCmq64v64N1SHyrgubgAccBfoh4X7Qs+ukGUr45ZlhfGT9t9m8MPTUNqRncgoeRjZj2zz80iaHc11SEWW6x/zo4g1fSjf7KGen/2zf8g+H7ZhP1tiC7ED2FnsJHYeO4I1AAZ2HGvE2rCjMjy0uh7LV9egt1h5PDlQR/gPf4NPVpbJAqdapx6nL4q+QsEU2TsasPPFUyXCzKxCBgt+EQQMjojnOILh7OTsDIDs+6J4fb2JkX83EN2279y8PwDwPj4wMHD4Oxd6HIB97nD7N33nbJjw06EKwLkmnlRSpOBw2YUA3xLqcKfpA2NgDmzgfJyBG/ACfiAQhIIoEA+SwQQYfRZc5xIwGUwHc0AJKAPLwGpQATaCLWAH2A32gwZwBJwEZ8BFcBlcB3fg6ukGL0AfeAc+IwhCQqgIHdFHTBBLxB5xRpiIDxKIhCOxSDKShmQiIkSKTEfmIWXICqQC2YzUIPuQJuQkch7pQG4hD5Ae5DXyCcVQNVQbNUKt0JEoE2WhYWg8Oh7NRCehxeh8dAm6Fq1Gd6H16En0Inod7UJfoP0YwFQxXcwUc8CYGBuLwlKwDEyCzcRKsXKsGqvDmuFzvop1Yb3YR5yI03EG7gBXcAiegPPwSfhMfDFege/A6/FW/Cr+AO/DvxGoBEOCPcGTwCGMJWQSJhNKCOWEbYRDhNNwL3UT3hGJRF2iNdEd7sVkYjZxGnExcT1xD/EEsYP4iNhPIpH0SfYkb1IUiUsqJJWQ1pF2kY6TrpC6SR9UVFVMVJxVglRSVEQqc1XKVXaqHFO5ovJU5TNZg2xJ9iRHkfnkqeSl5K3kZvIlcjf5M0WTYk3xpsRTsilzKGspdZTTlLuUN6qqqmaqHqoxqkLV2aprVfeqnlN9oPpRTUvNTo2tlqomVVuitl3thNottTdUKtWK6kdNoRZSl1BrqKeo96kfaHSaI41D49Nm0Spp9bQrtJfqZHVLdZb6BPVi9XL1A+qX1Hs1yBpWGmwNrsZMjUqNJo1OjX5NuuYozSjNPM3Fmjs1z2s+0yJpWWkFavG15mtt0Tql9YiO0c3pbDqPPo++lX6a3q1N1LbW5mhna5dp79Zu1+7T0dJx0UnUmaJTqXNUp0sX07XS5ejm6i7V3a97Q/fTMKNhrGGCYYuG1Q27Muy93nA9Pz2BXqneHr3rep/0GfqB+jn6y/Ub9O8Z4AZ2BjEGkw02GJw26B2uPdxrOG946fD9w28booZ2hrGG0wy3GLYZ9hsZGwUbiY3WGZ0y6jXWNfYzzjZeZXzMuMeEbuJjIjRZZXLc5DlDh8Fi5DLWMloZfaaGpiGmUtPNpu2mn82szRLM5prtMbtnTjFnmmeYrzJvMe+zMLGIsJhuUWtx25JsybTMslxjedbyvZW1VZLVAqsGq2fWetYc62LrWuu7NlQbX5tJNtU212yJtkzbHNv1tpftUDtXuyy7SrtL9qi9m73Qfr19xwjCCI8RohHVIzod1BxYDkUOtQ4PHHUdwx3nOjY4vhxpMTJl5PKRZ0d+c3J1ynXa6nRnlNao0FFzRzWPeu1s58xzrnS+Npo6Omj0rNGNo1+52LsIXDa43HSlu0a4LnBtcf3q5u4mcatz63G3cE9zr3LvZGozo5mLmec8CB7+HrM8jnh89HTzLPTc7/mXl4NXjtdOr2djrMcIxmwd88jbzJvrvdm7y4fhk+azyafL19SX61vt+9DP3I/vt83vKcuWlc3axXrp7+Qv8T/k/57tyZ7BPhGABQQHlAa0B2oFJgRWBN4PMgvKDKoN6gt2DZ4WfCKEEBIWsjykk2PE4XFqOH2h7qEzQlvD1MLiwirCHobbhUvCmyPQiNCIlRF3Iy0jRZENUSCKE7Uy6l60dfSk6MMxxJjomMqYJ7GjYqfHno2jx02M2xn3Lt4/fmn8nQSbBGlCS6J6YmpiTeL7pICkFUldY0eOnTH2YrJBsjC5MYWUkpiyLaV/XOC41eO6U11TS1JvjLceP2X8+QkGE3InHJ2oPpE78UAaIS0pbWfaF24Ut5rbn85Jr0rv47F5a3gv+H78VfwegbdgheBphnfGioxnmd6ZKzN7snyzyrN6hWxhhfBVdkj2xuz3OVE523MGcpNy9+Sp5KXlNYm0RDmi1nzj/Cn5HWJ7cYm4a5LnpNWT+iRhkm0FSMH4gsZCbfgj3ya1kf4ifVDkU1RZ9GFy4uQDUzSniKa0TbWbumjq0+Kg4t+m4dN401qmm06fM/3BDNaMzTORmekzW2aZz5o/q3t28Owdcyhzcub8Ptdp7oq5b+clzWuebzR/9vxHvwT/UltCK5GUdC7wWrBxIb5QuLB90ehF6xZ9K+WXXihzKisv+7KYt/jCr6N+XfvrwJKMJe1L3ZZuWEZcJlp2Y7nv8h0rNFcUr3i0MmJl/SrGqtJVb1dPXH2+3KV84xrKGumarrXhaxvXWaxbtu5LRVbF9Ur/yj1VhlWLqt6v56+/ssFvQ91Go41lGz9tEm66uTl4c321VXX5FuKWoi1PtiZuPfsb87eabQbbyrZ93S7a3rUjdkdrjXtNzU7DnUtr0Vppbc+u1F2XdwfsbqxzqNu8R3dP2V6wV7r3+b60fTf2h+1vOcA8UHfQ8mDVIfqh0nqkfmp9X0NWQ1djcmNHU2hTS7NX86HDjoe3HzE9UnlU5+jSY5Rj848NHC8+3n9CfKL3ZObJRy0TW+6cGnvqWmtMa/vpsNPnzgSdOXWWdfb4Oe9zR857nm+6wLzQcNHtYn2ba9uh311/P9Tu1l5/yf1S42WPy80dYzqOXfG9cvJqwNUz1zjXLl6PvN5xI+HGzc7Uzq6b/JvPbuXeenW76PbnO7PvEu6W3tO4V37f8H71H7Z/7Oly6zr6IOBB28O4h3ce8R69eFzw+Ev3/CfUJ+VPTZ7WPHN+dqQnqOfy83HPu1+IX3zuLflT88+qlzYvD/7l91db39i+7leSVwOvF7/Rf7P9rcvblv7o/vvv8t59fl/6Qf/Djo/Mj2c/JX16+nnyF9KXtV9tvzZ/C/t2dyBvYEDMlXDlvwIYrGhGBgCvtwNATQaADs9nlHGK85+8IIozqxyB/4QVZ0R5cQOgDv6/x/TCv5tOAPZuhccvqK+eCkA0FYB4D4COHj1UB89q8nOlrBDhOWBT9Nf0vHTwb4rizPlD3D+3QKbqAn5u/wXGQXxA8D/YagAAAIplWElmTU0AKgAAAAgABAEaAAUAAAABAAAAPgEbAAUAAAABAAAARgEoAAMAAAABAAIAAIdpAAQAAAABAAAATgAAAAAAAACQAAAAAQAAAJAAAAABAAOShgAHAAAAEgAAAHigAgAEAAAAAQAABtSgAwAEAAAAAQAAAoAAAAAAQVNDSUkAAABTY3JlZW5zaG9097j5PgAAAAlwSFlzAAAWJQAAFiUBSVIk8AAAAddpVFh0WE1MOmNvbS5hZG9iZS54bXAAAAAAADx4OnhtcG1ldGEgeG1sbnM6eD0iYWRvYmU6bnM6bWV0YS8iIHg6eG1wdGs9IlhNUCBDb3JlIDYuMC4wIj4KICAgPHJkZjpSREYgeG1sbnM6cmRmPSJodHRwOi8vd3d3LnczLm9yZy8xOTk5LzAyLzIyLXJkZi1zeW50YXgtbnMjIj4KICAgICAgPHJkZjpEZXNjcmlwdGlvbiByZGY6YWJvdXQ9IiIKICAgICAgICAgICAgeG1sbnM6ZXhpZj0iaHR0cDovL25zLmFkb2JlLmNvbS9leGlmLzEuMC8iPgogICAgICAgICA8ZXhpZjpQaXhlbFlEaW1lbnNpb24+NjQwPC9leGlmOlBpeGVsWURpbWVuc2lvbj4KICAgICAgICAgPGV4aWY6UGl4ZWxYRGltZW5zaW9uPjE3NDg8L2V4aWY6UGl4ZWxYRGltZW5zaW9uPgogICAgICAgICA8ZXhpZjpVc2VyQ29tbWVudD5TY3JlZW5zaG90PC9leGlmOlVzZXJDb21tZW50PgogICAgICA8L3JkZjpEZXNjcmlwdGlvbj4KICAgPC9yZGY6UkRGPgo8L3g6eG1wbWV0YT4KUVBIOQAAABxpRE9UAAAAAgAAAAAAAAFAAAAAKAAAAUAAAAFAAAB3NR0rrMcAAEAASURBVHgB7N0JfFTV3f/xX1aSAAECIqCICIqiglhXBHFfKqhtXfr4PLVaa7U+2tZabW3717q0Lq2t9bFaa9XWVuvSWhfcNxAVq7IKyKKgrEISQvZMlsn//G64M/fe3FmTSSYzn/t6xZm5y7nnvM9k5DXfnHNyhg8f3i5sCCCAAAIIIIAAAggggAACCCCAAAIIIIAAAggggAACCCDgK5BDoObrwk4EEEAAAQQQQAABBBBAAAEEEEAAAQQQQAABBBBAAAEELAECNd4ICCCAAAIIIIAAAggggAACCCCAAAIIIIAAAggggAACCEQRIFCLgsMhBBBAAAEEEEAAAQQQQAABBBBAAAEEEEAAAQQQQAABBAjUeA8ggAACCCCAAAIIIIAAAggggAACCCCAAAIIIIAAAgggEEWAQC0KDocQQAABBBBAAAEEEEAAAQQQQAABBBBAAAEEEEAAAQQQIFDjPYAAAggggAACCCCAAAIIIIAAAggggAACCCCAAAIIIIBAFAECtSg4HEIAAQQQQAABBBBAAAEEEEAAAQQQQAABBBBAAAEEEECAQI33AAIIIIAAAggggAACCCCAAAIIIIAAAggggAACCCCAAAJRBAjUouBwCAEEEEAAAQQQQAABBBBAAAEEEEAAAQQQQAABBBBAAAECNd4DCCCAAAIIIIAAAggggAACCCCAAAIIIIAAAggggAACCEQRIFCLgsMhBBBAAAEEEEAAAQQQQAABBBBAAAEEEEAAAQQQQAABBAjUeA8ggAACCCCAAAIIIIAAAggggAACCCCAAAIIIIAAAgggEEWAQC0KDocQQAABBBBAAAEEEEAAAQQQQAABBBBAAAEEEEAAAQQQIFDjPYAAAggggAACCCCAAAIIIIAAAggggAACCCCAAAIIIIBAFAECtSg4HEIAAQQQQAABBBBAAAEEEEAAAQQQQAABBBBAAAEEEECAQI33AAIIIIAAAggggAACCCCAAAIIIIAAAggggAACCCCAAAJRBAjUouBwCAEEEEAAAQQQQAABBBBAAAEEEEAAAQQQQAABBBBAAAECNd4DCCCAAAIIIIAAAggggAACCCCAAAIIIIAAAggggAACCEQRIFCLgsMhBBBAAAEEEEAAAQQQQAABBBBAAAEEEEAAAQQQQAABBAjUeA8ggAACCCCAAAIIIIAAAggggAACCCCAAAIIIIAAAgggEEWAQC0KDocQQAABBBBAAAEEEEAAAQQQQAABBBBAAAEEEEAAAQQQIFDjPYAAAggggAACCCCAAAIIIIAAAggggAACCCCAAAIIIIBAFAECtSg4HEIAAQQQQAABBBBAAAEEEEAAAQQQQAABBBBAAAEEEECAQI33AAIIIIAAAggggAACCCCAAAIIIIAAAggggAACCCCAQI8ITJgwQT777DMJBAI9cr/uugmBWndJUg4CCCCAAAIIIIAAAggggAACCCCAAAIIIIAAAggggEBEgSFDhsi1114rmzdvlieeeMJ6jHhymh0gUEuzDqE6CCCAAAIIIIAAAggggAACCCCAAAIIIIAAAggggEAmCkybNk1OP/10q2mNjY1y33339ZlQjUAtE9+RtAkBBBBAAAEEEEAAAQQQQAABBBBAAAEEEEAAAQQQSDOBE088UfTH3vpSqEagZvcajwgggAACCCCAAAIIIIAAAggggAACCCCAAAIIIIAAAikTOOecc+SQQw5xld9XQjUCNVe38QIBBBBAAAEEEEAAAQQQQAABBBBAAAEEEEAAAQQQQCAVApdccomMGzeuU9Eaqj333HPy4YcfdjqWLjsI1NKlJ6gHAggggAACCCCAAAIIIIAAAggggAACCCCAAAIIIJChAsXFxXLDDTdEbd0TTzyRtqFazEBt1113dTVux44dEggEXPsSeZGXlycjR44ULbewsFDy8/OlpaXFKnPr1q2iP21tbRGL1GuGDBkS8XgwGJTm5mbRNFMfI20DBgyQ/v37Rzps1UGvr6+vj1ofbzla94qKilC5seobOtHzROtfU1Pj2dvxUts/ePBgKSkpsX6Kioosw9bWVmloaLDqXFtbK9u3b/e9Plt3et/L8TqUl5eLvq90S6YM73uirKxMCgoK4r196DxnPWKVoffU96/+NDU1hcrgib9AJE/9PdLfqWib/i7269ev0ymVlZWiv5P2Fuke9vFIj85+937e2NdoP1dVVdkvfR/182LgwIGdjnnbGKue+nmt96urq+tUlnNHrHKc5zqfO9sbqwz9vdTPSv2J9v8NZ/n6nM9Qr0h8r3crbpfi3PC5VS3tUtns2BE+5PusrLBdyhL/6JPNje3SEIx8H2+99ObVre1SHoh8jZ7jd53ut7dAsF0azT9H9Ke+LXpZek2s8uxyvY9r60WCkmPtjmUUlHapMx8rNS050hTsuMZbnv06Wn3aTTl6vbatyvyTrj0nell2mfrYPy8oEwflyO7mzVCcL5Jrrm003juag7K6tl02NJiyEihPy/Sra3f0YVt7u3kviNQar5b2KG00540foDXx3ywvfS+Yfwo0tMa295YysigoI4rMZ09hrgwuzJH++TnSbL23glJj7LabPqg0/2Td1Biljt5CeY0AAggggAACCCCAAAIIIIBAHxTwrp8WqQnpGqpFDdT0S/9f/epXrjY9/PDD8tFHH7n2xfNir732kunTp8vEiRMlNzfyF1P6BfTSpUvl7bfflg0bNnQqet9995WLLrqo036/HdXV1bJmzRp58803Zdu2ba5TTjvtNDnmmGNc+/xetJsvWfQL3mXLlsmcOXOsL26d53nL+eKLL+SOO+4InZJIfUMXmSfa/meeeSa0S4M59Zs0aZKMGjUqtD/ak6uvvjra4aw65vdejhfgpptussLNZMvYsmWL/Pa3vw3d7nvf+56MHj069DreJ9ddd13o/ZdIGRoIaVC9YsUKef/992MGRPHWJ5POi+S5ZMkS+fvf/x61qT//+c9l0KBBnc7RPte+t7dI97CPR3p09rv388a+RsN3fZ9G28477zyZMmVKp1P0c0Y/b+wt3npqsKbt0yHY8+fPty8PPcZbTuiCnU+c7U2kDP3jh9WrV8vixYut97q3XD5DvSKJv3586gA5cIhJBXZuj6yrkV+uiPyHK/Z59uNV+xbIReM6/67YxyM9XvFhhby+1f9oYU67zDtpqAzMd/+74tPaZpn1lv8fpdgledtj7/d7rG4Jyie1AXnji0Z5amObVJuAxrslUp7z2sNfKpfato7yEjFqbAvKwu1N8tqWRnlyQzAUytllx1sfLWdNTbM8vaFeHl9vIjufMCzPBHCnjMqVb+zZXw4cXBQ1L6sySdE/19fKo581y9YYoabWtaf6cIep17xtDfL85iZ5q9zdf0W57bLw1F1supiPXzS2yirzHnt+U6O8vCXoG9YV5wbl/LEFcvKoEtm3tPMfXfjdZP/Z5b7+fueyDwEEEEAAAQQQQAABBBBAAIG+JqC5xg9+8IO4q52OoVqPBGonn3yynHDCCXFD2SfOnj1b5s6da7+0HpMJqHSEzq9//WvXiK9IX0y7buZ5oQHfXXfd5drrLScVgZqOQPv2t78tY8aMcd071gsCtbBQsmGYltDXA7WwgvnLehOuPfDAA7J+/Xrn7qx/Him40dDoF7/4RcTRrmPHjpXLLrvM168nAzWtwL333itr1671rYuOBNZ2+I2kSzZQc95I/9jg+eefd+6SSKauk3xeJBuoOYt64YUXrD+ksPfxGWpLdO3RG9CkQ6B26kiROw4e5tuws97aJitq3UGb80Rve5zHoj3XYOY772+XZdXuUCbZ8pIN1Jx1fG1LvVy5sEHado5002PJ1OfBT6vlNytbnEVLgQkt7z20v0zdpcS1P9YLDeq+/V6FLNoRuQ+0jN7ow1+v2C4PresYea51SDRQ02vsbfmOgHzngxqpag6/H3QU3/2HD5SDhhTbp8X1SKAWFxMnIYAAAggggAACCCCAAAII9EEBDdN07TSd8jGRTf+YX4O1dNlSHqgddthhcvbZZ3dqrwZPOoJMpw7TLzt1Cq5hwzp/KeYdEecXqGlgpiPJdNMvjP1GwD322GOyYMGCUD28QZheb0+Nl2P+OlvL0UfvpiP2nFOrecuJJ1Bz1tdbvv36vffeE/1SWLdZs2bJ0UcfbR+yHrWMzZs3WwGJ1l3rq2/G0tJS60frTqAWJvML1PS9F880cRrG6rR4yZah74l77rknVBlv0GBPzxg6IcKTW265JeIINW8ZOhpHp1f123Q0k76P42m73/WZuM/bJ842PvLII9aoJ+c++/lXvvIVmTp1qv3S9RgrUPP2metixwtnv3s/bxyniX5m/Otf/3LuCj0/8MAD5fzzzw+9dj6JFag566mfrX6hnE4vq/V0bl5TZznO87zPne2NVUak+ui9dOSgPeUmn6Fe5eReewOargZqZkZFM31hONSIVKtrFlV2GlFkn/vHQ0vk6OH+Qc9f1lbL7R+7wyH7On30tqdZ/x1gpt+ztyIzLV+hz78D9PjWplY54fWqqAGWtzy7XO/jCa9XSl2EEWpeo1zzz5L+ebm+I8QumF8u728P/7slWvvytBzPqD6t18b6FjlpTrWrirdN7iezdndPF6tt+9gESVVm5F6LqeQgYzVuYD8Z2s/9/51a079ffasy6lSGqexDbWKJ8fJuWv/DXqyQ5p3TQPoFag1t7dKqHWA2fRtoOermt720uU5+uCg8vfI1ZjTmBZ7RmGqxsjog1WZqTDPbowwsyJGBpszhZt7MYf3yrbIJ1Px02YcAAggggAACCCCAAAIIINCXBTSzmDZtmuhUj8lu6RSqpTxQ834humnTJvnrX//qCqVsSE0pL7zwQmt9MHufTrWo59ubX6B2/fXXu6ax01DpW9/6luy22272ZfLBBx+4kkzvF9PeIEwv3H333eXSSy91fYEcK5jzlhNPfUOVjPBEh0E627Jy5Ur5y1/+EjEQ0TBN10qKtAZbhNtk9G6/MMwb1sYC6I4y9B7e34l33nlHnn766Vi3dx2PpwwN1XRqSR0dOn78eNf1+julv1tsHQJeT6fL8uXLrd835z59rr9nOppK1zXz22IFasn0u/dzy3lfnfJQF/S0/7jAeewb3/iGNV2sc5/9PFag5q2nBrUHH3ywnHPOOXYR1uMvf/lL0TU27c1r6i3HPi/aYzxl6Pv8jDPOEP3jDed29913y+eff27t4jPUKZP8c29A09VAbXVNQM6cV5t0hYYWBmXOCcNDIcfauhbZa0B4kbaKQJsc89r2TlMh2jeMpz3FZirAAweLXLp3fzlimDu4805FGU959r0jPXqnfPQzyjXTL565e67cPHmoq5jffbxd7l8bDihj1UdHns3arXM5x762LTRVY4mZtvA/p4SN9YZPb6iVm5c1dlrXLseEVCeZEYO3Thkm/TT527ndvGy7PPp5uF72fn3smT4Myk8mFsnZY0qdt5b/eqdcluzoqKdfoPa9D8rltW3hdpgPVxlUKHK4Yb9m4hAZpQvI7dxM9ibTXy2XHTunAn3yqIGy/+DwNI/zyhvk8g/qfaeG1CK0T4f2i73un30/HhFAAAEEEEAAAQQQQAABBBBINwEdMFVWVmYNnNLnuo0bN050KbDu2NIlVEtpoKYjGXS6POdIr4ceesh3fRsb9aijjpIzzzzTfineL4njDai8Xzx7gznvcW8QZlfA+4Wu98vnWOXEW1/7fn6POppIwxx7e+qpp3zXLLKP89hZoDvCsO4oQ2vmfU+lKmiwFXS6vxtvvNH1HvJOiWefm62P3j6pq6sLBWU62kmDqsbGRhePhpQ6TNnedDrNkpLwF+49Eag566n10Ok8NXB3bho46XSP9meIt57ezzSvhd/70+93IRXtjacu2lZdw05HpDm3+++/31pTTffxGeqUSf55rIAmVsnxhEWxynAe/+bYXPnxxLLQrv+3pFK+PmaAK8i4+L1yeafSEYqEzu48Qi1aQKjrfM0/eagUO0Y73WGmDXzAMW1gV320anEbmXDnpWMHyx79w/82uG/NDvn96tZQC+Opj1+QdObcclld12E2bVi7/Onw8Npi5rZyxMvhNd9CN3M8ufPgYhOs9Q/tecVMR/mDhe7PT/tgT/Xhrv2C8qYJX53bRfO3yfztHaPX/Bw6BWqOi780JCh/m+ou79y3y+WjndOAfnhymZQ4RgDesLRSHt8QHv3oKIqnCCCAAAIIIIAAAggggAACCPRZAQ3OdOSZBmd2iJbKxrz99tvy7LPPpvIWMctOaaA2cuRI+eEPf+iqhPdLV9dB82LixInWKDXnfueaOvEGVDNnzpQZM2aEikk2UPv+979vjVSzC/J++dwTgZqGkjotpr3pWkVzzJpFbPEL+AUAmT5Czalz5ZVXio4Atbd58+b1+oePXZd0ePQGN2+99ZZrmlWdp1dHuTq3s846Sw4//HBr19atW61Rsrqmmr15P+u89/ALquxrIz16P2/0fyL6Rwj2Hy3oX2o8/vjjrsunTJki5513nrVPR69pO5yjubyfafHUU0M6HZHm3FLR3njqYtdBp2Z1bs5Ajc9Qp0zyz+MJaKKVHndYFK0Qx7F/Tx8oE0o7RgG1mvf29Fcr5Kzd8+QqR8j2nBlN9eOlAcdV4aeJtucpc799d95PS/mLWW/sdsd6Y4mWF65J+FkiRg8f0V8OGRqedzyZQK3YjEBbcKo7GHIGav89Jld+dkA4tKwxUzwe8cr2cIV9nl1tpju80DHd4UozEvGrEUYi9lQf6ui55TPDwaBWuyuB2oC8dnn/FHd5l5kRbXN2jmh73wRqAxyBmnfNNh82diGAAAIIIIAAAggggAACCCDQZwTsIO2QQw5JSZ11YIMud+XctmzZIvqdtnM5LufxnnqekYGahiff/e53renubMjZs2fL3Llz7Zfi/WLab4SaDlHUQNC5ZtBdd90lGzZsiLuceAPAUIE+T6644grZY489Qkd0PS/9gn/jxo2hdd/stYJCJ/HEJZDtgZp3yjsCNdfbo9OowXvvvdeaNtb+3V+9erVoQGNvGmDpVLP9+3eMwnjppZdkwoQJ0tOBmobrel97Sk9dW1FH0zk/Dy644ALZf//9raqvWbNG1q9fL8cff7zdFEkmUJs0aZLoNJL2piOJb775Ztd9EwnD7HK8j/GWoWGxhsbOzRmo8RnqlEn+eVcDo0TColi13HdAUJ6aEQ6C3jZT6n3n/QbZrbhdXj0uHHToOljTX6mQxmDnUWqJtuef0wbKxEHhafy8a7QlWp5fG+M1yjNTBL51oplGoTC8ZtkfV1fJXWt0da6OLZ76nDSiXe78UthrR3PHNJn22mKpDNR6sg+991Khi8zoxfk7Ry8mOkJNp8L80BNE/q8J1N7cGag9NnWATBoS/kOo8qY2+dmS7bKipl3qdk4LaZZS61icraO7+C8CCCCAAAIIIIAAAggggAACfUJAQ7RZs2aJro3W3ZsOFtABBN4wrbvv05XyMiJQ02BJp2XTTb8A14TU/iJc961bt050qknnlG3eQK2lpSXUUfplub4htBydLs/e3n33Xfn3v/9tv7QeveV4gzm/QE0DsWDQfz0RLVRH0znX1Dr99NNl+vTprvt6X2j7q6urrYT2P//5jyxevNh3LSXvddny2i9Q++STT2T79uh/af/yyy+H1qLzK0Onz9P3TqRN+/r3v/+967A3JGhubna9N10n73xxzz33uOrqLSPWaCcCNT/V8D6vpwbnulimrhWmm47s0qBKgyPdNMT69re/bT3X/9x2223WmmKJBGrJ9Lv380YDNa2Tcz0z5/p4OrJVgz/7c+zJJ5+05jJOJFDTaSUrKyuttubm5lrrM+oUi/aoOH3//+tf/5IFCxaEPPSJ1zSZ9nrLmD9/vhUA2jfS+uiamaeeeqpMnjzZ3m09ap9UVFRYz/kMddEk/SKegCZa4d6wSEeVVZp1zqJtv/64Wl7Y3HmqvGv2K5AL9hoUuvRniyvl35s6zvPW85pFlTLbpwzvedGmfNQbJRqoaZhX2xK9ff/zbpVsagyHfV6jNWZ011lv14TaqU9KC8waarvlu0bi6f7rzJSX/9wYtvK2r9KEZRvqm/VUyZMcGVqULyPMj73cWUNrUG74qEqec1ilMlBLRR8+9lmN3LIiPCIxz9AOLWyXH+5bIqfu5l7v8uQ3tsmGxuSmfIwVqHnbZqF7/tNs3v/bGltlU0OL/HNDo7y4ORhxvT/PpbxEAAEEEEAAAQQQQAABBBBAoFcE9Ds2/c60uzfNbXQA0fLly7u76G4vLyMCtWgqGjLpSAWdks25eb+Ydh7ze64jVB555BFrWjfncW858QRqzuv9ni9atEgeffTR0CENB3XqyV12Cf8VeehghCcaIuooGw0C2MRaP0rXUUp0u+OOO0T7VDe/QC1WeTU1NdY6gs7zvCGB81ik585wQM/xlkGgFkkuvv1eTw3UdPTZRRddFCrAuXahBliHHnqodWzTpk1y5513ymWXXZbQCLVQwVGeePvd+3mjgZoG6Bqa5eV1jFRZunSp/O1vf7NK1b8YOffcc63nGuJrKHj00UcnNEItSvWsQ2+++aZo8Gz/UYN9vtfU3h/t0dveZMrQ8nUU8f/93/+FPv/4DI2mHv8xb0ATK4DyluwNi7zH/V57QyI9J9eMzpp7QpkM7dfxnm8x/5+b9nKF1LZ1BFMXmLXVrnFM+/iOGb12sRm95t0SbU+igZr3fn6vnaGOHk/GSK+rNlMxnjG3QrYFOgIi3edtn+6Ltt3/yQ65e3WLtLSHA75UBWqp6sNo7XMe+6iqSc59pzY0Qqy7R6hp4PbP6UNkzwHhNe6c9/d7/mFlo1zwXh2hmh8O+xBAAAEEEEAAAQQQQAABBHpdIFVhmjZMv1tN51FpTvyMD9S0sRoqLVy40FpbyA6YvF9MO1EiPdeRGPoFtoYX9uYtJxWBmt5rwIAB1ppwRx55pGv0nV0Pv0fvNJd+52TLvmTCMLUhUMuOd4g3uNFATUe+6vqN+runm4bUOlJQgysNsOxhzfqZoGsa9lagpvf+5je/KQcccIBVT/2c+sUvfiE6IkwDQR0lq9vKlSvlgQcekFNOOaVbAzUtW4NjDfE+++wzfWltXlN7f7THrgZqgUBAlixZIq+88oo1Ytd5Lz5DnRrJPfcGNL0VqM3YpV3uPSz8ByZvbWuQSz8IB2Yji4Ly+vHh6SDNQDGZ8do22d4cDptUINH2pGOgpm2bZwLDP66ul6XV4SDMr33x9Po2MzXhDz6slMXVHVapCtRS1Yex2lhvRuG9sKlO7l7TJOWO8LG7AzWtR5kZGXfhXoXy9TEDpb9jPbVodbx9xXb5y7rIMxhEu5ZjCCCAAAIIIIAAAggggAACCKRSQJdcueSSS0LfiXbXvV599VXRn76yZUSgpiOP7KnYdBqy4cOHi47MmDp1qqsf9AtfHb2hmzcI0xFs+iW6vekUabvttpv1xfO4cePs3VY4d9NNN4lO5aebt5x4AjUdMadrHUXatC32FGt+5wwcOFAGDx4sOp2bbhoWjR49Wo477jjRKdDszf4C3X6dzY9+gZp+8W6PPotko1PM2e8tvzJeeOEF+fTTTyNdbq0p5U3XvUGDvied6/v5FaZlONfF8pbBCDU/tfj3eT31s0BHOX3lK18JfY5oGP/LX/7S+ly48MILQ4Xr548uhplooJZMv3s/b+wwz7ummY5wXbVqlRX82Z8Jjz32mDUtY6KBmo6Ae/bZZ0Pt1c+dMWPGyBlnnCE69aO96Wfob37zG/tlp1GUybTX2y/6uam/jzrizA467Ru+/vrr8sYbb1hBor0v0iOfoZFkou9PNIDyluYdfbWxvlWuWlTlPc31emOjSFWzOyj63cHFcvLIjvUL9eR1dS3y2c6pDO2Lp+5SIv3suQzNzluXb5eHP3MHFYm2J9FA7eUt9fLgp+Ggz66b83GVmc3RXq9M93uNdFrALxpaJc/822a3kvAU1HruXBMk/r8ldVLhCQr1mG7e9j1upkO8/ePwvz108NRBg3Pk2v2HyIjicNk6zeQZ8zr+jZOqQC1VfVhrArMqM41o/4JcM9VjxwjGDg2Re80ac3/+tNV3Pb1UBGr2fc0/HM1oynYZWZwjA3cyF5mqTSzNl0v2GSz5pm/tzRsO2/t5RAABBBBAAAEEEEAAAQQQQCAdBLo7VNOpHm+99daYyyGlQ9vtOmREoKajRXQtK+emX7jqKA177SA9ptOSvfbaa9Zp3i+mvUGYXdbee+8t3/nOd+yX1qOOUtHRKrrFKsdvDTW/+lqFdfE/F1xwgey///6hUnR9sFtuuSX0Opuf+IVhDz/8sHz00Udxs3RHGXozb0gQKwzzq2CiZbCGmp9ieJ/X0w7UNDi6/PLLQyfqqE/9H4e9ttrnn38ud999t3U80UAtmX73ft7YgZp+zunnnX7u6bZixQprzuGzzz7beq1hrB7XEVyJBmqR6qnrlmmIb28aOF5zzTX2y5S+z0tKSuRHP/qRtZ6bfUMNQLUvoq1PaZ8b6ZHP0EgyHfu9AU1XR6itNsHNmTuDm+h3Dh8dmNcub500zBWWhY9GfrZ8R0DO1in+HFui7Uk0UEvUR6vmDdScRvcfViJHmaDQ3upMeHTm3ErZ3BQOZOxj+hhv+763d55cus+Q0KVBM+rtgBcqrNepCNR6og91nbnZM8pk2M5pQbUxOs3jee/WSptZP867pTRQ897M8fruLxXLcSPC4fBGs57aSW9WO87gKQIIIIAAAggggAACCCCAAALpJdCdoZoOVLnvvvvSq4ExapOxgZq2+9prr5WysrIQgU4DZg8f9H4xHSlQGzJkiPz0pz8NlaFPdG2ytWvXWvtildOTgdoxxxxjBXx2ZXUU3Y033mi/zOrH7gjDuqMM7QRveBMpsIjWYYmWceWVV1pBkF3mvHnzXKOO7P3Z+uj1tAM19XB+jmzZssX6TLGDq2eeeUbefvtti603AzWtgK6VpiNzddP1zHRUo45c1W3ZsmXy17/+1XreXYGac302q2Dzn6uvvtp+mvL3uf7xgAZgzk1HqL344ovOXQk95zM0Ole8AU2kUqKFRZGu8e4/d3SuXD8p/P917/For2fO2SZr68OjuBNtz1PTB8q+pR2htd7nL59Wy+0rW0K3TLS80IWOJ9GMRpipLJ+dMUwGOKYP1HW3vjm/Ttodo5zs4uKtz+mjzAi+KcPsy3RAleyfwkCtp/rwODPr592HhtulDfyjGaV215q2UFvtJ4kGagNMsPv+KeFpR7Wcyz4olznbOod19j38Hi8y6/1d5Vjvr9xMuTnj9eijNv3KYR8CCCCAAAIIIIAAAggggAACPSmgodo555zj+r45mfv3teketY0pDdR0OrCf//znLkvntIuuAztfHH300TJr1qzQobq6OisUstc+izeg0i+89d72tIhaYDKB2tixY62p3EIVMk/SNVD78pe/LMcee2yoqvaaT6EdWfykO8Kw7ihDu8Ab3qQ6UNPfhRtuuMFa+8t+C7z00kuiU+SxdQh4+8QZqHlHYtlm+pl08803W+uH6b7eDtT22Wcfufjii+3quR4feeQRWbx4sbWvuwK1E044QU4++WTXfXoyUNMbn3feeTJlypRQHbRPdATxZ599FtqXyBM+Q6NrxRvQRColWlgU6Rrv/ken9peDhhSHdv/u4+0yv7JzQKIn3Dip1BWA3bdmh/x+dWvo2kTaU5IblHdNgFLoCK703vevDU8jmUh5oUp4nsQyOmv3HLlx8lDXVd562Afjrc93x+fJFRPCI9ScgdqsUTly25Tw/XT02tE+69HZ99RH76irlzbXyQ8Xhaea7Mk+vG1yP5m1+8BQ9bT+33h3myzaEQ5W9WCigdrUsqD8+UiT2Dm2894pl8U7EgvUrpyQLxePHxwqRQPS89+rD73mCQIIIIAAAggggAACCCCAAALpKlBcXGytqabhWrJbVgRq//znP+Xjjz+OaqRr3OgICd10mrH+/cPT2ZSXl8tTTz1lrTtlh2R6nq7zo2HZV7/6Vde6PO+//748+eSTeoq1+QVqd9xxR2jKR536TNfHOeqoo1xftOrF//jHP2ThwoVWOd6RZdu2bXMNLywsLBQdnabn6Vpqzk3XUdqxY4dvOd6RbrHq6yzX+Vxt7HXaJk6cKKWlpda6arq2mq7X5LTTdeP0PjpCxWk9Z84c0Snh2DrWmdO1rpxbd0z5GM/vg95T+9LuM29488EHH4gGXLE2nVO2paVjNESsMvLy8qy19XbZZReZPn26ONcB1Pv8/e9/F11Djq1DwOvpDNR23XVXa3pBr5WOUtVw3d4SDdSS6Xfv55Y95aPWQT8Hrrvuuk5ri+l7Rj+Hm5ubraomGqg566n30IB2xIgRotNJOv9gQT+bdM5je/OaOsuxz/F7jPY+94bPOvWjhnjO9dR0qtvf/e53rnUq+Qz1k058nzeg+feGWrlzlVnkLMpWbz6yGoId4YU3LFpr1j678L3Yo3EaW3Okri1HxhQH5UUddrRz0/XFjnq5XOrb3OGIffxCM/rnasfon01mLbIT3zD32xmKxWpPgTmvyIxE2rN/rpw/tkQOGxaeblHvceWCcnn5i3CAEqs8u17ex5qWHAkEO8rxGjmnfLSv+/PhJTLVUZcW4/Bf88plRa3bIVp99G79zTpe+5TmyE0moHOOeltvOu2UOR3TDu4zoF2enuEeifV2eYPcsqxO1jW476eh49f2yDcjroa4gsdrFlXK7M0myTJbqvvQO82mTv34/DFlrvXUdFrFM+dWhd6XWi+/QO36pZVmxFnHv2XVq8Csyacj0w4cnCcXjS+VMf3NInQ7Nw0hpzuCxmOHt8su/XJlQ0NQ1jeIbDG/JkHHVJO5Yt67hvXWg8pkiGOttwfNqMffOEY92uXziAACCCCAAAIIIIAAAggggEA6CnQ1VHv22WdDs3+lY/v86pTwCDW/Qrz7dN7LTz75xNo9Y8YMmTlzpvcU0TV9ampqrEcNwTQwcq53phfoWjh/+tOfrPDNLsAvoLKPRXvUMEO/7NUvW3XzfjEd7VrnMe+6ZN5y4gnUnOVFel5RUSG33Xabdfiss86Sww8/PHSqtkW/dNZ14zSI1ABRR085Nz1H+0HnIWVLXaAWr+1NN90UGsnkDRriLePRRx+VRYsWWacnW4ZerKM+NRTW30G2DgGvpzNQ0zOuuuoqK0RyeukfBsyfPz+0K9FALXRhjCfOfvd+3jgDNS3mjDPOkGnTprlK1OBUA1R7SzRQs6+L9aiB2RNPPBE6zWsaOhDjibO93jK8gZoW5Tf1o/7hhP4Bhb3xGWpLdO3RG9DEU9ofVlXJHz7pCCW8YVE81+s5j39WIzcsb5YrzFpf33Ws9fXm1nr53w8jB3qjitrltePdYZCOTlpQ1REEJdMeu86VgTY5/vXt0tweOVCzz431+KOFFfLClo6zvEZ+gZpO/ficmfqxv2PqRw0nz5q3Q5p2BnNaWrLte2p9jfz8o44AXsu559ASOWa4O0zU/bVmDbcq49Bihn1pXXYtyrezSj1sbep02tztoqGhbqnuQ2+gpvf0m/rx2Y218pMlAT1sbX6Bmn0snsfXv6iXKxaE34vX718o5+5ZGrpUR8bVGK/q5jbJMxRlJkQrcfSfnqjnfOu9cnl/e/g9FSqAJwgggAACCCCAAAIIIIAAAgikoUBXA7W+mF+kPFDTfv7Sl74kZ555pms0Q6z+11FY+iXw+vXrXacmE6hpMPf444+HRqdpgd4vpl03ifBCgwgN+HQdJXvzltMTgZp970iP2l79Mtme4i3Sedm0vzuma/QrI17DdAnU9D380EMPdfq9ircdmXqeN7jxBmo6lapOB2hvGljrNJo6Gtfe0iFQGzNmjFx++eV2laxHXTtN11Czt1QEajrF4oMPPmgF/fZ9vKb2/liPiQZqWp536kfd5xyF6Q3U9Hi0jc9Qf51kAppuC9SWBUw4NkRGFeeHKvfjRRXy3ObQS98n/5g6QCYPKQode/LzGrl+WUdYlEx7tCANib77wXZZVu0OPpItL9FATevgN/XjYyZ4vNEEj/aWTH0WVTXKJf+ps0YE2uUU5LTL9ycUyoV7DeoUmNnn+D2+X9EgVy2qk8rmnSPZzOdmqvvQL1DTunmnftR9zhGGXQnUPqpqkks/rJWq5vD7wRuo6f2iba3G5sdmJN+L4X9eRjudYwgggAACCCCAAAIIIIAAAgj0ukBXwzRtwDXXXNPr7Ui0Aj0SqGmldPrEqVOnyvjx460pFHXqMO+mU5PpiKpVq1bJggULXF/O2ufGCtT0i1AduaU/1dXVVln6ZbJOR+bcvEGY85g+19E7+mW5jgTT0WLLly+XFStWhKaWtM/3lpOKQO3444+XI4880hrF5+dm10WnFVy6dKl8+OGHsnHjRns3j0bALwzrjikf48Xt6UBNfw90ij/9ndJwWqc01d8tfX/YU//FW/dsOM8b/ngDNf38uvbaa61pFdVj9erVcv/997to0iFQ0wr95Cc/kaFDO9Y8CgQC1nSPztGIXQ3UtEz7M3bTpk3WZ6N+ZtvT/NooXlN7f6zHZAI1v6kf9bNbpwPW/w/wGRpLPb7jyQQ03RWovbQlIA8dGR5tFmu6R7tF3zTTPv7YMe1jTUtQpr9aKS1mZFms9uhUik1t5qe13UzZ1yLrzCiw+RUBeeULs88xEsy+V6zy7PO8j8kEalqGd+pH3XfJ++Uyr7zj31ex6lNvRkztaNafNllRHZA3tgbk3QqxbLQs7zZlcFDO3L1IDh9WLHs4pjt0nldlynp7W4PMLW+WlzYHXdMcHl7WnvI+jBSo+U39WG3eC2fMrZBtgVzfKR+d7dLnATOErNG8HxqM28b6Zllb1yqvbmmS9ypzpN3zb9pLxuXJ1/ccKMP65Vsj0rxl2a/Lm9rklS318u+NTbKixj2Fpn0OjwgggAACCCCAAAIIIIAAAgikm4BfmKaZhG6HHHJIXNXV852zXcV1URqcFDVQS1X9dH0yneJRvwTV5/rlrI6cca4zlap79+VyNUzT6R3VTdcx0pBIAxP7y23naJm+3E7qjgACCKRCgM/QVKhSZjYKDDZrkw0xP4PMbNP5Zm2x7c3tUmWmdazSWRQ94VI2+tht1rXShvZrl8EFOVJs1qzTn4AJ5arN2oLVZm1A9fKGcfa1PCKAAAIIIIAAAggggAACCCCQjgJ+YZoO5NDpG3U755xz4grV+uJ0j9q+XgnU9MZsCCCAAAIIIIAAAggggAACCCCAAAIIIIAAAggggAAC6S/gF6Zt3rzZCtN0tih7ixWq9dXRado+AjW7l3lEAAEEEEAAAQQQQAABBBBAAAEEEEAAAQQQQAABBBBwCcQbptkXTZs2TU4//XT7ZehRlye68847fZf7Cp2Uxk8I1NK4c6gaAggggAACCCCAAAIIIIAAAggggAACCCCAAAIIINBbAomGaXY9dT01Ha1mbzqKTad61FFtfXUjUOurPUe9EUAAAQQQQAABBBBAAAEEEEAAAQQQQAABBBBAAIEUCSQbptnVsUO1TAjTtE0EanbP8ogAAggggAACCCCAAAIIIIAAAggggAACCCCAAAIIIGAJHHXUUTJ06NCQRnNzs7z55psSCARC+2I9mTBhglRWVkpFRUWsU9P+OIFa2ncRFUQAAQQQQAABBBBAAAEEEEAAAQQQQAABBBBAAAEEEOhNAQK13tTn3ggggAACCCCAAAIIIIAAAggggAACCCCAAAIIIIAAAmkvQKCW9l1EBRFAAAEEEEAAAQQQQAABBBBAAAEEEEAAAQQQQAABBHpTgECtN/W5NwIIIIAAAggggAACCCCAAAIIIIAAAggggAACCCCAQNoLEKilfRdRQQQQQAABBBBAAAEEEEAAAQQQQAABBBBAAAEEEEAAgd4UIFDrTX3ujQACCCCAAAIIIIAAAggggAACCCCAAAIIIIAAAgggkPYCBGpp30VUEAEEEEAAAQQQQAABBBBAAAEEEEAAAQQQQAABBBBAoDcFCNR6U597I4AAAggggAACCCCAAAIIIIAAAggggAACCCCAAAIIpL0AgVradxEVRAABBBBAAAEEEEAAAQQQQAABBBBAAAEEEEAAAQQQ6E0BArXe1OfeCCCAAAIIIIAAAggggAACCCCAAAIIIIAAAggggAACaS9AoJb2XUQFEUAAAQQQQAABBBBAAAEEEEAAAQQQQAABBBBAAAEEelOAQK039bk3AggggAACCCCAAAIIIIAAAggggAACCCCAAAIIIIBA2gsQqKV9F1FBBBBAAAEEEEAAAQQQQAABBBBAAAEEEEAAAQQQQACB3hQgUOtNfe6NAAIIIIAAAggggAACCCCAAAIIIIAAAggggAACCCCQ9gIEamnfRVQQAQQQQAABBBBAAAEEEEAAAQQQQAABBBBAAAEEEECgNwUI1HpTn3sjgAACCCCAAAIIIIAAAggggAACCCCAAAIIIIAAAgikvQCBWtp3ERVEAAEEEEAAAQQQQAABBBBAAAEEEEAAAQQQQAABBBDoTQECtd7U594IIIAAAggggAACCCCAAAIIIIAAAggggAACCCCAAAJpL0CglvZdRAURQAABBBBAAAEEEEAAAQQQQAABBBBAAAEEEEAAAQR6U4BArTf1uTcCCCCAAAIIIIAAAggggAACCCCAAAIIIIAAAggggEDaCxCopX0XUUEEEEAAAQQQQAABBBBAAAEEEEAAAQQQQAABBBBAAIHeFCBQ60197o0AAggggAACCCCAAAIIIIAAAggggAACCCCAAAIIIJD2AgRqad9FVBABBBBAAAEEEEAAAQQQQAABBBBAAAEEEEAAAQQQQKA3BQjUelOfeyOAAAIIIIAAAggggAACCCCAAAIIIIAAAggggAACCKS9AIFa2ncRFUQAAQQQQACBviiw4rRhfbHa3Vbnic9XdFtZFIQAAggggAACCCCAAAIIIIAAAgj0tgCBWm/3APdHAAEEEEAAgYwUIFAjUMvINzaNQgABBBBAAAEEEEAAAQQQQCBLBQjUsrTjaTYCCCCAAAIIpFaAQI1ALbXvMEpHAAEEEEAAAQQQQAABBBBAAIGeFCBQ60lt7oUAAggggAACWSNAoEagljVvdhqKAAIIIIAAAggggAACCCCAQBYI5BxzzDHtWdBOmogAAggggAACCCCAAAIIIIAAAggggAACCCCAAAIIIIBAUgIEakmxcRECCCCAAAIIIIAAAggggAACCCCAAAIIIIAAAggggEC2CDDlY7b0NO1EAAEEEEAAAQQQQAABBBBAAAEEEEAAAQQQQAABBBBISoBALSk2LkIAAQQQQAABBBBAAAEEEEAAAQQQQAABBBBAAAEEEMgWAQK1bOlp2okAAggggAACCCCAAAIIIIAAAggggAACCCCAAAIIIJCUAIFaUmxchAACCCCAAAIIIIAAAggggAACCCCAAAIIIIAAAgggkC0CBGrZ0tO0EwEEEEAAAQQQQAABBBBAAAEEEEAAAQQQQAABBBBAICkBArWk2LgIAQQQQAABBBBAAAEEEEAAAQQQQAABBBBAAAEEEEAgWwQI1LKlp2knAggggAACCCCAAAIIIIAAAggggAACCCCAAAIIIIBAUgIEakmxcRECCCCAAAIIIIAAAggggAACCCCAAAIIIIAAAggggEC2CBCoZUtP004EEEAAAQQQQAABBBBAAAEEEEAAAQQQQAABBBBAAIGkBAjUkmLjIgQQQAABBBBAAAEEEEAAAQQQQAABBBBAAAEEEEAAgWwRIFDLlp6mnQgggAACCCCAAAIIIIAAAggggAACCCCAAAIIIIAAAkkJEKglxcZFCCCAAAIIIIAAAggggAACCCCAAAIIIIAAAggggAAC2SJAoJYtPU07EUAAAQQQQAABBBBAAAEEEEAAAQQQQAABBBBAAAEEkhIgUEuKjYsQQAABBBBAAAEEEEAAAQQQQAABBBBAAAEEEEAAAQSyRYBALVt6mnYigAACCCCAAAIIIIAAAggggAACCCCAAAIIIIAAAggkJUCglhQbFyGAAAIIIIAAAggggAACCCCAAAIIIIAAAggggAACCGSLAIFatvQ07UQAAQQQQAABBBBAAAEEEEAAAQQQQAABBBBAAAEEEEhKgEAtKTYuQgABBBBAAAEEEEAAAQQQQAABBBBAAAEEEEAAAQQQyBYBArVs6WnaiQACCCCAAAIIIIAAAggggAACCCCAAAIIIIAAAgggkJQAgVpSbFyEAAIIIIAAAggggAACCCCAAAIIIIAAAggggAACCCCQLQIEatnS07QTAQQQQAABBBBAAAEEEEAAAQQQQAABBBBAAAEEEEAgKQECtaTYuAgBBBBAAAEEEEAAAQQQQAABBBBAAAEEEEAAAQQQQCBbBAjUsqWnaScCCCCAAAIIIIAAAggggAACCCCAAAIIIIAAAggggEBSAgRqSbFxEQIIIIAAAggggAACCCCAAAIIIIAAAggggAACCCCAQLYIEKhlS0/TTgQQQAABBBBAAAEEEEAAAQQQQAABBBBAAAEEEEAAgaQECNSSYuMiBBBAAAEEEEAAAQQQQAABBBBAAAEEEEAAAQQQQACBbBEgUMuWnqadCCCAAAIIIIAAAggggAACCCCAAAIIIIAAAggggAACSQkQqCXFxkUIIIAAAggggAACCCCAAAIIIIAAAggggAACCCCAAALZIkCgli09TTsRQAABBBBAAAEEEEAAAQQQQAABBBBAAAEEEEAAAQSSEiBQS4qNixBAAAEEEEAAAQQQQAABBBBAAAEEEEAAAQQQQAABBLJFgEAtW3qadiKAAAIIIIAAAggggAACCCCAAAIIIIAAAggggAACCCQlQKCWFBsXIYAAAggggAACCCCAAAIIIIAAAggggAACCCCAAAIIZIsAgVq29DTtRAABBBBAAAEEEEAAAQQQQAABBBBAAAEEEEAAAQQQSEqAQC0pNi5CAAEEEEAAAQQQQAABBBBAAAEEEEAAAQQQQAABBBDIFgECtWzpadqJAAIIIIAAAggggAACCCCAAAIIIIAAAggggAACCCCQlACBWlJsXIQAAggggAACCCCAAAIIIIAAAggggAACCCCAAAIIIJAtAgRq2dLTtBMBBBBAAAEEEEAAAQQQQAABBBBAAAEEEEAAAQQQQCApAQK1pNi4CAEEEEAAAQQQQAABBBBAAAEEEEAAAQQQQAABBBBAIFsECNSypadpJwIIIIAAAggggAACCCCAAAIIIIAAAggggAACCCCAQFICBGpJsXERAggggAACCCCAAAIIIIAAAggggAACCCCAAAIIIIBAtggQqGVLT9NOBBBAAAEEEEAAAQQQQAABBBBAAAEEEEAAAQQQQACBpAQI1JJi4yIEEEAAAQQQQAABBBBAAAEEEEAAAQQQQAABBBBAAIFsESBQy5aepp0IIIAAAggggAACCCCAAAIIIIAAAggggAACCCCAAAJJCRCoJcXGRQgggAACCCCAAAIIIIAAAggggAACCCCAAAIIIIAAAtkiQKCWLT1NOxFAAAEEEEAAAQQQQAABBBBAAAEEEEAAAQQQQAABBJISIFBLio2LEEAAAQQQQAABBBBAAAEEEEAAAQQQQAABBBBAAAEEskWAQC1bepp2IoAAAggggAACCCCAAAIIIIAAAggggAACCCCAAAIIJCVAoJYUGxchgAACCCCAAAIIIIAAAggggAACCCCAAAIIIIAAAghki0BGB2oFBQVSVFQkeXl5kpubmy19SjsR6HGBYDAobW1t0tTUJC0tLT1+f26IAAIIIIAAAggggAACCCCAAAIIIIAAAggggEAqBTI2UNMwbeDAgam0o2wEEPARqK2tJVTzcWEXAggggAACCCCAAAIIIIAAAggggAACCCCAQN8VyNhArbS0VPLz8/tuz1BzBPqoQGtrq9TU1PTR2lNtBBBAAAEEEEAAAQQQQAABBBBAAAEEEEAAAQQ6C2RsoDZ48GCmeezc3+xBIOUCOv3jjh07Un4fboAAAggggAACCCCAAAIIIIAAAggggAACCCCAQE8JZGygVlZW1lOG3AcBBDwC27dv9+zhJQIIIIAAAggggAACCCCAAAIIIIAAAggggAACfVeAQK3v9h01RyBtBQjU0rZrqBgCCCCAAAIIIIAAAggggAACCCCAAAIIIIBAEgIEakmgcQkCCEQXIFCL7sNRBBBAAAEEEEAAAQQQQAABBBBAAAEEEEAAgb4lQKDWt/qL2iLQJwQI1PpEN1FJBBBAAAEEEEAAAQQQQAABBBBAAAEEEEAAgTgFCNTihOI0BBCIX4BALX4rzkQAAQQQQAABBBBAAAEEEEAAAQQQQAABBBBIfwECtfTvI2qIQJ8TIFDrc11GhRFAAAEEEEAAAQQQQAABBBBAAAEEEEAAAQSiCBCoRcHhEAIIJCdAoJacG1chgAACCCCAAAIIIIAAAggggAACCCCAAAIIpKcAgVp69gu1QqBPCxCo9enuo/IIIIAAAggggAACCCCAAAIIIIAAAggggAACHgECNQ8ILxFAoOsCBGpdN6QEBBBAAAEEEEAAAQQQQAABBBBAAAEEEEAAgfQRIFBLn76gJghkjACBWsZ0JQ1BAAEEEEAAAQQQQAABBBBAAAEEEEAAAQQQMAIEarwNEECg2wUI1LqdlAIRQAABBBBAAAEEEEAAAQQQQAABBBBAAAEEelGAQK0X8bk1ApkqQKCWqT1LuxBAAAEEEEAAAQQQQAABBBBAAAEEEEAAgewUIFDLzn6n1QikVIBALaW8FI4AAggggAACCCCAAAIIIIAAAggggAACCCDQwwIEaj0Mzu0QyAYBArVs6GXaiAACCCCAAAIIIIAAAggggAACCCCAAAIIZI8AgVr29DUtRaDHBAjUeoyaGyGAAAIIIIAAAggggAACCCCAAAIIIIAAAgj0gACBWg8gcwsEsk2AQC3bepz2IoAAAggggAACCCCAAAIIIIAAAggggAACmS1AoJbZ/UvrEOgVAQK1XmHnpggggAACCCCAAAIIIIAAAggggAACCCCAAAIpEiBQSxEsxSKQzQIEatnc+7QdAQQQQAABBBBAAAEEEEAAAQQQQAABBBDIPAECtczrU1qEQK8LEKj1ehdQAQQQQAABBBBAAAEEEEAAAQQQQAABBBBAAIFuFCBQ60ZMikIAgQ4BAjXeCQgggAACCCCAAAIIIIAAAggggAACCCCAAAKZJECglkm9SVsQSBMBArU06QiqgQACCCCAAAIIIIAAAggggAACCCCAAAIIINAtAgRq3cJIIQgg4BQgUHNq8BwBBBBAAAEEEEAAAQQQQAABBBBAAAEEEECgrwsQqPX1HqT+CKShAIFaGnYKVUIAAQQQQAABBBBAAAEEEEAAAQQQQAABBBBIWoBALWk6LkQAgUgCBGqRZNiPAAIIIIAAAggggAACCCCAAAIIIIAAAggg0BcFCNT6Yq9RZwTSXIBALc07iOohgAACCCCAAAIIIIAAAggggAACCCCAAAIIJCRAoJYQFycjgEA8AgRq8ShxDgIIIIAAAggggAACCCCAAAIIIIAAAggggEBfESBQ6ys9RT0R6EMCBGp9qLOoKgIIIIAAAggggAACCCCAAAIIIIAAAggggEBMAQK1mETpc8KuhW0y3PwMym+X0oJ26Z8nEmgTaQ6K1JjHqpZc85MjXzQXhCvd3i5ji1vDr+N8FmjPkc2B/IhnF+W0y8h+nctd35QvbZIT8TrXAVO3PU3dhhQEpdS0aZC5XWGuaVO7SJMpurotR6qac6Xc/OxoM42Nsg0taJN9+rfKUONSZMoImjIa1KQ1R1Y35BuXKNf7GFWa82vaTEFRtlGm/f2Mg719ZtreHqHtA/OCsntRqwwy9Rti1R0UAAA29UlEQVSc1y4DTFvbtJ2mjvVB007Tb/qz1fRdS7hIu+g+95gJgVq7eV8MGjQoYfu2tjapr6+XkpISyc8P/w61tLRIY2NjzPL69esn+mNvra2t0tDQIHl5edK/f397d9yPgUBA9Ec3vzLq6uokGDQfIlG20tLS0FG7fbqjsLBQioqKQscSfVJbWyvq7Nxyc3NF76dlq0NBQYHk5OSI3lct7Paoib5mQwABBBBAAAEEEEAAAQQQQAABBBBAAAEEekKAQK0nlLtwj6LcdjlnRECOHVooe2sKE8c27V2T0pgvoHXTwOf1I6KESRHK+6S+VS5YGjlQ+p+RTXLpniWdrr5uVYO8sT36F+waRJ09ok2OGdZPdtEELca2uLpZLl/Rue0aUs3apVm+OqqfjOgXvY2fN7bJv7YE5IVthdLU7r6nn9Hahla5aEmOtEQIyLTKf50clHEl4Xqd8p9WqQu6yz5laJOcvEueTBlcKPk7+yRac69Y1iiLasNhSrRz0/lYJgRqGj6deeaZCTNXV1fLa6+9Jvvtt59MnDgxdL0GQC+88IIVDoV2+jw58sgjZdSoUaEja9eulUWLFsmuu+4q06ZNC+2P98maNWtk6dKl1ul+Zaxbt04WLlwYsTgNtE4//fTQcbt9umP8+PEyefLk0LFEn8yePTsU9g0bNkzGjh0rI0eOtEK0WGWtWLFCPv7441incRwBBBBAAAEEEEAAAQQQQAABBBBAAAEEEOgWAQK1bmFMTSEluUG5Y7+gHFhamNANeiJQ+7sJk/Z0hEl2Bd/ZHpAfr3KMkLMP7HwcW9Qsdx1QaEaluYMnz2mul36Bmo7U++MBuTI8RpDmKsi82GSGhF26LOgaseYXqOl1T25ulN9/HjncihqomVE3V+4ZkK+N6hw6euvkfE2g5tTo3eddDdR0NNkpp5ziasScOXOksrLStc/5Qke0zZw50xpJZu9/8803RQNKvzDMPifaY6xATa+dP3++bN682beYngjURo8eLYcccojo6LR4NwK1eKU4DwEEEEAAAQQQQAABBBBAAAEEEEAAAQS6Q4BArTsUU1TG5Xs0ydd3cwcydW1BWVPXKrWtQTO1okj/3BwZmJ8rw0ywVGZCqjwzMC1WoNZg5hps80yz5m3COjNf4mXL/Ud97VvSLH+e7D8KrcWUe8b7rVIT9L/2gQPaZMJAd+C2zcxb+ZkZEVZv6qX1H5CXa7VpuJm7cZBpmzdQ0+kmHzxIZI8i9z3U5JP6Fqlp1XJyrGvH98+XYi3UsanfhUvNvhij+JToqo8b5f1q/1AtWqA2dXCT3L6fu+90KsdVtS1SbeoZMIWXmL7rb9o31IzSG2Z+Ck19CNQcHdXLT/0CNZ1iMNb0iDU1NTJ37lyr9scee6yUlZWFWuIMt0I7HU/22GMPOfTQQ0N7dErEV155xXrtF6g1NzeHzo30REegLVu2LGIZekCnUdRRdU1NTZ2KiRao6YiyAw44wPcanabR3nS6Rv3xbto29Zw1a5Zr5J5OA6mOOkWmmmvQpvXQKSCLi4ut5wRqXk1eI4AAAggggAACCCCAAAIIIIAAAggggEAqBQjUUqnbxbL/bMKnfR3h03tVAbnWjP6KtMZWjlnBq8ysR6brf9mb3+irn65slLeq/EMi+7poj1eOaXKNvNLpFMcUh+95x6cN8u9tnQO3/mbE3YuH5YvJkULbnz5vkIc3dz7XPkFXJRtgpnZ0rqF2xKCA/GZisX2KWYNJ5LdrG+SZbf0k6JmisdCEbxfsFpDzR7vDrW8sapJ1TR0j//yM7MIrzQJ15y9uM+u5hdtnH4sWqP2vCUP/yxGGlptyLlraJtsdfWOXYz+W5rZZ01E2m/Xr+vqWqVM+RhvJ5ddn48aNk4MOMunvzk0DIp32MdLmne5Rg7BVq1ZZp/sFas8995zEE6rZ9/Mrwz62detWmTdvnivY0mPRAjX7Wu/jiSeeaK2DZu9fuXKlLF++3H7pehwxYoQcddRRrn2xRvJp2Kkhm65Lx4YAAggggAACCCCAAAIIIIAAAggggAACCPSEAIFaTygneY9XD8txja76tQmqnvEJqqIV7xcWdSVQKzBZz9OHiDX6S++ro8t+szbgGo21rKZFLvUZ3TahuFkeOMgdnp23KCDrm9wj1qK1R499d3ST/Pfu4YBsdV2LfOujzoFXqByTuD1vLHW0m7391lg+tdPSz8g+Tx/nbW8yQWbnaTejBWq3T2iWqWXhtr5W0SS/WNO5DOd9Muk5gVpHb+qIqi9/+cuuqQwjhUXe6R51lNaLL75ojdLS0vzCsO4M1PQeutaajqJzbqkO1Pbee2+ZNGlS6JaxQsfQiTxBAAEEEEAAAQQQQAABBBBAAAEEEEAAAQR6UIBArQexE73VyyYE6u+YrvAP6xrkH1+EQ5p4yvMLi7oSqB09JCC/2jc8OuyxTQ1y34Yiec7MUqdTNdrbOQubZXMg335pPe5d3CIPHeQeGfftJU2ysiGxoOnmfZrlmKFhh7mVTfKz1dHL8I72e2Jzg9z1eUcZXiOdkrHATFdX4rC/7ZMGea48fE9tULRA7RYTqE13BGrzzdpyV0dZW84FlQEvCNTCnaijr3QUlr198sknsmTJEvtl6NE73eO2bdusEWP2CakI1Orq6mTAgAH2LaxpGXXNturq6tC+VAdq48ePl8mTJ4fupyPuZs+ebUaemqGnbAgggAACCCCAAAIIIIAAAggggAACCCCAQJoIEKilSUf4VeM+M+Xj/o4pH3X6wVs+Cciqhnypa+kIr6zpHx1rFXnL8YZFerwrgZo3KLp4aZN8XF8oP90rIF/eNRy0PbC+QR7a5A6gdO2zVw/Ps5cus6q6YEdA/ryhXdaaNjUHddJKkVbPtI3WiY7/pDpQW2/Wc3t4Y7P8fJ/wKLhGs77bhUuaZWMgPJouWqB26e5N8j+OaSY1G7jVjIpbVJMv5YGO0XStpk3tMdrqaHafekqgFu6u0aNHy2GHHRbaEWkE1tSpU2XkyJGh8z744ANZv3596HUqArW1a9eKTp84ZsyY0H00THvjjTdCa8WlOlDza5eOkvv8889FAz8N1uyfUCV5ggACCCCAAAIIIIAAAggggAACCCCAAAII9LAAgVoPgydyuyvMOlznOtbh8rtWA7WK5jbZYtYxe3Zrq7yx3b2OmF+gpiOwTDYXcas05X3bZwrFQXlt8vSh+dboLb34CzPd41kLzBMT6B0x2Kxrtl84UNvY1CZfX9R5LbAHD2yTfQaEQym/SjQE203oFJS19S3yxBaRj+rco896IlA7b0mueO+z0kwteclHudK2MwSLFqgdNbhJbtsvHMj5tdM006ypFrSmzXyrskWe2looDcHwKD+/a/rKvkwN1AKBgDWKK1I/6HENo5ybBlYzZ84UndLR3rzTPnqne2xtbbVGabW1tdmX+E75qOFctJFcmzdvdo2G84ZXGqh99NFHcsIJJ0j//v1D93KOokt1oKbTYp566qlWsBeqgM8TtW1qapKKigprWsr6+nqfs9iFAAIIIIAAAggggAACCCCAAAIIIIAAAgikRoBALTWu3VJqUU5QHjRLC+1REv4iPlbBi6ub5YoVeaGRT36BWqwyKkzadqYGZZ7ta7s2yZV7hUOif2xqlD+s75jCUe84+9AcGehYp+w7HzXJCk8YNt5M+3jfpELpl9s5bPPcLvTyrxsa5P6N4dFu3qCru6d81BFqGqiV5rbJ36bkydDCcMj1sKnLn3bWJVqgppW/fnxATtwlHDKGGhThyQ4TdH5zcZtUtkRZDy7Ctem2O1MDtVjOkUafHXLIIa5RYJ9++qksXrw4VJx3ukcdnfXhhx+GjusTbxjmOhjhhY5w05Fu9uYtQwO1RYsWydChQ2XGjBkmGw//Xs6bN0902slUB2pat7Fjx8rBBx9sVzPmYzAYlHfffVe2bt0a81xOQAABBBBAAAEEEEAAAQQQQAABBBBAAAEEukOAQK07FFNYxmAzKuy/RrXIV0YWu9b0inbLu81aa4/tXGutOwM17zpk3vXPrh0XkNOGhwOkf5l1yn63c50yZ333KmqW80eLHGvWQXMsU+Y8xfVcp0vUqSXttdZ6KlDTShwxyIy8mxhuk44qu2J5kyypLYy6hppeW2BCxlm7BuS83frJiH7xhWTvbG+SH69yj8jTsvraRqDm7rHhw4fL9OnTQzt1pNXzzz8feu1dZ+2tt96S8vLy0HF94g3DXAcjvIg3UNPLDzjgAJkwYUKoJK3ja6+9Zk39ePrpp4f265SQuj/aduKJJ0ppaWnolJUrV8ry5ctDr/2e6Dpz++67rxXu+R337tPw8uWXX446YtB7Da8RQAABBBBAAAEEEEAAAQQQQAABBBBAAIFkBQjUkpXr6etMqlRWGJThBW0yoMCkOmbTsGyCmaXt/NHFku8YWTJ/e0CuXtUxraJfoPbHzxpkQXV41JW3Ka3tObKm0T0t49iiFjNaq2M0mp6vIde7VU3mWXhEy4iiPBnnGE2nU0ue/kF7aIpE7310VNsupk3DCtukKK+jTf1z2+WYoblmZFd4RJpe9wcTEv5jZ0jYk4Ga3vuHYwPy1RHhUG2rmery/MXtcs+B4mrvKf9plboIUzYOyDV9V9gqQwrNqmmGTMccjurXLt8cXeQaAddg1mo76T9mPk5Hf2od+tqWqYHasmXLrFFbkfpDR05p4OS3nXbaaVJUFH5fz50715q+UEeA6TGdGlK3hoYGefHFFzsV4Reo6SiylpaWTufaO3SaRC3P3rxl2CPU9LiOTjvuuONk8ODB9umiU0YuWLBAZs2aFdqXqkDNvoE6FBcXWz/2iDmdFnL8+PFSVlZmn2Y96vSaVVVVrn28QAABBBBAAAEEEEAAAQQQQAABBBBAAAEEUiFAoJYK1R4u89YJLTKtLBx2bTGBz9kLO4Iuv0Dtpysb5a2q8PnxVPe7o5vkv3cPT/cYzzV6ztUrGmR+dThEiOe6AlP1pw8RGeSYPvL5bY1yy6cdde7pQE0NHzrITL1pAkN7e62iScaa8NAZIEYL1OzrvI/njmiSK8a6Xb+2oEW2Nofv5b2mL7zO1EBt/vz5VsiUTB9MmjRJ9t5779Cl9rSPY8aMEZ0S0t4ijebyhmF6/nPPPSfNzc32pTEfvWU4AzW9WEeVaahmh3u6T0NEHb1mb6kO1Oz7eB8HDRpkrfXm3K/TWeooPDYEEEAAAQQQQAABBBBAAAEEEEAAAQQQQCDVAgRqqRbugfLPM6HMZY5QptKsgXbGzjXQuiNQyzEjyf79pRwzkizyqLZIzXzdBE/Xr0l8CsPf7NsiRwwJh36vljfJDZ90lNPTgZq2bd+SZvnjpH6ukYAtZphegWMkWTKB2n6m3PsnuwPHry9slo2B+NfNi2Tfm/sJ1Drr68iv448/PnTAnvbRO92jTmNYV1cXOs9+4g3DdH93B2papo4Emzx5sj61Nh11l5sb/t3vrUBNK3PGGWdIfn74d2PhwoWybt26joryXwQQQAABBBBAAAEEEEAAAQQQQAABBBBAIIUCBGopxO2poi/ZvUm+MTo8ymlxdbNcvqLjS+fuCNQOLQ3I7/YPT3m42YyAu26l/zRz+w0IylXjwnUJmEXHZr7fJo3t4S/k43H54/5tckBpeNrJB9c3yIObOoKnH+8VMGuTheuzrqFVvrEkcvm5JhCcfWiOlDpGvP3m0wZ5eltHeV6j9aa883zK++ZuTXLxHuG2eduRTKB2mFmj7beONdo0pDvxvaC0OqbS9N6nL7wmUPPvJe/aYjri7fDDDw8FVpWVlTJnzhzfi3sqUGs370Fd703v57f1VqCmo+Z0LTdnuOe31pxfndmHAAIIIIAAAggggAACCCCAAAIIIIAAAgh0VYBArauCKbz+qMFNUmYypS3NObKxMU+2mWkAg46gRYOiwwY3y//bu59resRHNzbIPRv8wyKt7m0mTHq3KhxWRWpCZbMJqcwIrOvHN7vWNPvbhga5b6N7VJVdhk7X+KyZvW6gI7z65WqzJlRlx/lf3bVJTF5lRmDlyuZAnmzfeQ/7+qIcs+7ariYQ3LNEcjtmrbQO/ejjRnlvR8eIta+ZMq7cyx1s/WNTozyyKV92tLmnSizLa5WLx7S5Ajgt8Csftkh5S8e58QZqOlLv3v2DrqDPrrc+OgO1cUXNcvDgoOk3sdq5xYw4azZr0zk3PefavfNk3wHhvvi4tkUuXuZug/OavvI8UwM1HRG1ZcuWmN2go8/8tgkTJrimT9TznOuqRRtx5ReovfrqqzGnfNSATNdS081bhnfKR7vOWicN/woLO48u7e5ATUecjRs3zhqVV19fbz22tpoPCcem9dFpJ3V6THvTdj3zzDPS1tZm7+IRAQQQQAABBBBAAAEEEEAAAQQQQAABBBBImQCBWspou17w1WYk1hmOkVhmsJfUtgWltrVd8kw2M9iEVsX6xLHpOd9b1iiL6zrCJ29Y5Dg15tPTTejU2Jojzx2WJ0WOdOtbSwKyuiEcAnkLunZcQE4bHh5BtnBHs3zv444Rc49OaXetRdZqvhTX9tSYn2KT3w0x00o6p1HUsqtbg/L1habdbR2j0DR0e/zgXBnqMwXldjPdZZ0imJ9Sc1yNvNsHVQG5cmW4/l6jSCPUtJzd+rXKQ5MLpMTjrsecgdoJZQH5xYSwgR5vaGu32tJiHrWdztBRj+t2vxmJ99edI/E69vTN/2ZqoBZvb8yePTsUYjmvKSkpkVNOOcXk1O7fWz1Hg6Hnn39eWlr8R396wzBnudGe19bWyiuvvGKd4i0jUqCmJ+++++7W6Dlv2d0dqPXr109mzpzpuo0Garo2nJoUFBSInuM127Ztm8ybN891HS8QQAABBBBAAAEEEEAAAQQQQAABBBBAAIFUCRCopUq2G8r1BmqxitRw6qbVTfL69vDaY96wKFYZzuMaqB0xuEV+Oj48GmxTU5ucu6hzGOC8zjuNoeZbX1vQMSLMG6g5r/N7ruvBfX95i3zWFA7A9LwhBW3ys3FB1zprftd79/1zc6P8YX0/aTF1sjevUbRATa+ZtUuT/NhhYpcTK1Czz4v0qHW78zMzIsgnbIl0TbruJ1DzD9S0v2bMmCHDhg3r1HWbNm2S9957r9N+e4c3DLP3x3pMNlDTcg899FDZY489XLfoiUDNdUOfFxUVFfLOO++IdySbz6nsQgABBBBAAAEEEEAAAQQQQAABBBBAAAEEukWAQK1bGFNTyPmjmuQrI4vMtI+51oi0SHfR0OnNyoC8sDVHVje6p2jzhkWRyvDbr4HajXu3y0GDwmVGm+7RLiPPTI34rFmzbJBjdNg96xrk0S+K5NYJLXKgWRvNecy+zvm41swL+XpFs7ywrSA0NaPzuP38pKFNMm1ornzJ1DFSmRtNCPheVbPMqcyRxbXhtthleI1iBWp63W2mHUeVhYNL3ecM1HTduR+NK5Rd+uVKYZSATEetvWtGzL1e0S7zqtzlaZl9dSNQixyo7bXXXjJlypROXfvuu+9GnU6yNwI1nY5Rp37UkXX21t2Bmk4rqSFjcXGxNRrNvo/3MRgMigZpGjx+/vnnTPXoBeI1AggggAACCCCAAAIIIIAAAggggAACCKRUgEAtpbzdU7iu3VVWEJTSvDYpMstrFeeaNZGCYqZJzDXTJebKDvPT10Y15Zs2DStslQGmPf1yg1a76s30kjVmWsfqllypD3aeqjGqphmdN7QwKIOM0UAzmK3FDIurbs2TKlNWQ6JlRb1R4gdLc9vMFI+mjTlmWsu8dmk3AVuNmdVP21lt1nxrc6yLl3jp6XlFJgRq6Smb2bXKyzPTy5r10nSaR32em5trTf2o02DqOnCsl5bZ/U/rEEAAAQQQQAABBBBAAAEEEEAAAQQQSGcBArV07h3qhkAfFSBQ66MdR7URQAABBBBAAAEEEEAAAQQQQAABBBBAAAEEfAUI1HxZ2IkAAl0RIFDrih7XIoAAAggggAACCCCAAAIIIIAAAggggAACCKSbAIFauvUI9UEgAwQI1DKgE2kCAggggAACCCCAAAIIIIAAAggggAACCCCAQEiAQC1EwRMEEOguAQK17pKkHAQQQAABBBBAAAEEEEAAAQQQQAABBBBAAIF0ECBQS4deoA4IZJgAgVqGdSjNQQABBBBAAAEEEEAAAQQQQAABBBBAAAEEslyAQC3L3wA0H4FUCBCopUKVMhFAAAEEEEAAAQQQQAABBBBAAAEEEEAAAQR6S4BArbfkuS8CGSxAoJbBnUvTEEAAAQQQQAABBBBAAAEEEEAAAQQQQACBLBQgUMvCTqfJCKRagEAt1cKUjwACCCCAAAIIIIAAAggggAACCCCAAAIIINCTAgRqPanNvRDIEgECtSzpaJqJAAIIIIAAAggggAACCCCAAAIIIIAAAghkiQCBWpZ0NM1EoCcFCNR6Upt7IYAAAggggAACCCCAAAIIIIAAAggggAACCKRagEAt1cKUj0AWChCoZWGn02QEEEAAAQQQQAABBBBAAAEEEEAAAQQQQCCDBQjUMrhzaRoCvSVAoNZb8twXAQQQQAABBBBAAAEEEEAAAQQQQAABBBBAIBUCBGqpUKVMBLJcgEAty98ANB8BBBBAAAEEEEAAAQQQQAABBBBAAAEEEMgwAQK1DOtQmoNAOggQqKVDL1AHBBBAAAEEEEAAAQQQQAABBBBAAAEEEEAAge4SIFDrLknKQQCBkACBWoiCJwgggAACCCCAAAIIIIAAAggggAACCCCAAAIZIECglgGdSBMQSDcBArV06xHqgwACCCCAAAIIIIAAAggggAACCCCAAAIIINAVAQK1ruhxLQII+AoQqPmysBMBBBBAAAEEEEAAAQQQQAABBBBAAAEEEECgjwoQqPXRjqPaCKSzAIFaOvcOdUMAAQQQQAABBBBAAAEEEEAAAQQQQAABBBBIVIBALVExzkcAgZgCBGoxiTgBAQQQQAABBBBAAAEEEEAAAQQQQAABBBBAoA8JEKj1oc6iqgj0FQECtb7SU9QTAQQQQAABBBBAAAEEEEAAAQQQQAABBBBAIB4BArV4lDgHAQQSEiBQS4iLkxFAAAEEEEAAAQQQQAABBBBAAAEEEEAAAQTSXIBALc07iOoh0BcFCNT6Yq9RZwQQQAABBBBAAAEEEEAAAQQQQAABBBBAAIFIAgRqkWTYjwACSQsQqCVNx4UIIIAAAggggAACCCCAAAIIIIAAAggggAACaShAoJaGnUKVEOjrAgRqfb0HqT8CCCCAAAIIIIAAAggggAACCCCAAAIIIICAU4BAzanBcwQQ6BYBArVuYaQQBBBAAAEEEEAAAQQQQAABBBBAAAEEEEAAgTQRyNhAbfDgwZKbm5smzFQDgewRCAaDsmPHjuxpMC1FAAEEEEAAAQQQQAABBBBAAAEEEEAAAQQQyHiBjA3USktLJT8/P+M7kAYikG4Cra2tUlNTk27Voj4IIIAAAggggAACCCCAAAIIIIAAAggggAACCCQtkLGBWkFBgQwcODBpGC5EAIHkBGpra6WlpSW5i7kKAQQQQAABBBBAAAEEEEAAAQQQQAABBBBAAIE0FMjYQE2tNVQrKiqSvLw8pn9MwzcfVcocAZ3msa2tTZqamgjTMqdbaQkCCCCAAAIIIIAAAggggAACCCCAAAIIIIDAToGMDtToZQQQQAABBBBAAAEEEEAAAQQQQAABBBBAAAEEEEAAAQS6KkCg1lVBrkcAAQQQQAABBBBAAAEEEEAAAQQQQAABBBBAAAEEEMhoAQK1jO5eGocAAggggAACCCCAAAIIIIAAAggggAACCCCAAAIIINBVAQK1rgpyPQIIIIAAAggggAACCCCAAAIIIIAAAggggAACCCCAQEYLEKhldPfSOAQQQAABBBBAAAEEEEAAAQQQQAABBBBAAAEEEEAAga4KEKh1VZDrEUAAAQQQQAABBBBAAAEEEEAAAQQQQAABBBBAAAEEMlqAQC2ju5fGIYAAAggggAACCCCAAAIIIIAAAggggAACCCCAAAIIdFWAQK2rglyPAAIIIIAAAggggAACCCCAAAIIIIAAAggggAACCCCQ0QIEahndvTQOAQQQQAABBBBAAAEEEEAAAQQQQAABBBBAAAEEEECgqwIEal0V5HoEEEAAAQQQQAABBBBAAAEEEEAAAQQQQAABBBBAAIGMFiBQy+jupXEIIIAAAggggAACCCCAAAIIIIAAAggggAACCCCAAAJdFSBQ66og1yOAAAIIIIAAAggggAACCCCAAAIIIIAAAggggAACCGS0AIFaRncvjUMAAQQQQAABBBBAAAEEEEAAAQQQQAABBBBAAAEEEOiqAIFaVwW5HgEEEEAAAQQQQAABBBBAAAEEEEAAAQQQQAABBBBAIKMFCNQyuntpHAIIIIAAAggggAACCCCAAAIIIIAAAggggAACCCCAQFcFCNS6Ksj1CCCAAAIIIIAAAggggAACCCCAAAIIIIAAAggggAACGS1AoJbR3UvjEEAAAQQQQAABBBBAAAEEEEAAAQQQQAABBBBAAAEEuipAoNZVQa5HAAEEEEAAAQQQQAABBBBAAAEEEEAAAQQQQAABBBDIaAECtYzuXhqHAAIIIIAAAggggAACCCCAAAIIIIAAAggggAACCCDQVQECta4Kcj0CCCCAAAIIIIAAAggggAACCCCAAAIIIIAAAggggEBGCxCoZXT30jgEEEAAAQQQQAABBBBAAAEEEEAAAQQQQAABBBBAAIGuChCodVWQ6xFAAAEEEEAAAQQQQAABBBBAAAEEEEAAAQQQQAABBDJagEAto7uXxiGAAAIIIIAAAggggAACCCCAAAIIIIAAAggggAACCHRVgECtq4JcjwACCCCAAAIIIIAAAggggAACCCCAAAIIIIAAAgggkNECBGoZ3b00DgEEEEAAAQQQQAABBBBAAAEEEEAAAQQQQAABBBBAoKsCBGpdFeR6BBBAAAEEEEAAAQQQQAABBBBAAAEEEEAAAQQQQACBjBYgUMvo7k2ucTNnzpQHHnig08V33HGH3H777Z32swMBBBBAAAEEEEAAAQQQQAABBBBAAAEEEEAAAQQQyGQBArVM7t0k29ZXA7Xhw4fL0Ucf3anVq1evlqVLl3bazw4EEEAAAQQQQAABBBBAAAEEEEAAAQQQQAABBBBAIB4BArV4lLLsnL4aqB1zzDHy+OOPd+qt++67T6677rpO+9Nhh44EPO644zpVRet86623dtqfyI5IZfuV0dzcLI2NjdLQ0CDl5eWyatUqWb58uTzzzDOyY8cOv0vYhwACCCCAAAIIIIAAAggggAACCCCAAAIIIIBA1ggQqGVNV8ffUAK1+K26eubf/vY3OemkkzoV84c//EFuvPHGTvsT2RGp7ETKaGpqkrvvvlt+/etfJ3IZ5yKAAAIIIIAAAggggAACCCCAAAIIIIAAAgggkFECBGoZ1Z3d0xgCte5xjKeUSKFXugRqdht+9atfye9//3v7JY8IIIAAAggggAACCCCAAAIIIIAAAggggAACCGSVAIFaVnV3fI0lUIvPqTvO6iuBWmVlpUyaNElaW1u7o9mUgQACCCCAAAIIIIAAAggggAAC/5+9e4/5evz/AH4VSgcUscWifbO1u1EMHUYHhxyaU7EZMc0opxFCoVplmVa2GFOT9AfTFGkOIWpySo7ZohSSJRENpRR+v+v9+30+78/9ue67utW3+77rcW32vt6v97v353o/3re/nruuiwABAgQIECBQrwQEavXqc+2ewdbXQO2www4LPXr0SJCWLVsWFi9enNTrQqE2ArX33nsvvPHGG8XXb9CgQWjUqFFo1apV6NOnTzj00EOL10o7nTt3DitXriwt6RMgQIAAAQIECBAgQIAAAQIECBAgQIAAgb1CQKC2V3zmmr1kfQ3UavaWdePu2gjUtrWc5MEHHxwWLVoUmjdvngCdf/75YeHChUldgQABAgQIECBAgAABAgQIECBAgAABAgQI7OkCArU68oVPOeWU0KlTp2yWUJwh1LRp02zWUJw5tN9++4UtW7aEDRs2hI0bN4YffvghfP755+Hjjz8Oy5cv3+E36NKlS+jWrVuIM7nify1btgx//fVXWL9+fYizuJ5++unw3XffhZoEakcffXQ47rjjkjF88MEH4ZtvvgkdOnQIZ511VmjXrl2IYc2+++4bfvnll7BmzZowf/788NZbb2XvVnjASSedFE4//fTQpk2bbHzx3X/99dfs/rfffju8/vrrYfPmzYXbKx1rOkMtBkTRt7RFi7lz54b9998/nHzyySF+l9atW2djicsdfv/999lYYrC0YMGC0n/6r/p1LVCLL/HSSy+FE044IXmfiy66KPteyQUFAgQIECBAgAABAgQIECBAgAABAgQIECCwhwsI1OrIB37sscfCeeedV+PRxJBp5MiR4bPPPqv235555pnhrrvuChUVFdXeEy/EcG3ChAlh6dKlYcqUKcm98dq4ceMq1QcOHBjGjBlTqRZP7rzzzmzPrf79+yfXSgtLliwJAwYMCHGPrkcffTT07t279HLS/+qrr7L74xjLW69evcL06dPLy2HSpElhxIgRSf3LL78MBx54YKV6HM+QIUOysRx55JGVrpWfxNDwtttuC1988UX5pR0+r4uB2owZM0L37t2Td6hvgVoMQmN4u2nTpuRdqirEEDWGzDE01QgQIECAAAECBAgQIECAAAECBAgQIECAQKmAQK1Uoxb7/zZQi0OOM7guuOCCEMOg8hZniMUZR02aNCm/VO153F/rtNNOS67XJFCLM7jijLgdaXGJwfjf9ddfvyO3ZwFWz549k3t3RaC2YsWKbHbaEUcckTy/qkI0jyFgnL32b1pdDNTmzZuXzSwsf59+/fqFGODWhxbDtGuvvTYL1GJQu71QLYZp8f4YqMX7hWr14SsbIwECBAgQIECAAAECBAgQIECAAAECBHafgEBt91lv85fKA7Xff/89W97xjz/+yGaOxSUg45KGDRs2rPI5L774YrjqqquSa9Ut3xdvjM/+6aefwp9//pktfdiqVattBm81CdQKA1m7dm2I73LAAQdky1k2aNCgcKnS8e+//87e7ccffwy//fZbaNasWYhLX1b3vjHEWrx4caVn7IpArfDAOJ64tGY0atGiRbZcZeFa+fHGG28MzzzzTHl5h87rWqAWg6gYhjZu3DgZ//HHHx9Wr16d1OtiYdCgQdkyo3FscczbCtUKYdrhhx+evUoMVeOsRo0AAQIECBAgQIAAAQIECBAgQIAAAQIECBQEBGoFiVo+HnPMMdn+YjFQiiFU3DOtvMVQ7dZbbw033HBDEjTF++N+ZqUzcWIYFfcxKw9HYkgUlyqcOXNmpZ+IYVefPn2yZR1juFbeahKoxaUZL7300uz3C8+JIdlzzz2X7RVXqBWOq1atyu6PyzAWWpxVF4OquK9aebv55puzPd9K67sqUIt7ycUlMuOedYUWA8EYypxxxhmFUvH4yCOPhFGjRhXPa9KpjUAt7l33wgsvVBpmnJkVA6W4f14MMsvbk08+mf3tldfr6nl5SFZdqLaj99XV9zQuAgQIECBAgAABAgQIECBAgAABAgQIENg9AgK13eO8S3+luiX5OnfuHFauXFn8rXbt2oV33nmneF7oxFrfvn0Lp8nx7rvvDjfddFNSr0mg9tBDD4V77703eUbcn+z2229P6nGGXvzd8haXgYx7xJW3GGDFIKu07apArX379mH9+vWlj876cQnL2bNnJ/U5c+aEK6+8MqnvSKE2ArUdGVfhno0bN2bf8fHHHw///PNPoVwvjtsLy7Z3vV68pEESIECAAAECBAgQIECAAAECBAgQIECAwG4REKjtFuZd+yMPP/xwuPjii5OHxtlFcS+yQuvWrVuYNWtW4bR4fOqpp8Itt9xSPC/vxLAtzsYqbzUJ1IYOHRqmTp1a/ogwYMCAcP/99yf10aNHh/he5e2SSy4JDz74YHk5jB07NkycOLFSfVcEaj///HOoqKio9NzCSdxX7aOPPiqcFo8LFiyo8nsUb9hGp64HavHdYpj28ssv17tALbJXF5rFa3HPtMIyj9XNYIv3aQQIECBAgAABAgQIECBAgAABAgQIECBAQKBWD/8Gxo0bV+WMqAsvvDC8++67xTeqLlCbNm1auOOOO4r3lXdiMDdlypTycqhJoBZnosWwqLxdccUVYfz48eXlMHz48DB58uSkHoPDqoK2/1agFvdN69ixYzKOWIh72H322WfJtT05UCu8bAxqr7766rBmzZpCqd4cqwrV4uCFafXmExooAQIECBAgQIAAAQIECBAgQIAAAQIEal1AoFbrnyAfQJyNdfbZZ4e2bduGuKdVo0aN8oslvbgXWQwJyptArVeYPn16OUuYNGlSGDFiRFKP+7UdeOCBlep7Q6C2dOnSsHjx4krvHffPO+igg0JcJvQ///lPpWuFk48//jjbY23r1q2FUr05lodqhYGbmVaQcCRAgAABAgQIECBAgAABAgQIECBAgACBbQkI1LalsxuvxSUPBw0atFO/GJdqLN0zzQy1/+MUqFX+s4oz/uLfW3XtqquuCvfdd1+Vl/v16xfefvvtKq/V9WJ5qCZMq+tfzPgIECBAgAABAgQIECBAgAABAgQIECBQdwQEanXgWwwePDgMGzZsp0ciUDNDrfSPaGf2Z1u2bFk2Y630ebF/5513hieeeKK8XG/OC6FaHHDcJ3DTpk31ZuwGSoAAAQIECBAgQIAAAQIECBAgQIAAAQK1JyBQqz374i+///774aijjiqeFzpxZlXcs2vdunXh77//LpSzvax69+5dPC90BGoCtcLfQjzuTKA2f/78UFFRUfq4rD906NAwderUpF6fCoXlUoVp9emrGSsBAgQIECBAgAABAgQIECBAgAABAgRqV0CgVrv+2SygOBuovL344oshLr1XVRs3bly48sork0v2UBOolf5R7EygNm/evNChQ4fSx2X9PSFQS15KgQABAgQIECBAgAABAgQIECBAgAABAgQIbEdAoLYdoP/25bZt24aFCxcmPxOXoxs5cmRSj4UdDdS6du0ann/++eQZ06ZNC3fccUdSLxTOPffcMGXKlMJp8ThhwoTst4uF/+0MHDgwjBkzprSU9YcMGZLNkCq/cMUVV4Tx48eXl8Pw4cPD5MmTk/rFF18c4p5f5W3s2LFh4sSJlcq9egnUSkF2JlCrbtakQK1UWJ8AAQIECBAgQIAAAQIECBAgQIAAAQIE9hYBgVotf+n27duHN998MxnFI488EkaNGpXUY2FHA7Vjjz02zJ07N3nG7NmzwzXXXJPUC4X+/fuHBx54oHBaPArUDsuW4CyC/H9nwYIFIQZ//6btTOi1vd/7t8/u3r17mDFjRpWPHzRoUJg1a1aV1xQJECBAgAABAgQIECBAgAABAgQIECBAgMCeKiBQq+Uv27p16/DJJ58ko3j22WfDddddl9RjIe5h1adPn+Ra+ZKPcV+2ONOovK1YsSL06NEjbN26tfxSdh7DtBiqlTeB2u4L1N56663wyiuvlH+CbZ7PmTMnfPvtt8V7qgvUqnp23FesRYsWoWPHjqFbt25h3333LT6ntHP88ceH1atXl5b0CRAgQIAAAQIECBAgQIAAAQIECBAgQIDAHi8gUKvlTxyDjK+//jo0bNiw0kj++uuvEAOsDz/8MGzevDnss88+oVmzZiHOOrvllluqDDz69u0b3nnnneJz4rPj/myNGzcu1gqduMxkDFzWrl0btmzZEho1ahRatWoVzjnnnBCXfKyqCdR2X6BWlf/2apdffnl47bXXirdVF6gVb6hhZ9WqVeHEE0+s4b9yOwECBAgQIECAAAECBAgQIECAAAECBAgQqP8CArU68A1fffXV0KlTp50eSXmgFh84c+bMcMopp9To2XHmWlUzlARqe2+gtn79+nDZZZdlAW+N/pjcTIAAAQIECBAgQIAAAQIECBAgQIAAAQIE9gABgVod+Ihx+cVp06aFpk2bbnc0GzduDHF22amnnprcW1Wg1rVr1xCXj4wz3Hak/fPPP2HkyJFh9OjRye0Ctb0zUPv000/D4MGDw5IlS5K/CQUCBAgQIECAAAECBAgQIECAAAECBAgQILA3CAjU6shX7tKlSxaqtWzZstoRxb2rBgwYkO1/ds899yT3le+hVrihZ8+eYdiwYeG4444LDRo0KJST48qVK0PcPy0uG7lo0aLkukBtzw3U4rKicRbazz//nB3XrVsXCnut2TMt+V9BgQABAgQIECBAgAABAgQIECBAgAABAgT2MgGBWh364DHsqqioCG3atAnNmzfP9jWLM9I2bNgQvvnmm7B8+fKdGm3cgy0+/5BDDglNmjTJ/ot7tRWeH2cgxRlqGgECBAgQIECAAAECBAgQIECAAAECBAgQIECAQC4gUMst9AgQIECAAAECBAgQIECAAAECBAgQIECAAAECBAgkAgK1hESBAAECBAgQIECAAAECBAgQIECAAAECBAgQIECAQC4gUMst9AgQIECAAAECBAgQIECAAAECBAgQIECAAAECBAgkAgK1hESBAAECBAgQIECAAAECBAgQIECAAAECBAgQIECAQC4gUMst9AgQIECAAAECBAgQIECAAAECBAgQIECAAAECBAgkAgK1hESBAAECBAgQIECAAAECBAgQIECAAAECBAgQIECAQC4gUMst9AgQIECAAAECBAgQIECAAAECBAgQIECAAAECBAgkAgK1hESBAAECBAgQIECAAAECBAgQIECAAAECBAgQIECAQC4gUMst9AgQIECAAAECBAgQIECAAAECBAgQIECAAAECBAgkAgK1hESBAAECBAgQIECAAAECBAgQIECAAAECBAgQIECAQC4gUMst9AgQIECAAAECBAgQIECAAAECBAgQIECAAAECBAgkAgK1hESBAAECBAgQIECAAAECBAgQIECAAAECBAgQIECAQC4gUMst9AgQIECAAAECBAgQIECAAAECBAgQIECAAAECBAgkAgK1hESBAAECBAgQIECAAAECBAgQIECAAAECBAgQIECAQC4gUMst9AgQIECAAAECBAgQIECAAAECBAgQIECAAAECBAgkAgK1hESBAAECBAgQIECAAAECBAgQIECAAAECBAgQIECAQC4gUMst9AgQIECAAAECBAgQIECAAAECBAgQIECAAAECBAgkAgK1hESBAAECBAgQIECAAAECBAgQIECAAAECBAgQIECAQC4gUMst9AgQIECAAAECBAgQIECAAAECBAgQIECAAAECBAgkAgK1hESBAAECBAgQIECAAAECBAgQIECAAAECBAgQIECAQC4gUMst9AgQIECAAAECBAgQIECAAAECBAgQIECAAAECBAgkAgK1hESBAAECBAgQIECAAAECBAgQIECAAAECBAgQIECAQC4gUMst9AgQIECAAAECBAgQIECAAAECBAgQIECAAAECBAgkAgK1hESBAAECBAgQIECAAAECBAgQIECAAAECBAgQIECAQC4gUMst9AgQIECAAAECBAgQIECAAAECBAgQIECAAAECBAgkAgK1hESBAAECBAgQIECAAAECBAgQIECAAAECBAgQIECAQC4gUMst9AgQIECAAAECBAgQIECAAAECBAgQIECAAAECBAgkAgK1hESBAAECBAgQIECAAAECBAgQIECAAAECBAgQIECAQC4gUMst9AgQIECAAAECBAgQIECAAAECBAgQIECAAAECBAgkAgK1hESBAAECBAgQIECAAAECBAgQIECAAAECBAgQIECAQC4gUMst9AgQIECAAAECBAgQIECAAAECBAgQIECAAAECBAgkAgK1hESBAAECBAgQIECAAAECBAgQIECAAAECBAgQIECAQC4gUMst9AgQIECAAAECBAgQIECAAAECBAgQIECAAAECBAgkAgK1hESBAAECBAgQIECAAAECBAgQIECAAAECBAgQIECAQC4gUMst9AgQIECAAAECBAgQIECAAAECBAgQIECAAAECBAgkAgK1hESBAAECBAgQIECAAAECBAgQIECAAAECBAgQIECAQC4gUMst9AgQIECAAAECBAgQIECAAAECBAgQIECAAAECBAgkAgK1hESBAAECBAgQIECAAAECBAgQIECAAAECBAgQIECAQC4gUMst9AgQIECAAAECBAgQIECAAAECBAgQIECAAAECBAgkAgK1hESBAAECBAgQIECAAAECBAgQIECAAAECBAgQIECAQC4gUMst9AgQIECAAAECBAgQIECAAAECBAgQIECAAAECBAgkAgK1hESBAAECBAgQIECAAAECBAgQIECAAAECBAgQIECAQC4gUMst9AgQIECAAAECBAgQIECAAAECBAgQIECAAAECBAgkAgK1hESBAAECBAgQIECAAAECBAgQIECAAAECBAgQIECAQC4gUMst9AgQIECAAAECBAgQIECAAAECBAgQIECAAAECBAgkAgK1hESBAAECBAgQIECAAAECBAgQIECAAAECBAgQIECAQC4gUMst9AgQIECAAAECBAgQIECAAAECBAgQIECAAAECBAgkAgK1hESBAAECBAgQIECAAAECBAgQIECAAAECBAgQIECAQC4gUMst9AgQIECAAAECBAgQIECAAAECBAgQIECAAAECBAgkAgK1hESBAAECBAgQIECAAAECBAgQIECAAAECBAgQIECAQC4gUMst9AgQIECAAAECBAgQIECAAAECBAgQIECAAAECBAgkAv8DAAD///hIRJcAAEAASURBVOzdB5wUVbrG4W8YGLIkE1HMYsCsGDCsoGLOuuacXXVNu+awRgyY06oY15yvAQOooChJUcEEooBIzmEYwu334CmqezpVT08zPfzPvdjd1dUVnqqu2V+9/Z1Tsvrqqy81GgIIIIAAAggggAACCCCAAAIIIIAAAggggAACCCCAAAIIJBUoIVBL6sJEBBBAAAEEEEAAAQQQQAABBBBAAAEEEEAAAQQQQAABBJwAgRonAgIIIIAAAggggAACCCCAAAIIIIAAAggggAACCCCAAAJpBAjU0uDwFgIIIIAAAggggAACCCCAAAIIIIAAAggggAACCCCAAAIEapwDCCCAAAIIIIAAAggggAACCCCAAAIIIIAAAggggAACCKQRIFBLg8NbCCCAAAIIIIAAAggggAACCCCAAAIIIIAAAggggAACCBCocQ4ggAACCCCAAAIIIIAAAggggAACCCCAAAIIIIAAAgggkEaAQC0NDm8hgAACCCCAAAIIIIAAAggggAACCCCAAAIIIIAAAgggQKCW4RzYZJNN7MQTT3Rz3X333TZu3LgMn+BtBBBAYOUQOOCAA6xr1662cOFCu+KKK1aOnWYvEUAAAQQQQAABBBBAAAEEEEAAAQQQQGClFKi1gVqTJk2sXbt2OR3UOXPmBMFZjx49rHfv3m45e+65p33zzTc5LbOmfKisrMzWWWcdtzl//PGHzZo1K+2m1atXzzbbbDPbdNNNTaalpaU2f/58mzZtmg0fPtx++eWXtJ/P5s211lrLGjZsaIsXL7aff/45m4/UmHkaNWpkq622mq2++uruUc81berUqTZ58mT76quvbO7cuWm3t2nTprbVVlvZeuutZw0aNHDzzps3zyZMmGDDhg2ziRMnpvx8nTp1rFWrVsG6tR2rrrqqO0ZTpkyx0aNH24gRI1J+PtUbbdq0sVVWWcUFJVpGdbUNNtjANt98c7cPOtcUzMyePdtt83fffWeLFi1Ku+o11ljDtttuO2vZsqU7P5csWeK8R44c6b6rWl4+m0xko7ZgwQIbM2aMe57sPyUlJbb11lvbmmuu6favcePGNn36dPfd+emnn+zXX39N9rGCTNN5IrNc2qRJk9w+6LM33HCDnX766abzde21185lcTXqM9leHzfaaKNI2y2f33//PdJn/Mx+XfpejB8/3k8uisdmzZrFXRt1fdT3Qtcm/f0ZNGiQ6Tubrun7o+9R27ZtrX79+u6aIM9Ro0bZ119/bfp7narpmqJ1+n8675s3b24zZ85026C/YbrORm26VtetW9dmzJhhf/75Z9SPZzV/Pv72Fvr6qGMlXzX9bwRdK1I1/c3fdttt3bVRf8Pkqb+b+qf/naVHGgIIIIAAAggggAACCCCAAAIIIFDTBGptoLbvvvva448/npP3hx9+aMccc4z7bG0K1DbeeGN74IEHrFOnTm7fzj33XHvppZdSGh1++OF21VVXmW7KpWpDhw51lSl6zLW988477oapbk5uuOGGuS6m4J+76aab7JRTTkm7Xt34feaZZ5xj4owKJ//973/baaedFgRpifMsXbrU3njjDbv66qsrBWu6CanQSaFauvb999/bRRdd5MK5dPPpPW2T5r3gggvc899++80FVpk+F/V9BYi33nqrde7cOeVHdcNdxsnOUQVb//3vf22XXXZxN+iTLUThg3zff//9ZG9HnqYgQMdi++23d59VULn77rsnXc5BBx1kV155pbVv3z7p+5r4xRdf2D//+U8XeqacqZreyObcTbXq6667zl1H9H5tCtSyvT7q+xY1hPn888/t4IMPTkWacroCJB/E6Tp50kknpZy3pr3Rr1+/4G9Nqm1TGHXzzTfb888/X2kWhV86T/fff/9K7/kJur4++uijdtttt1UK37P53wAK8/r27WvnnHOOC7v9clM9KoS+4447bJ999nGz/O9//3PXylTz5zq9qn97V8T1Ucfr008/tRYtWrjd1vU5VdWqputc1o9JkjX9EOLNN990f4v0wwUaAggggAACCCCAAAIIIIAAAgggUFMEam2gppveCgYSm6qH9KtoNd1wT1ZhpXDolltucfPUhkBNQYDCs0svvdRUgeFbukBNFQH/93//58KKwYMH22OPPeYCHVW0qQKqQ4cOdskll7hf/qsSS92+qfoml1asgdqNN95of/vb31ylhIInBYLy0U3w1q1b29577x1UM+nGsLoMDTfdxFVQpvbCCy+44Ee/6K+oqHAhpiq3/vGPf5gqFXSjUjdZw03H4bPPPnOBjKqddHNalRe6GakbqgqtFPjo+Gu5OkbaxlRNVRcKXLVe36ojUNNNVAUMugGr6ruePXva2LFjXUWCtltVDmeccYbbDgWKCqcGDhzoN8lVMujc3GKLLVwVhII57b8qIvR52Z9//vmm6jfdcNd+56Or1vDx0sakCtTWX399d5Nex01+2j5VXqqyU9UbujYpbNNxSbWMYGer6cnJJ5/szs/Exav6Ttuvpm3TdzuxPf300/bWW2+5ybUhUIt6fdT8999/fyJL0tddunRxlVWffPKJHXHEEUnnSTexmAO1Pn36uO+qKlz1/dO1SdW6qnRed911TX9bVbWpymSFjV9++WUcxXPPPWd77LGHu5716tXLvv32W3cd0/dKP/JQqHXooYe6z+g7duedd8Z9XkHc9ddf766P2gZVPPmKbP0YYbfddnOV1/pQNsene/fudtddd7m/eX5F1RGoVfVvryq9VsT18dlnn7Vu3bp5GveDh2SB2tFHH+0cNaP+rj388MOuWlHhpv6m6Xty5JFHuuWkC+WCFfEEAQQQQAABBBBAAAEEEEAAAQQQKKBArQ3UUhnqJrtCCDWFRJdffnmqWd30Yg/U1J3ifffdF1QZ6Uabfrmvli5Q8zfH1K2WqoCSdb2nLt580KEb61pPLq1YA7VM+6qbg/JRgKSuyfbaa6/gI7opL1vdUFZ1hgKgZO3YY491FRF6T+di1EpABTfnnXeeW7SqLlV9maydeuqpLuRRN1wK5nQDfJtttnGBkLpUzGc7++yz7ZprrnGL1M3jZGGXbpoPGDDAdP5+/PHH9ve//z3YBHU/+tFHH7nXuvmqm+GJTTft1a2iKu4UjutGeFWaqjpV6ablqaJFN9dThWEnnHCCq5jR+uTqw6fw+h988EE75JBD3CTtT7LgKjx/oZ6fGBsvUuGEmkI3XS/StWIP1HK9PqYz8e/pxxvqslUhqioRdU2N2oo5UMu0rwr7fWWagnxVPvqmsNxXlur69eKLL/q34h71OYVqCs7VlbEC+GybrsH6buoHNvqcQr5k3fPqOCqYO+6449yihwwZ4n4ooeC+OgK1qv7tXRHXR/93Stdy/bBG3USnCsMUoOlHEuXl5abAWZXI4aZrv6p3Vd2rHyLsvPPO4bd5jgACCCCAAAIIIIAAAggggAACCKxQAQK1WhyoKYBRJYVCG1XjXXzxxaabgQoa1NIFagpuNGbNK6+8YgpAUjV1OajxadQtn5aXS6utgZos3n77bXfDVjd8w2NM6Ua+xldTUyWluoVM1lQt1L9/f/eWumHUDdwobddddw1uRoe76vPLUMWibuAqNFXTc4Vdl112meuKsjoq1BS8qtpOwV24Gs5vk3985JFH7MADD3TnrqrtfFO4pooVNXURmqrqTsG5AvRM57BfbqpHVXzo5r5uVKu7N1VSqDozVaCm46SuJtV0/HxVTHj5Rx11VFCxqAo6/50Mz7Minq9MgVpVro/ZHBsFkurOUAGDAqJcuq6rzYGaghMfpn/wwQemUMa38HdcoUuq8QbD4bWCf12vojR9T/V9VUs2RqpCOoV+ul6rwlThvAIhhfzqIrQ6ArWq/u0N2xXi+igb/chAwaN+4CDPnXbaKWWgpnBUf5fUFbEqvJO1e++91y1LY+1tsskmyWZhGgIIIIAAAggggAACCCCAAAIIILBCBAjUIgZqqjpShZdutKnySDfzNZ7Oa6+9FlTNhI/kRhttZLp5rqYbccnG3tEyfRilm//q2iofTTf/dIP8qaeecr/+16/vmzVrFty8TxWoKWRRF3xq6kbLV6wk2yYfGCkcSjfWTbLP+mnpAjV1m6gbqurGUN0mJmuqpNpvv/3cWwo8Zs+eHcwW/rzG2dHNRoVHqi5o0KCBqwzSTdjevXvbDz/8EHwuX09efvll1+Wgtj88nlY46DrssMOCqsnE9SrMURiqpior3xVp4nypXqt7QY1Fo6YuKu+55564WdX1mYIhjdOkwNVXe/3nP/+ptkDNnzPq4u2AAw6I257wC3+zW9Uj7dq1C6ok1XWpQkh1janpqZq3V6WbrwbTvOra0t+81zLkkq757VB4rCpD3TAmUFsmFq5QU3gY9fsV/n7m8v1Od9wyvZfr9THTcvW+qp9UZaMQXT9qUIVTLi1ToHbWWWe57g8VyKqLxGRN4bVCCXWJmvj9D/uviOuj/h5qTLp+/foF3fxpH1Q57qt2da1WiJ2sha+j2k91IRilqXJQPx5Q0991dW8cbvqbpkordVF74YUX2pgxY9zbCpCqI1DLx9/eQl4fdZ77cSWfeOIJ+9e//mWvvvoqgVr4JOI5AggggAACCCCAAAIIIIAAAgjUKgECtQiBmoKJdAGAAjM/JpY/S7LpMlI3+HXTX03jNCkIyEc788wzXTjnl61lZhOoqds/f+Pw9ttvd2NcpdoedZmlygBVvmlMm1xaukAtfMM+XOEVXk+4SkGVIOHQMvx53eDWmDxq6sJSYZVvCm1OOukke/fdd/2kvDz6UCcxUNN2+BvgCnvCxyi8YnUx6LvE0q/2FXRFaZkCtZYtW7ogTctVFZ1v1Rmovffee7blllu6wEFdf6Vqujmrm9hqGrNPXYSp6Qa4boRnG6jpZrjGaPItbJ9YOejn8Y/qklLnuMZ5Upim8FHBY7pATUH1VVdd5RaRTYXaDjvs4MZ58uvM5lEhhAx33HFHVwGlc1tdiFa1VaVCLfz9StyOVN+v8Pczl+934nqivM71+pjNOvx1X0GQro/+BwrZfDY8T6ZATZVSCssSK7zCy/Bd7OmarutBuIX9w8evUNfHVIGa/o7qb6GaxktL1fTjCFVHq+mHKwq6orRMgZq6pdS158knn4xbbHUFavn421vI66Pvvlfnlqx0Pc0UqKmqT5Vp2VSoaYzNzp07x9nzAgEEEEAAAQQQQAABBBBAAAEEEFiRAgRqEQI1dTulG+W6EaSuiNRllbpUUrdeCnJ081Rd04UDHX9jVQc5WZdSml5dgZqWndhW1kBNDqq+UlCkirSZM2e6LqpU/Xb33Xfb6quv7gIJBRT5bIMGDXI3ZFU1p+PsWzjUqc5A7cgjjwyqUnSTWjfXs2k1OVDzFRi66a9uSVM1H2bmGqjp5rYCC1Wj6jvuu5nMFKgp4NDn1E455RTX7WfiNvqxnxS0qMIySlPFjipiwwGULHQeq8qoKi3XQE3r1PdLTurGT9VQutYowFEorypcBX6J369woBPen/A+pAvMw/Pl43k218ds1qOqHV1bFB5r+3NthQrUtH2Fvj6qYtdXhCU6FSpQU8WerpFquiarCjWbVpMDtUJdH1V936dPH/e/g/TDCFUcq2UK1E4//XTT914/kFDYrK5/w00/dNHYozo/1D2kHwM0PA/PEUAAAQQQQAABBBBAAAEEEEAAgRUlQKAWIVBLVT2m8UJ0E0lNY4j4bvP0mkBNCulbISrUtAWqNvJj9oS3yAckCkQ7duwYVEKF58nlefjY6wahxgPzrRCBmsa0eeGFF9xNS6330EMPDcZj89uR6rEmB2qqJPRdXyqMSlX9kypQ05g/vtJUQdSDDz6YlEHhkMbB0phG6g7Odzvnz5dUY6hpYRqvTuGUwnV11akQV2NoqZtYVZapG0lVXyigVwVctq1FixYupNF5mqyp4kbj4OXaqhKoJVaH+m1QNZ/Mkn2/amOgpnEBFTSo5dINoXfTYyEDtUJfH9UN5hlnnOF2V131hsPgQgRqug5obER9p1TtquBclcTZtJocqBXi+hgeV1LXz2uvvTZgyxSoyVtBZvfu3V0Xnar+mzRpkqsCVsW0utlUteHXX3/tutcdOXJksGyeIIAAAggggAACCCCAAAIIIIAAAitagEAtQqCmLt90kyexqVu3/v37u8mJoVs4VKFCLVFu2etCBGrpuvYLV8DoZnjiL+aTb3XqqauttpqpKyx1Kaeu+RTaHHfccUHVkj5Z3YGaut9SWKFzU03np25S6sZxNq0mB2qq/FEFkNpHH33kxvhTqKbAKtwULKkiKrFCLTxPqud+bCYts1u3bvbzzz8Hs2YTqGlmnVcaf1DjDCW2yZMnu3Ni2LBhiW+lfa1jqEq0VK2qXaTlGqjl+v2qjYGaAgZVnWpcs65du6Y6VFlNL1Sgluvxy2onEmbq1KmTXXHFFS5Q0Vu63iqwDv/YoToDNZnqe3TllVfaKqus4rYu6viUNTlQK8T10XfHq+ui/pb57niFmSlQ0zz6sYd+sKDjkKypclHBoII2GgIIIIAAAggggAACCCCAAAIIIFCTBAjUIgRquQRiBGqZT/eaFKilqrLJvBdm6gJLIZpupuumrdqPP/7oqpDCVYuaXh2Bmtapihh1qaWuSNUUoD311FN244032ty5c920bP5TkwM1bb+qGvbee+9sdiVyoKab7Dpebdq0cZUXiRVsmQK1bbfd1lWlKczUDWeFfwoNFKzqGK277rp29NFHW5MmTVwgqBB++vTpWe2L7yoy3cybbrqpKbDLpVV3oJb4/aptgZq641QYoAoehQ5PPPFELoch+IzOl99//9291nVSIUO45XMMteruclMh/1lnnWUKq31TIK5wTd0ph1t1BGr6oYPOb/1TF6Rq6pr0zjvvtEcffTS8+ozPa3Kgpo2vzuujH1dS69lvv/1cBa+e+5YpUNOPSy6P/e8uVaPpOqt/M2bMMI2z2LhxY9d9tqqpVS3Yu3fvSuPS+vXwiAACCCCAAAIIIIAAAggggAACCKwIAQI1ArVK553GjhozZoybrvGPevbsWWkeP0Hd1WkclCFDhtg+++zjJ0d6LPZATQGGbhAqJPNNQcq9995rL730UtBVoH9Pj/kM1MrKylyIpjBPN43VdDPylVdeCbobdBMj/KemB2raFY3PpYBG49/JQCFGuCnMVsARtULt/vvvt8MOO8yNCaRuOnWjN9wyBWqqOlMYp24eVaEUrt7wy1G3jxo3Sk2Bp7pFzKbpu3j88cennFXrUpg6f/78lPOke0Nhg6rq1NTd5f/93/+lm91VQSrAzbbCqbYHaurC89xzzzWNmahq1yghdjLo2hCoKXTRd0aVab4pRFFV2BdffOEnxT3mM1DTNVHfL42V1qBBA7ceBWmPPfaYPfTQQzZnzpy4dWfzoqYHatqH6rg+hseVVKXsTTfdVIkrXaCmbjUHDBjgKrc1nwLWZE0/MtA5oKa/axozkoYAAggggAACCCCAAAIIIIAAAgjUBAECNQK1SuchgdqESibJJqgrP42Fdd5557kbhJrnq6++MgUyPixJ9jlNy1egpvBEv+LXjUo13chXQPPwww+7MbrcxBz+UwyBWqbdSjWGWrrPKRRWVZECot12282FYonzpwvUWrVqZRpbTU3r143hVE1VOer67JtvvjFVv2bTNL7Qf//735SzqmtPVXfk2gjUmrmuGuWnYEyBeLZNx1JdAjdr1swdI1VeVbUVc6CmSk9Vd6rLVLXFixfbm2++6a6P3377bVqafAVqCvN69erlxi7UChVyK0T73//+l3PorOUUQ6Cm7UzXcrk++r8LusbpmpWsC+F0gVr4+pVuvMfwOISqytWYlDQEEEAAAQQQQAABBBBAAAEEEECgJggQqBGoVToPCdSyC9RU9aBwRU0VabpBqEAtm5aPQK1Fixau+kpdZy1ZssTuu+8+N75WLhUXidvsb5zqBrQqEPPZFDaqQkvVKQcddFDKRftxejRDhw4dklZ6pfxw7I1cbhhfc801bvw7VfjNnDkz6eLVLZnCE3XhqK4ahw8f7rpw1MyqlvNhgW7aX3DBBUmXoYkaY0vhy3fffRdX3ZjyA7E3VGHz4osvuuqTxPlUlaauJFWRl2sjUMs9UDvllFNcxY4qGjV23+jRo3M9DMHnijlQ88GKdub99993Y5b57iuDHUzxJB+B2k477eSqdPXDh1mzZrmuJXVN0LWyqm1lDdR0HFVlqspL/eggWWvevLnVq1fPva/5VAmoakS1gw8+2AWaep4usN54441daKn59OMQX62m1zQEEEAAAQQQQAABBBBAAAEEEEBgRQoQqBGoVTr/wjdx77jjDrvtttsqzeMnvP3226YxoxQk6dfnubRi7PJRNwwVoil8/P77791YMqluMCYzUfXTCy+84N5SRZEqi5I1dWM4fvx495YqLW6++eZgNgV4l112mXt99tlnu5vHwZtVfFKdgZq6Edxmm21s4MCBpi4VUzVV//lAqm3bti7ASjVvsumfffaZbbDBBqZxpv7+978nm6XSNB+oVXojzYRwd6fVHahpMxTmqUpNY1LVqVPHbdnEiRNdNZz2uSqNQC23QE2hzZdffmlrrbWWCwKOOuqoqhyG4LPha3ExjaGm7gZVjab29NNPBz88CHYswxNV9/3jH/9wc6255pqVul31H9d4bAqY1Y444gg3Hpd/zwfq6gZVXa/qxwH5atUVqIWPd3X/7c3l+ugDtSiO6vpYf0/UCNSiyDEvAggggAACCCCAAAIIIIAAAgjURAECtWoO1P72t7+57qV08BU4Jatg2mijjYIbgeoiTjcCw03hjZoqH1QVU5WmihhVxqil+4W4ui7T+FOvv/66nXHGGSlXqeoajVGjcMjfAE05c4o3FCatv/769scff7jKpfBsfkwidS3Vrl278FvBc4315IOmQo3RFP4FvbqjUrdUUVrHjh3dDXh95tJLL7Unn3wy6cfl4sM2+foQTjOra0J1UahKKm1PVc+N8AZkG6gp8FOYoJas+6/wMv1zP0bZ5MmTTePPpWqPPPKIC9zGjh3rArhU8yWbrhvT6lKxtLTUdTt37bXXxs2W6julgEqfSdcUZOrfyJEjrXv37q7iRd3Zqa266qouYNXz559/3s4//3w9TdoUyKpbvChdPoYXpEoQBReq+tG25KMVOlCr6vdb554fO0/HoKrVR9leHxOtfVehmn7MMcfYhx9+mDhLTq91bdU1Vk3dT+qaHW7vvvuubbXVVvbpp5/a4YcfHn4reK4KIXV9qHExdb6E2w033ODGX8x1DLzwssLPTz31VLvxxhvdJHUNqHM8SpPhnXfe6T6iSrNffvkl6cdPOOGE4AcfCul1rfDtxx9/NH1HPvjgAzv22GP95Lw8ZhuopbrOpNuIQvztzfX6qGujD/FT7YPO0x122MH9fdL3O/y9POCAA+zRRx91H1VXyT4MTVzWJpts4n4Ioel0+Ziow2sEEEAAAQQQQAABBBBAAAEEEFiRAgRq1RyoaWwrdW2nlurGkAKr66+/3s2TGKip+ktVYGqZbtC7mTL8J9sbxqoq0I1QhVwKBdW1XWJTt31+rDBVEz3++OOJs2R83aRJEzfmlG7wDR482Pbdd9+4zxx33HF2++23u2mpblRrDLEePXq4eQoVqIWPy+mnn25vvPFG3HZneqEgQIFK06ZNrU+fPqYgw4cy4c/qfPDdXaka44cffgje1s1ITdNydt5552B6Pp5kE6jp5uqoUaNclZ6qP3SzXqFvpnbWWWeZD7h03IYOHVrpI+rOUpVlbdq0cee/utPLtslWlWZaj1ri8Ql3t5kuSEi1vnRjqOkzqlhUsKZxhjR+VLLjGr4u5ON7nWpbo07XeXjrrbe6jymoVjVhulbVQKaq328Flpf/dQ1Pd4M+3T6E38v2+hj+jJ6rGkvnv0KrLl26ZPU9SFxGstfhCqx77rknCKn8vBqj7JBDDnFjJyp4UqViuOn68sknn5gqPLVthQrUVFmqvwlqCs0VnkdpnTt3dkGYPqNzTN3ZJjYFO7r277XXXjZ16lT3o4LwPKrsVdiqHyvoRwv5bNkEauG/EVG+49X9t7e6r4++q09V0SaOI6gxPxX+qukHIerWN1kLXxfy8b1Otg6mIYAAAggggAACCCCAAAIIIIAAArkIEKhVc6Cmm1fqJmnzzTd3x0fdgulGu8a5UnVKp06dXOWVggO1xEBNYYBuKKrp5rwfn8lNyOE/2d4w1k1QbbduSE6aNMlVzemmqMai0ZhdqhZTt2YKwhTyqFJH406la+raUDd/VW0wbtw4t5y99947uBGqm2u6yRZuqpJThZaCNwUT2iZV5KgSRdUHummpm8bqFkxtRQRq2u9M1WGq3lL3g+EWrqxTBYdu0spYy1Nlio6BKl/UnnnmGbvooovCH3e/7tcNd4VYGj8rU+vZs2fWlXTZBGrhKgIFWA899FCmTXDvq8tC3VRt376921fdbFZlybRp09yx1L7rXNExVeClQFfVZuGmAFrH/s8//3QhwoQJE1xlmZYpN92QV0vWTV51B2rhrip1XHXOKuhYsGCBafy19dZbz3V9pv3Usdb3aMCAAeHdW2HPCx2oVfX77cP0KVOmuOrWTNegTLDZXh/Dy9E1R8dYLcr3ILwM/1mdvwqptT+y0Zh4CpfVbaF+bJB4/df101e3zpgxw4VQOtdUGaXuRxW067qp79KKCtR0bcoUtOt6oGqzcPOVdZqmSjxV6un6qL9J+u7sFus2Vz/qUEvW5a0P1HRtzua80DUnWbjvVpDwn2wCtVz/dufjb++KvD6mC9TE+NZbbwXjcup7ox8c6Qc7Ok/1/dP3SV0Bl5WVuR/06Ic9UQPZhMPFSwQQQAABBBBAAAEEEEAAAQQQQCBvAgRq1Ryo6UitvfbadtNNN7lgIHzkdJNx0KBBLuTQjWG1xEBNVW260VeVMcrcgv/6T5Qbxqq0uOSSS1z3Tcm6wVMo+Morr5iCmmxueJ122mnBWCrhbdIN1yuvvNKFRuHp/rlunKpbRXWNGW66yazKEHV356u4VkSgFt6mVM91Q1c3yxObwhQd88Swzc+nwEhdH+rX/trfcPMVauFp6Z6rCzZVuWTTsgnU1I2axvlR6KXAWGFrtk1jTanSS13RKWBLbPJSkKpt9l3ehedRxUqqLu40n7o11XfqueeeqxQ2VnegpvUrLNWYTjofFaonNh1LhQgKIX2XnonzrIjXhQ7UtI9V+X4rsFRYdNddd9ktt9xSZbIo10e/Mh1DjQ2Vy/fAL0OPvgvX8DQ9V5WwulDUWH3Jmiqc1R2sqiLDTQGbKtjUHawCihUVqIW3KdXzfv362ZFHHhn3tsJnBWUK2hSgJTb9/dS1XxXMySopfaCW+LlUrxVYqko6m5ZNoFaVv91V/du7Iq+PmQI1Xe/1vyvkrb8DyZp+XKGuOvX3JZ9j3yVbF9MQQAABBBBAAAEEEEAAAQQQQACBKAIrXaAWBSff86rSQFUHqvCaPXt2UJWTbj0DBw50gVxit3XpPpPv9xo0aOCqalQlpl+NKwBTBUVi1VA26+3QoYOrnGjYsKGr6tL4X+qyMJvxt3TjXH76rD43evToSmFJNttQE+fRudExNq6abjYqgNHNeVXxqTqwpjbd7FSoVpUu1dRt27rrruuqDXVcFTQpmFMVY6ZzQlYKQFSpqGpPNXkp3FXYWxOatktBh46v9k/7pqBD26mKNdpygajfb82vQE0VSBo/S1WKxdxUeaWuQHU+65ob5Tqrz6rKWSa6fiiQ0HcoU2VYsXipIlr7pu+QKpnmzp3rKvlqyvc8mWM+/nZX5W9vMVwfFZTq2qhzXuewro2qVlOVZVXHQ0x2TJiGAAIIIIAAAggggAACCCCAAAIIVFWAQK2qgtX4eV8toSqlrbfeOmO3gtW4KSwagUoCGuNM3T527drVVYRVmoEJCFSjgMbfUxWiqlRV/UpDoKYI8Le7phwJtgMBBBBAAAEEEEAAAQQQQAABBBDIrwCBWn4987o0jY+lbv3UlZm6NKMhUFMEVCmisZ409le6rhdryvayHbVP4PJYd73nn3++7b///q5L3Nq3h+xRsQrwt7tYjxzbjQACCCCAAAIIIIAAAggggAACCKQXIFBL77NC39UYMuouThVqieNnrdANY+UrvYDG1FM3bOqiS91v0hAotICujbpGMsZSoeVZXyYB/nZnEuJ9BBBAAAEEEEAAAQQQQAABBBBAoDgFCNSK87ix1QgggAACCCCAAAIIIIAAAggggAACCCCAAAIIIIAAAgUSIFArEDSrQQABBBBAAAEEEEAAAQQQQAABBBBAAAEEEEAAAQQQKE4BArXiPG5sNQIIIIAAAggggAACCCCAAAIIIIAAAggggAACCCCAQIEECNQKBM1qEEAAAQQQQAABBBBAAAEEEEAAAQQQQAABBBBAAAEEilOAQK04jxtbjQACCCCAAAIIIIAAAggggAACCCCAAAIIIIAAAgggUCABArUCQbMaBBBAAAEEEEAAAQQQQAABBBBAAAEEEEAAAQQQQACB4hQgUCvO48ZWI4AAAggggAACCCCAAAIIIIAAAggggAACCCCAAAIIFEiAQK1A0KwGAQQQQAABBBBAAAEEEEAAAQQQQAABBBBAAAEEEECgOAUI1IrzuLHVCCCAAAIIIIAAAggggAACCCCAAAIIIIAAAggggAACBRIgUCsQNKtBAAEEEEAAAQQQQAABBBBAAAEEEEAAAQQQQAABBBAoTgECteI8bmw1AggggAACCCCAAAIIIIAAAggggAACCCCAAAIIIIBAgQQI1AoEzWoQQAABBBBAAAEEEEAAAQQQQAABBBBAAAEEEEAAAQSKU4BArTiPG1uNAAIIIIAAAggggAACCCCAAAIIIIAAAggggAACCCBQIAECtQJBsxoEEEAAAQQQQAABBBBAAAEEEEAAAQQQQAABBBBAAIHiFCBQK87jxlYjgAACCCCAAAIIIIAAAggggAACCCCAAAIIIIAAAggUSIBArUDQrAYBBBBAAAEEEEAAAQQQQAABBBBAAAEEEEAAAQQQQKA4BQjUivO4sdUIIIAAAggggAACCCCAAAIIIIAAAggggAACCCCAAAIFEiBQKxA0q0EAAQQQQAABBBBAAAEEEEAAAQQQQAABBBBAAAEEEChOAQK14jxubDUCCCCAAAIIIIAAAggggAACCCCAAAIIIIAAAggggECBBAjUCgTNahBAAAEEEEAAAQQQQAABBBBAAAEEEEAAAQQQQAABBIpTgECtOI8bW40AAggggAACCCCAAAIIIIAAAggggAACCCCAAAIIIFAgAQK1AkGzGgQQQAABBBBAAAEEEEAAAQQQQAABBBBAAAEEEEAAgeIUIFArzuPGViOAAAIIIIAAAggggAACCCCAAAIIIIAAAggggAACCBRIgECtQNCsBgEEEEAAAQQQQAABBBBAAAEEEEAAAQQQQAABBBBAoDgFCNSK87ix1QgggAACCCCAAAIIIIAAAggggAACCCCAAAIIIIAAAgUSIFArEDSrQQABBBBAAAEEEEAAAQQQQAABBBBAAAEEEEAAAQQQKE4BArXiPG5sNQIIIIAAAggggAACCCCAAAIIIIAAAggggAACCCCAQIEECNQKBM1qEEAAAQQQQAABBBBAAAEEEEAAAQQQQAABBBBAAAEEilOAQK04jxtbjQACCCCAAAIIIIAAAggggAACCCCAAAIIIIAAAgggUCABArUCQbMaBBBAAAEEEEAAAQQQQAABBBBAAAEEEEAAAQQQQACB4hQgUCvO48ZWI4AAAggggAACCCCAAAIIIIAAAggggAACCCCAAAIIFEiAQK1A0KwGAQQQQAABBBBAAAEEEEAAAQQQQAABBBBAAAEEEECgOAUI1IrzuLHVCCCAAAIIIIAAAggggAACCCCAAAIIIIAAAggggAACBRIgUCsQNKtBAAEEEEAAAQQQQAABBBBAAAEEEEAAAQQQQAABBBAoTgECteI8bmw1AggggAACCCCAAAIIIIAAAggggAACCCCAAAIIIIBAgQQI1AoEzWoQQAABBBBAAAEEEEAAAQQQQAABBBBAAAEEEEAAAQSKU4BArTiPG1uNAAIIIIAAAggggAACCCCAAAIIIIAAAggggAACCCBQIAECtQJBsxoEEEAAAQQQQAABBBBAAAEEEEAAAQQQQAABBBBAAIHiFFhpArWSkhKrW7eu6bFOnTrusTgPGVuNAAIIIIAAAggggAACCCCAAAIIIIAAAggggAACCKQXWLp0qS1ZssT0uGjRIveY/hO8m05gpQjUFKT5MC0dBu8hgAACCCCAAAIIIIAAAggggAACCCCAAAIIIIAAArVNwIdqCtZouQnU6kBN1WhlZWWuIi03Hj6FAAIIIIAAAggggAACCCCAAAIIIIAAAggggAACCNQOAVWsLVy4kGq1HA5nrQ7UVJVWr169HFj4CAIIIIAAAggggAACCCCAAAIIIIAAAggggAACCCBQ+wQqKipcF5C1b8+qd49qbaCmcdJUnaYqNRoCCCCAAAIIIIAAAggggAACCCCAAAIIIIAAAggggIC56rTy8nKq1CKeDLU2UKM6LeKZwOwIIIAAAggggAACCCCAAAIIIIAAAggggAACCCCwUghQpRb9MNfaQE3VaaWlpdFF+AQCCCCAAAIIIIAAAggggAACCCCAAAIIIIAAAgggUIsFFi9e7MZSq8W7mPddq7WBWoMGDejuMe+nCwtEAAEEEEAAAQQQQAABBBBAAAEEEEAAAQQQQACBYhdYunSpLViwoNh3o6DbX2sDtYYNGxYUkpUhgAACCCCAAAIIIIAAAggggAACCCCAAAIIIIAAAsUiMH/+/GLZ1BqxnQRqNeIwsBEIIIAAAggggAACCCCAAAIIIIAAAggggAACCCCAQOEECNSiWROoRfNibgQQQAABBBBAAAEEEEAAAQQQQAABBBBAAAEEEECg6AUI1KIdQgK1aF7MjQACCCCAAAIIIIAAAggggAACCCCAAAIIIIAAAggUvQCBWrRDSKAWzYu5EUAAAQQQQAABBBBAAAEEEEAAAQQQQAABBBBAAIGiFyBQi3YICdSieTE3AggggAACCCCAAAIIIIAAAggggAACCCCAAAIIIFD0AgRq0Q4hgVo0L+ZGAAEEEEAAAQQQQAABBBBAAAEEEEAAAQQQQAABBIpegEAt2iEkUIvmxdwIIIAAAggggAACCCCAAAIIIIAAAggggAACCCCAQNELEKhFO4QEatG8mBsBBBBAAAEEEEAAAQQQQAABBBBAAAEEEEAAAQQQKHoBArVoh5BALZoXcyOAAAIIIIAAAggggAACCCCAAAIIIIAAAggggAACRS9AoBbtEBKoRfNibgQQQAABBBBAAAEEEEAAAQQQQAABBBBAAAEEEECg6AUI1KIdQgK1aF7MjQACCCCAAAIIIIAAAggggAACCCCAAAIIIIAAAggUvQCBWrRDSKAWzYu5EUAAAQQQQAABBBBAAAEEEEAAAQQQQAABBBBAAIGiFyBQi3YICdSieTE3AggggAACCCCAAAIIIIAAAggggAACCCCAAAIIIFD0AgRq0Q4hgVo0L+ZGAAEEEEAAAQQQQAABBBBAAAEEEEAAAQQQQAABBIpegEAt2iEkUIvmxdwIIIAAAggggAACCCCAAAIIIIAAAggggAACCCCAQNELEKhFO4QEatG8mBsBBBBAAAEEEEAAAQQQQAABBBBAAAEEEEAAAQQQKHoBArVoh5BALZoXcyOAAAIIIIAAAggggAACCCCAAAIIIIAAAggggAACRS9AoBbtEBKoRfNibgQQQAABBBBAAAEEEEAAAQQQQAABBBBAAAEEEECg6AUI1KIdQgK1aF7MjQACCCCAAAIIIIAAAggggAACCCCAAAIIIIAAAggUvQCBWrRDSKAWzYu5EUAAAQQQQAABBBBAAAEEEEAAAQQQQAABBBBAAIGiFyBQi3YICdSieTE3AggggAACCCCAAAIIIIAAAggggAACCCCAAAIIIFD0AgRq0Q4hgVo0L+ZGAAEEEEAAAQQQQAABBBBAAAEEEEAAAQQQQAABBIpegEAt2iEkUIvmxdwIIIAAAggggAACCCCAAAIIIIAAAggggAACCCCAQNELEKhFO4QEatG8mBsBBBBAAAEEEEAAAQQQQAABBBBAAAEEEEAAAQQQKHoBArVoh5BALZoXcyOAAAIIIIAAAggggAACCCCAAAIIIIAAAggggAACRS9AoBbtEBKoRfNibgQQQAABBBBAAAEEEEAAAQQQQAABBBBAAAEEEECg6AUI1KIdQgK1aF7MjQACCCCAAAIIIIAAAggggAACCCCAAAIIIIAAAggUvQCBWrRDSKAWzYu5EUAAAQQQQAABBBBAAAEEEEAAAQQQQAABBBBAAIGiFyBQi3YICdSieTE3AggggAACCCCAAAIIIIAAAggggAACCCCAAAIIIFD0AgRq0Q4hgVo0L+ZGAAEEEEAAAQQQQAABBBBAAAEEEEAAAQQQQAABBIpegEAt2iEkUIvmxdwIIIAAAggggAACCCCAAAIIIIAAAggggAACCCCAQNELEKhFO4QEatG8mBsBBBBAAAEEEEAAAQQQQAABBBBAAAEEEEAAAQQQKHoBArVoh5BALZoXcyOAAAIIIIAAAggggAACCCCAAAIIIIAAAggggAACRS9AoBbtEBKoRfNi7pVUoGvXrtajR49g74cOHWovv/xy8HpleoJFzTzaTZo0scsvvzzYuKVLl9oVV1wRvOYJAggggAACCCCAAAIIIIAAAggggAACCCAQFiBQC2tkfk6gltmIOWqIQNu2ba1NmzbWokUL969x48ZWXl5uCxYssJkzZ9rUqVNtypQpNnbs2Lxv8emnnx4XVrzyyit20UUX5X09NWGBO+20k2288cbBpgwePNiGDRsWvF6ZLIKdLoInq622mg0aNCjY0iVLltg666wTvOYJAggggAACCCCAAAIIIIAAAggggAACCCAQFiBQC2tkfk6gltmIOVagQKNGjezkk0+2ffbZJy7kSbdJa6+9tqk6J59tZQqRbrzxRjvmmGMCvjvuuMPuvffe4PXKZBHsdBE8IVArgoPEJiKAAAIIIIAAAggggAACCCCAAAIIIFCDBAjUoh0MArVoXsxdQIGmTZvak08+aVtttVWktRKoReKqNDOBWiWSophAoFYUh4mNRAABBBBAAAEEEEAAAQQQQAABBBBAoMYIEKhFOxQEatG8mLuAAldeeaWdeuqpcWucNWuWjRgxwvS4ePFi07hRzZo1s9VXX90UKJSWlhqBWhxZ5BcXXnihHXDAAcHnnnjiCXvqqaeC11SoBRQ16gmBWo06HGwMAggggAACCCCAAAIIIIAAAggggAACNV6AQC3aISJQi+bF3AUUePvtt23TTTcN1tivXz877bTTrKKiIpgWflKnTh0Xqk2cODE8OS/PCZGWM2Kx3KImPSNQq0lHg21BAAEEEEAAAQQQQAABBBBAAAEEEECg5gsQqEU7RgRq0bwKPvfGG29se+65pxs/rF27dpXGEVO11rhx41zVVp8+fdxjwTeymlY4cuRIa9iwYbB0Vaw988wzwetsnxx55JG23nrrBbO/9dZbNnz48OC1nhx11FG27rrrBtPeeOMN++6774LXyUKkXr162RlnnOGWre4pFy5caJMmTTIFei+//HKldfiFqZpul112se22284FgKussopprLhFixaZLmCqvps5c6Y9/PDD9tNPP/mPBY86Dw4++GDbZJNNrHXr1u6zqtbT57T+n3/+2T7++GP79ttv3We6dOlie+yxR/B5nSdff/21nXjiibbzzjtbmzZt3Bhpb775ppunR48ecd1sfvLJJ9a/f//g8/m00EIVBB122GHOUc9btWrl9t/vy4svvmiTJ08O1u+fRN0vfW6DDTawrl272uabb27Nmzc32devX98du7lz5wb2OtdSBbd+/YmPHTt2tP3228+22GILVzFZVlbmqigXLFhgv/76qw0aNMhee+01t67Ezybuy+DBg+37779356W2tUWLFlZeXm5//vmnffHFFyYTnW/hli5QW3XVVd25Gp7/2WeftTFjxoQnue/bP//5z7hpGj9P5xYNAQQQQAABBBBAAAEEEEAAAQQQQAABBGqXAIFatONJoBbNqyBzKzA5+eSTXZCm51GawjUFJo8//rgL2qJ8tqbNq0BIQZVvN998swuZ/OtsH9Vl4e677x7Mfskll9hLL70UvNYTjdW26667BtMUKrz66qvB68QQaciQIaZjs8YaawTzhJ8sXbrU7r//frv99tvDk10Qdsstt7gQJ+6NJC9OOukk69u3b9w7p5xyiv3rX/+yevXqxU1PfPHII4/YTTfd5CYnbru2ae+9946r/rv66quDbh2jjqGWq4U27oorrjDtZ926dRN3IXitYEtmjz32WDBNT6Lsl6oXFZLpe5VN69Spkws3s5lX8+iYqHpSXY6maxMmTLBzzjnHhg4dGjdb4r4oEFXgqi5NkzV9Nw466CAX2Pn30wVqmkfLXGeddfzsds8999idd94ZvNaTbt262X//+99g2g8//ODOlWACTxBAAAEEEEAAAQQQQAABBBBAAAEEEECg1ggQqEU7lARq0byqdW5VyyjYULVOPpqqpK6//vqirS55/fXXXbWPt1DF0mWXXeYqx3zFjKp2MrXqCNS0zjlz5tioUaNs2rRpLvjQ2G2qBPJNFWcK6caPH+8mNWjQwL755pu4MO23334z/VO1UePGjd14cKpG0r+zzjorLlDbaqut4kI+LXTJkiWuIk1VcarsWmuttdy2pAvUVC2lbQ23qgRqWk5UC33m+OOPd+ennqvJQEHR7NmzXfDTvn17Kykpce+pAu+II44whXe+JYZQ6fZrxx13tOeee85/1BR4qgJMlW96ruBWFWv+X+fOnbMO1PbZZx974IEHgmXriYIoVZOp+m3DDTe0li1bBu/rfFCgqf30LXFfNF3bpgoyVc7JIlxBqffPP/98UyWlb5kCNQV+CjB9U/Wjql/DLTFM1fVD4TwNAQQQQAABBBBAAAEEEEAAAQQQQAABBGqfAIFatGNKoBbNq9rm1o1tVQ4pVMtnU/B08cUXu6q1fC63EMu66qqrTBVZ6ZpCGIVJY8eOtRdeeME07prCl3CrjkBN69x///1dF4t+XQrE3nvvPRd++GkKMT744AP3UhVH6qrPNwUmO+20U6Wu+/z7iY86P8Jh648//uheh4MZfUZVSKrI+uWXX9wikoU1CvvUdaDc5s2bZ++++24QViWGKnfccYfrEtJvT+LycrHQsrROVYL5puoxVVH5duihh5rW7Zsqp/7zn//4l5Uq1PRGqv36xz/+YeGuDHWczjzzzGBZVXnyyiuv2NZbbx0sQpWBCjR9U/XdRx995MJOPy0xDEs0VTi47777umPjP/Poo49a9+7d/Ut78MEH7dZbbw1eZwrUFBZ++eWXcYGuKje1Lt8GDBhgbdu2dS/13dp+++1t+vTp/m0eEUAAAQQQQAABBBBAAAEEEEAAAQQQQKAWCRCoRTuYBGrRvKpl7sSgJHElCmTef/9914WjAjKNm6am8dUUwKnrwb322ivuZnviMlStpmCtmJoCKgVkidVU6fbhq6++cuNOqXLLt+oI1BQGqYIssSWGHpdffnlQGaXwTONW+aYx4jReWbZNXVCqSs23ZF1X+vfCj4lhjarJNAabxlpL1qIGarlYqMtKncfhritVgRUOQ1XVFe4a8dNPP3VVbX6bo+yXzv1zzz3Xf9R0Tlx33XXB66o8SeyaVMdIVYvhduGFF7qKMj9NFW233Xabf1kpHNQ4f+edd17wvp4khoIKkFWx6VumQE3z3X333XbggQf6j7iuNB966CH3WuPLqbtY31IdV/8+jwgggAACCCCAAAIIIIAAAggggAACCCBQ3AIEatGOH4FaNK+8zq0wTGFaYrdrWomqjnTDXze4ffeGmVau5WlZ11xzTdzYY/5zWpaChWyX5z+3Ih/VhaKqvI455piU40klbp8CIQVbvlVHoKaqpIsuusivIni89957XeWan3Dttdda79693cuNNtrIVbD59/SokEjdA6rbQQVdU6ZMcd0efvfdd+HZ3PPEMbCSjbFW6UOxCYnBk6ql0lX+RQ3UcrFIDH+03euvv76rMPP7oC4sBw8e7F+6LhpVteVblP068cQTTcfCtwULFriQWt0yyn7GjBmui0VV7f3xxx9+toyP2sZwN5QKBBO7ZtRCjj322Ljquv/7v/9zY6n5FSTuSzJTBbjhAE3VjpdeeqlfhCWaKlQOj5mmGROrJL/++ms3FpveO+OMM+zf//63nrqW7fnl5+cRAQQQQAABBBBAAAEEEEAAAQQQQAABBIpLgEAt2vEiUIvmlde51S1csjCtV69ebtyiXIMvBWvqPu+CCy6otL0K1XTzvhibAoM2bdoEYWHDhg1ts802s7PPPtvUrZ5vffv2NYUBvtWUQK20tNT69+9vrVu39puW8lFBh45huNIpX4FasrAmvCErKlALb0Oy5xrzLF2glm6/VH31zjvvxJ0nydahEErVnAquFLRlaokhVraBWmKXk4UK1LQ/H374oa233npu17SPO+ywgxvv7fnnn7cuXbq46erGU9PDlZ7uDf6DAAIIIIAAAggggAACCCCAAAIIIIAAArVGgEAt2qEkUIvmlbe5k3XzqKq0I488MujSsaorU5eQ6hauadOmcYt6/PHH7frrr4+bVswvNLZWt27dgl3QuGBdu3YNXteUQE0btMkmm7hu93ygEWxkkieJXe4RqOUeqIn3oIMOsquvvtrUlWSmpvmeeuqpTLNVqgorhkBNQa32zzc9f+2112zYsGFB4Hj//fdbz549/Sw8IoAAAggggAACCCCAAAIIIIAAAggggEAtFCBQi3ZQCdSieeVlblWlqTot3DSelsK0XKvSwssKP9f4aur+sFOnTuHJrkotPF5S3JtF9uLMM8+0f/3rX8FWT5o0yXVt5yfUpEDNb9MWW2xh7du3txYtWlhJSYkLZnbffXcXuPl51P3jNtts419abQ/UdBzTVUQpcFaXjL5lU9Xl5/WP9evXt6233tpVCTZp0sTq1KljHTp0cGPZrbnmmn42N3ZfeMy14I2EJ8VYodasWTPTWIOyUPv888/t6aeftgcffDDYu912283GjBkTvOYJAggggAACCCCAAAIIIIAAAggggAACCNQ+AQK1aMeUQC2aV5XnVneM6vZPj74pKOjRo4eNGzfOT8rro0I1VTuFK9UU3O288855D/DyuuFZLkzd82l8Kd8UFhxxxBH+peUjUNPybrvttmCZr776qv3zn/8MXvsnquwJd0uocdbUFWE2TVVr6o7Pt/Lycttwww39y7iu+jTxnHPOMY3FlalFDZ4ydfmYD4vEIEr7oH3VPmfbou5XuuUed9xxdsMNNwSz9OvXzzTuWqam79S3334bzJZs3DK9mbh8VYRdeOGFweey2Zd8jKHmV3jXXXfZwQcf7F6qqk7dpPoqz8Tvj/8MjwgggAACCCCAAAIIIIAAAggggAACCCBQuwQI1KIdTwK1aF5VnvuOO+6wQw89NG45++yzT9bdPCZWjXTs2DFuWaleqPtHjSEVbunGnArPt6Ked+/e3VVu/f777/bbb7/ZH3/8Ybr575vGJNtll11MpuFu/FT9d9NNN/nZ7KGHHrK99947eH3LLbe4acGE2BNV62mcLd8Ulik082399de3Dz74wL90FT7h0M6/8dZbb7lx3fxrhWsa+yubpoq1zz77LJh15syZtvnmmwevn3zySdt1112D1wMGDLBjjjkmeJ3qSTZhTfioavaoAABAAElEQVSzmQK1fFioKm/48OFxIa8CLAVZ2bao+5VuuYcffnhcF4eJY5yl+6wqvDS2n28KqhPD8SuuuMJOO+00P4slnoPZ7Es+AzVVPmqsuGTt4osvTvlesvmZhgACCCCAAAIIIIAAAggggAACCCCAAALFKUCgFu24EahF86rS3KoUU3VauPXq1cv0L9uWa6Cm5V9wwQXuX3hdyW7+h99fkc8Vih199NHBJqj6R5V1M2bMMIVpq666qjVs2DB4X080j0KmcNeA//73v+2MM84I5lOXkDKfMGGCC3QULqiCSCGPb4mBmqYrAPKVhUuXLnXd5A0ZMsRtU/Pmza1Lly6u206/jOnTp7tp4aorhXTjx483hYR61L4sWLDABTIHHnigbbvttv7jlhiYKehI7IZQlUWDBw+2H374we1L69atXfeec+fONe23WjZhTbDS2JNMgZrmzYdFYuWgjq1CHi1bYaKqvxQy+n/PP/+8KbD0Lcp+bbrppnbVVVc5d9lPnDjR2WtZWv6pp57quoH0y9YYh/fdd59/mfbxnnvusQMOOCCYRwHqs88+69ah81OVd9pW38WiZlSornPHt2z2JZ+BmtabGCJrms4bfR/4QyoNGgIIIIAAAggggAACCCCAAAII1HaBOo1LrVHbplavaamVrVJmdZuUxW4wLrUlCxbbwnkVVjFzoS2csdDKJ823pYuWLuMoNWvYrnEczYI/Y++XL4mb5l+UrdrASmPr8W3RnEVWMXV5L00lDepYgzXi73H6efW4tGKpLS5fbIvmVtjSBcnXEZ5fz0vqlVjD9k2sfrMyq6f9alwvdu/T3HKWxJZVPrPcFsb2rXzSAlsyf3kBQ6XllJVYg9aNrKxZfStrHvsXW9biBbHtj9mUx/ZB+70otpxwK4vtS2lsn1K2mGPFvEW2eHZsf7xpkpmTucwfOzd2fJbPnHZdscO1OHZMtL9uG/86fMs/vezZUltqjdZqkjg54+slC5dY+YT5Geer6TNwHzDaESJQi+ZVpbmvvvpqO/nkk4NlqKvHnXbaKVK3i1UJ1BQGKaQJd/34+OOP2/XXXx9sU016khioZdq2RYsWuW70wqGLPqMqL3Wxp/GyUjWFawqjfEsWqCmU8yGVny/Voyrpjj/+eOcdnmfUqFEuDAxPS/ZcweApp5ziuuLz72vML3XdqQAoU1PVlA8jswlrwsvLJlDLh8Uaa6xhL774oq211lrh1ad8rkBMY335FmW/0lVk+eX5x6lTp9r+++/vKiL9tHSP2g+FUxqbLJumYDA85p8+k82+5DtQU0XgtddeG7fJL7zwgqkLVRoCCCCAAAIIIIAAAggggAACCCBQmwXW/Fsba7tLW1tts5ZWp+7ysCvVPn9+1UCbMXyae7tuizLbs3e3uFk/vzr2/jfL3o97I/Ziyyu3stbbrhlMHtf/Dxve8+vgdYutV7Udrt4ueJ3uyfyp823S11Ns9KujbP64eZVmbbZpC+uwZ3tbc9s1rF6jepXeT5ww8oWf7NfnfkmcbI3WaWod9or90L1rW6sXC+PStYpY0DfwukE2+8cZbrYuPXe0lhs0T/eR4L3yWeU2adgUG/fpeJs+eEowXU+Subx3TB9bEgskfct2XYvLF9nMMbPt937j7Y93f4+llH4JsfCxfon1eLHH8glZPps5ZqYNOH9AlnPX3NkI1KIdGwK1aF5VmlvVaapS8y2XrtWqEqhpvYcddpip+sY3dU2nKrWa2FSNdeyxx7puH1WRlqqp4kxBk6qbwuNZhec/5JBDTN7hrvn0viqhHnjgAddN43777Rd8JFmgpjfVDeWZZ55pnTt3tnr1Kv8xUbWZAj0FP6q0Smwan0rjh4Wr4cLzKBQcOnSo65Ly448/Dr/lnqtrSwWze+yxR1wwGp5R+6TuKbW/atmENeHPZxOoaf6qWmgZrVq1clV9Oj4aQy5ZU+WajnHPnj3t/fffD2aJsl86Xs8880xQYRgsJPREfzw0ht29995rP/30U+idzE8VCup8VfetjRvH/0JJn1ZFo8LU3r17m0KrioqKuIVmsy/5DtQUsA8aNCiuck7HQecfDQEEEEAAAQQQQAABBBBAAAEEEKiNAqpG2uj0jW3dfdeOtHs1JVDzG71wzkLrd+6ntmj68uqw1XZpbVtfsLnVKU1dVOA/7x+TBWpr7KblbBFLmpb35uXnT/U44KovbObw6e7tbEOuxGV913uE/f7amGByPgO1YKGxJz+9Nsp+6f1jMIlArfir7IKDWYAnBGoFQNYqko1hppv8CgsK2XQTPTHoiTKGWyG31a9LlWUKodStYqNGjVw3j+pGUd0l6t+0adNcYOHnT/Wo5agKTRVFdevWdZ8bPXq06yYy1WdSTVf3fR06dHChVoMGDUxVTVOmTMlqWxTEaRv8/ui1gjgFYRorLjFsSbYNChjbtm3rur3U+vUZdWOof+EuJpN9Nt/TqmIR3hYFUQrY1JWnjpVCNP2TTb6azh/Zq0pTz7UeBWk6dmPHjq3yahSUKlxT8KnuHlWpqG4UFYSrIrUmNVU6fvrpp0G4q8BPQS0NAQQQQAABBBBAAAEEEEAAAQQQqK0CLbdb1bpcEV8Ntrhikc0YNcsWzl5o6savToNY94+xqqwGLRrE/pVZaVldK3SgpsDMt9L6pVZar3KxwZBew2xi3wlutjqNSm2vZ7tbSexeV9BiP/CeNXa2zY11V6luD+uU1bG6DerG9qm+NWjZwFWwJQZqqnDb4brt4qr2lsZ60lJ117zJ82xprHfIhq0aWONYN5D1V6kfrCpdoCZfdb3oW0lpidVrWLlQQfP1OfpDWxo7Bmq5BGrhdZXUia0nSZXe3Inz7JPT+2kVriUL1CrmL4rt6/Jt9vOGH2f9Pse++vfA8KSifE6FWrTDRqAWzSvnuRPHL1MF0WmnnZbz8qrywUcffdRVF/llqMtHdf1IQwCBlUcgcWzBm2++2R5++OGVB4A9RQABBBBAAAEEEEAAAQQQQACBlU5gvZM2sA0OWt5LkrpQ/OyiAXGVXokopavUi42pFgtYFi7rJ7AQXT4mdm1Yr2WZbXvFttZ8veVDjoz54Hcbcd93bnNbbhsLCq+MDwr7//sLmzViWdVY4j7pdZ2GsfAt9uPwJfOWj6G20Vkb2zp7dwxmXzB9gQ28fpDNG135h+KlsRCv/poNreGajW3WDzOsYlq5+1xihdovb4+xnx4dESxTTzQ+WqdTNraOe3aIm/7ZpZ8HXUfmEqglrqukbomtuVsb2/K8zePW88HJHwXj2CUL1L68ZbBN/WJS3Gdq6wsCtWhHlkAtmlfOcyeGWLl095jzyhM+qHHc1G2gbysy3PPbwCMCCBROQFWFAwcOtBYtWriVqqvRHXbYwSZPnly4jWBNCCCAAAIIIIAAAggggAACCCCAQIEFtrp6a1tz6zWCtSaOZxa8kebJigjUtDnrnRALAw9ZHgaO/2KCfXPLMLelHQ7uaJueuHGw1QrCPj7x4+B1tk92vGsna77O8tDu5zdG2c+PL+8eMZvlZBOoaTn1WtW37o/H95b0+TWxsei+XjYWXT4CNa0nWWDW7/xPbd6YOXo76fsEao6G/yQRIFBLglIdk9555x3X7aNf9lFHHeVuaPvXhXzs0qWLPf/888EqR4wY4cZ+CibwBAEEarXAoYceanfccUewjxo77tRTTw1e8wQBBBBAAAEEEEAAAQQQQAABBBCojQJbXL6ltdm+dbBrEwZPtGE3DAleZ/NkRQVq65+0oa1/0LrBJoYDtXYHdLTOsYov39Rl5EcnfGRLFy2rqvPTMz12e6ablTUtC2b75r/f2/i3fgteZ/Mk20DNYkO07fP6PnGLrJZALVYN1+OFvePWQ6C2nIMKteUW2TwjUMtGKQ/zaAylcMt13LLE5XTs2DG82KyeJxvPLZflZLUyZkIAgRon8Prrr9sWW8QGl/2rnX766danTx//kkcEEEAAAQQQQAABBBBAAAEEEECgVgqsG6vy2jBU5WWxccaG3jfcpn8/zRZOXdZl4dJFS8xi/5+qrYhATVVW2/9nB2u5QfNgs4Y/McLGvT7GvW6x1aq2wzXxXT7+8tZoG/fxeJs/PlaJtTSWXi1eGhsXLH3AVshArdE6TW23u7oG+6Mnn18dq1D7Jr8Vaq12XMO2v2zrYD3ls8rt41P6BmO1Jatgo0It4OJJggCBWgJIdb3MRxCmbatpy6kuL5aLAALVI9C+fXtTF7S+zZs3z4444ghTt480BBBAAAEEEEAAAQQQQAABBBBAoDYLtNxudetyxTZpd3HpkiW2YEa5zZ9SbhMGTrBx7/5ui0PjjBUiUJv+8wxbomAv1uo2qmuNVmto9RrVC7Z78ndTbOhNQ2zx3GXjn9VtXmZ7PLqblZbVDeZJ9kRh0oJpC2xKbGy1X1//1RZOnB83W3UEaqPeiY2h9tjI5espNStr0cA2PG5Da7dzm+XTY88+PrOvLZiwbJty6fJxwfT5NvfPZZ8vKa1jDVqUWcNWDaykTmy8uFhbFBsL75sHv7WJ/Sa41/pPskBt4exyW7wwdaq6IDZe3BcXfx4so5ifUKEW7egRqEXzynnumhaE5Wt7cgbhgwgggAACCCCAAAIIIIAAAggggAACCCCAQIEFNrtoc2u/S9us17pgxgL77ML+VjFtoftMIQK1dBs3b8p8+/K6r2z+73PjZmu9Zzvb8pzOcdPSvViyeIl9+Z/BNn3olGC26gjUgoVneDLtpxn2xSUDYj1BxqrpYi2XQC3DKuzHV36x0c/9HNcVZrJALdNy5k+bb31P6ptptqJ4n0At2mEiUIvmlfPciQEWXT7mTMkHEUAAAQQQQAABBBBAAAEEEEAAAQQQQACBnARKyupY627tbP2D17HGqzfKahnhsdZWdKDmNjjWVeVvfcfZ9/d8G+vOcfkutNx2VVv/0PWsVaeWyyemebZg+gLre0as+8PyZQtZEYFaxbwKG99/gv38v5+C0FKbXB2BmparMGzQrcNszg8z9DJphZp7I81/CNTS4NTytwjUCnSA3333XevUqVOwtqOOOsoGDhwYvM72SWIwl8vYZ126dLHnn38+WOXIkSOtR48ewWueIIAAAggggAACCCCAAAIIIIAAAggggAACtV2gTqNSa7B6rDvFVcqsJFYYVVK3jjVas5FtePh6se4CGwS7XzF/kfU56n1XPVWIQO2j0z62hbOWVcRpuxq2a2rtdm9j6+67drBNevLlrYNt6ueT4qbphaqu6rdqGPun7g5jr+uUWFmsW8i191k7bhw2zfvJxQNs7s8z9dSqI1BbOGehVcypsNL66oKxoVuP/88PL/1sv740KhboVe5eMZdAbfR7v9mPTyzvXlLdZa6yUXPb7JRNrNGqy9c96/dZ1v+8/m4zklWoff/USJv67bKx3Py2hh/VHee80bPDk4r2ORVq0Q4dgVo0r5zn1phF3bt3Dz5/8cUX28svvxy8zvZJPgK1k08+2a6++upglR988IGddtppwWueIIAAAggggAACCCCAAAIIIIAAAggggAACK6tA+wM72mYnbxy3+wq5yictsEIEau8d08eWzIkf775Ow1Lr/lS32DhpsUHI/mojnvnBxrw02r/M+NhonSa22127xM03pNcwm9h32Zhi1RGo/fJ2bAy1R0dYncalttv9u8YFldNiY8V9edkXtnRxqMzur63LJVDz64rbwdiLdY5d3zY6fP1gssbJe/fg99zrZIHal7fEgsovKgeVwQJq0RMCtWgHk0AtmlfOc19wwQWmf77lGmLlI1BLDPeuv/56e/zxx/2m8YgAAggggAACCCCAAAIIIIAAAggggAACCKy0Ak02aGa79Nwpbv8/PquvLfhj/goL1LQxuz6yqzVeo3GwXSOejQVqL2YfqOmDe720V1woN+y+4Tbhg3FumYmB2rePj7Cxb4xx72X7ny49d4yrgguHXC23X926XL5N3KJUpTb6mZ/jpulFPgO1NXZvbVtfsOXydcS6zHznoHfdawK1+ctdeJZRgEAtI1F+Zth4443tnXfeiVtY586dbdasWXHTMr2oaqC2yiqr2PDhw+NWk+t4bnEL4QUCCCCAAAIIIIAAAggggAACCCCAAAIIIFALBFps1cp2uGb7YE8WVyy2Pn/vY0srllpJaYnt+Xz3WChVN3h/5HM/2q8vjApe+ycldUtst0d3s4Ytl3c3+Mubo+ynx370s2QVHGnmOg3r2B6P7WH1GtcLPhs1UCuJdbu41//2tDqlsX4g/2qfXzXQZgxf1r3hjnfuZM3XbebfsnH9/7DhPb8OXmfzJF2gps9v9s/Nrf2ubYNFqVqs/+UDbfbIZWOa+TfyGah1PGId2/iYjfyiY+POEah5DCrUvER2jwRq2TnlZa4BAwZY27bLLxa5dPtY1UDtsMMOs9tvvz3Yn/Hjx9tOO8X/2iJ4kycIIIAAAggggAACCCCAAAIIIIAAAggggEAtEWi0dhNruVkrmzdhrs2fMM8WTJpvSxfGdzeoeTY/p7O1WL95sNfqmnDgxZ8Hr7e/pYu16tQyeF0+q9w+/9cXNn/8vGCagrf2B6xlm54Y33Xk4DuG2aRPl3WxqJmTBUd9//GpLZq9bAy1OrEuHuutUt/W3q9DLIhqFyxfTwbfGVvWJxNiYVuptd+ng839c15s3+ZZ+cR5tnju4rh567Ussw2O3dDW2qN9MF1h1vtHx7qXnL/ETVvvpA1tg4PWDd7Xk59eH2Vj3/3dyv+Mr2QqXaWeNV27qa2yTjObPmK6zf5xWSCWKVBb1vXjLnHjqc2dONc+O79/bDuWb3Myl8SuMBPXNebDsfbzsz6sLLG6sTHyGq/V1LaMHc9wEDn3z7n2yRmfuP1MVqGmqr0pQzJ3+VgxPXaM4k+fOLtieEGgFu0oEahF86rS3Bq3TOOX+abqtJ133jlSlVpVAjVVp/Xv39/06Ju6elSXjzQEEEAAAQQQQAABBBBAAAEEEEAAAQQQQKA2C6y+S2vb5qJQ13+xna2YV2ELY+GVxvEqW6XMypqUVSJIrARrvVc72/LszpXmU7BWMafCSurWsfqxZdVtsLyKTTPPnzrfPruwvy2aWRF8NllwFLyZ5onCsI/P/CQWniXvhnLxwsVuvxbNXxQLk+pag+YNzEpK4pY46ZvJNvjqQcE0jbHW9ZYdrbR+/HZrhoVzFrp9szol1qBZWdw8Q3p9HRuH7Q+3nMSQK9zlo19Rsq4ff+87zr7rtbxntWQumQI1v/xMj2M+/N1G3Pudmy1ZoJbp8/79Pid+aIsUqhVxI1CLdvAI1KJ5VWnudu3auUArvJBevXqZ/mXbqhKoJY7jpnUq0Bs3blkfudluA/MhgAACCCCAAAIIIIAAAggggAACCCCAAALFJpAsUMu0D7+8Pdp+fHSklcT+L9zWOzFWzXVwfDVX+P3E5wqkBlweq2L7bW7cW8mCo7gZkrxYsmixDbl7uE3+q9Ktbosy27N3tyRzpp40ZcQ0G3z9oLiqMM3dYptVbbvLtorr0jL1Upa9EzVQ06cSu37UtK9uG2JTBkzU06SVe/kI1Kb+sGy/fQUfgVp85aHD5z8pBQjUUtJUzxt33HGHHXrooXELjzKGWa6BWrIx3KhOizsMvEAAAQQQQAABBBBAAAEEEEAAAQQQQACBWizQYstW1vnMzaxBrPvD8BhoibtcEavqmjh4oo3vP8GmDkzd9V+TDZpZh73aW9sdW1u9RsvHNguWFxura9a4OTamz1j746OxtiShG0bNlylQU3i2cHaFVcytsHlTFtjEYZNt8sCJcV0wqvvFHW/uEtuvBsm3468NWrJ4iU35bqqNHzDB/uz3hy0tX9bVY7C9fz3R8tru0dbadW1rTTs0sdJ6pYmz2OLyRbZgernNmzzffn7xl2Actmwq1LSwZF0/qlLwk398ZhXTypO6RA3UXPVhrGKwYlaFzRg90/786k+b/vVUNxae3yECNQI1fy5k80iglo1SHudRd4saS61p06bBUtX1o0K16qoUU2XcO++8E9fV4+zZs93YaVo3DQEEEEAAAQQQQAABBBBAAAEEEEAAAQQQWJkEFBqVxf7ViXXLWLdhXVu6ZKnr0rBi1kJbHAtg1AVklFbauNTKmte3erF/i8tjIVgsbFo0M9aV5KJoy4myzmTz1mlYx8pa1F+2X7F9q1O3xHXXuHjOIls4szwWokXbnpJ6sS4eWzey0phR3fqlVh5bRnks2EsWDibbHqbVbAG6fIx2fAjUonnlZe4999zTHnnkkbhljRgxwk4//fS8h2oK07QuVaiFm9bVp0+f8CSexwSOP/54F3a++eabNnbs2FphstFGG9kee+xhEydOtJdffrlW7BM7gUAxC9Tk76SuFdq+oUOH2hdffFEjmbt162YbbrihDRkyxAYOHFjt26gfwhx33HFuPQ899JAtXrx8gORqX3mBV6D/rbD77rvbn3/+aa+88kqB187qEEAAAQQQQAABBBBAAAEEEECg0AIEatHECdSieeVt7mRdP6pa7KijjjKFa/loujH2/PPPx1WmabnF1tVj69atbfPNN7fVV1/dGjRoYGVlZe6GZnl5uc2dO9e+//57++67ZYNIVtXtkksusRYtWtgTTzxhP//8c1UXV9DPn3jiiUEY+NtvvwXr3mqrreywww5zAeGDDz4YTF8RT1q1amWNGjWymTNn2speHdmmTRsrLS21SZMmmc7lZK179+4u3FBw8PnnnyebJatp+VpOVivLMFOhzwGFISeccILbqgceeKDaw5AmTZq4a8iCBQts8uTJSTVy/U4WYl90rdD2ffLJJ/b+++8n3f4VPfHwww+3Lbfc0vr161eQH4Y0b97cLr30UrfbV199tS1atGhFE1Tb+rfZZhs75JBD7PfffzeFhzQEEEAAAQQQQAABBBBAAAEEEKjdAgRq0Y4vgVo0r7zO/eijj5pudCe2Xr16udAr18BBN11PPvlku+CCCxIX7X5xftFFF1WaXlMn7LvvvrbDDjtYnTp1bN68eS5Aq6iosPr161vjxo1dwKag4e23387LLhRzoKYbvrrx27t3b/vpp58Cj1xv3gcLyOOTv//977bZZptZ37597YMPPsjjkotvUVdccYU7hxVw//LLL0l3IF/hRr6Wk3QjI04s9DmggFzfa7VChCHbb7+9HXjggabxLhMrkT1Vrt/JQuxLTTpXvFfiI4Faokj+XhOo5c+SJSGAAAIIIIAAAggggAACCCBQDAIEatGOEoFaNK+8zq3gS5VqyUI1hWnXXXedCx2yDda0PC3rmmuuqVSVpg1XgKEwLdvl5XVnc1hY27Zt7ZxzznGffOmll2zYsGGVlqKKtbp169qcOXMqvZfLhGIO1HQjVEGjKvZmzJgR7H6uN++DBeTxSaHDlDxuet4XlU2gtv7667vKTI2vGK46jLox+VpO1PUmm7/Q54C+E/puqKkLwyVLkg+2m2xbc5lWnYFaIfaFQK3yUadCrbIJUxBAAAEEEEAAAQQQQAABBBBAoHYIEKhFO44EatG8qmXuZN0/hleksc7U9ZZuqs+ePTvoElJdOjZt2tQ22WQT69Kli2lstlSt2Lp51H7suuuuttdee7mxXO65555Uu5bX6cUcqKWCIFBLJbNip2cTqK3YLayetRc6UKuevUi91OoM1FKvNX/vFEOg5reRLh/zd9z9kvzfC7p89CI8IoAAAggggAACCCCAAAIIIFC7BQjUoh1fArVoXtU2t8IwBWsKyPLZFMCpKk2hXLE1dfe400472ciRI+3pp5+OtPl77723G6urf//+boyq8IfVfeTBBx/sJr333nuuG0n/vg/UtL4OHTq4fxrzS2PmyHL06NE2dOhQ1/2k/4x/XGuttVx3hhrrTZ9R5dzChQtNYympC0ZtS7ituuqqLgjVGHGaX9ulSjuNL/bnn3/ap59+Gsy+9dZbm5avKj11fdm1a1fTGFwa5+3dd9918/Xo0SPY54kTJwaf9TdIVeGkKkWFry1btgwq+6ZNm+b2SV3UJWsbbbSRde7c2VU9qptNXWRV5fjtt9+6cHfp0qXJPhZMW2211dz2asI666zj1v3HH3+Y/pWUlLj5FBZ/+eWXwWfat2/vqorWXHNNN2aebBYvXux8dKN3wIABbjuCD6R5ouOoCqUpU6a4cYFkqWOkah/ty9SpU926x44dW2kpBx10kNtvzat/9erVM3U5quOksQ6/+uqrSp9Jd6x0DOSptsUWW7hj8OOPP7pzy1voGOs8U9N267hrnsRxAqOcP6mWo2V7G21b2Ebnmc4NHZdkNjvuuKOtu+66zkU2GttQ3xOZav6PP/7YWWk/cjkHZK1zV+vQdVHr0JiJOl6DBg2y8ePHa9EZm85ZXQ/UXn/99bgx1Pyxkq/2Vz9O0LZqfTrGOi91rmm9mZrGnVLT5+Wqz//www/BOa5x8nzXtP47KSeNc7nddtu5z+l76cdeU1e24e+xlp1uX3T+6EcWnTp1cmO4NWzY0K1b69UytR/ZjAvpw6pkY6jlckyinCfaR9/WW2899x1RN5faF11/dexHjRplG2ywgW277bZJx1CLuo269ur8kNM777xj2t4NN9zQdZ/72GOPuetxuELtzjvvdNczXZt0TspW12xVBuufrlOJTWOA6rjoO6vtU9N3Zfr06e6Y6HxOrJzU/utare+V/37pc9pOjc2n75c+H27+WqfzVtcL/SilY8eObpvC3Y/q+ie/NdZYw51TWqZs9Z3SdjGGWliV5wgggAACCCCAAAIIIIAAAgjUbgECtWjHl0Atmle1zq0uG9Vd46GHHpqX9agqTeOxFUsXj4k7vfvuu7suLH/99VfTeHNRmg/GnnjiiUo3kRV0XX/99W5xPXv2jLsp6T8nM4U4CmF0w1Q3XXUTUl1MqjvFBx980N3g9dvkq+kUoGk8LN381Q1u3ZjXP904f+utt/zs7ob3ueee624UT5o0ya1HQY1uHuufbnDqxq1v/ia3wjzdnC0tLTUFWV9//bWpO0y1TGOoKRTQzVntk/ZPy9C26aaqmkLXfv36uef+P76aSPuj4yAL3dxWMKab+4MHD7ZXX33Vz570sV27dm5MKb2pfZOllhc+L2WmKkw1BU7HHXec89N03ayWjT6nZSl00I3ku+66y938dR9K8x8fXmg52mbdOFbYofOgWbNm7sa5Pq7joy4Bw+38888Pxu9T4KLWpEkTtx06vsnG70t3rBRa6Ua2mm7I6xjoeOh4+6YgVWGlml9WYrghx1zOn8TleBsdC/l6G22XbLQetWQ2CqUVdum8ko2OkXx1jBQaKDC9//773Xka9RxQgKD9a9WqlQuXFTBr+domnXs6dqm6gXUbHPqP9kHfa7XEMdS8rwJMfb/13da5oe+5upzVfmjd2o9kQUloNUH3tDJQAKNjqmPrm/7Hia7Jat5d7+t7rH9ar645+j7qO6b91fU7HJqk25cTTjjBBUH6bml/tD5933W+6nv+2WefueuF355Uj94k8VzJ9ZhEOU/8NinU2m+//dz3W+GQzi+dkzpGstV3WY+6XoV/LJLLNvqwTP66Tiv4UlPApWuwQmU/j6bru+LDMD3K13+XFczqxxjhcExh3S677OKOp35Yoe+LjrfOE4VmOte++eYbe+GFF7T4oOkc2WOPPdxx1P7r2qt5dX7oeGqa/g7pO+ubP68U5Or81XxqOq9vu+0291w/VjjttNOc54QJE5yltkffNQV+On+0v1SoOS7+gwACCCCAAAIIIIAAAggggECtFyBQi3aICdSieRVkbt18Pvnkk113h7opFqXpF+YKJnTjVjcii7ltuummdvTRR7ubj08++aSr8sp2f3wwlmugphufzz77rLsJ6tepG6BnnHGGu+mo6oAPP/zQv2VXXXWVuwn+8ssvu2qv4I0UT3SzWDeNdeNTN2B1QzPcFBjoZq1v/ia3pr344osutNMN1nDLFKhpXlVcqMIj3PzNawUGGrfPr1c3e3Ue6vWtt94aV6WjG68XXnihC71001+hYDbNB3R9+/Z11XLJPiNjVfjoPNZN/XBTwKGgRVVA2Vr7m8xajoJZBYPh1q1bN/vb3/7m9lNBq9//8DyJz1XZpOBbf3BuuOGGuLezOVb6QDZdPvplJYYbuZ4/icvJZKMb+vonk2xtFHiqKlaBo7pqVSAVbtmcAxoLUoG6Qrn77rsv/HEXSCqkUQBy0003xb2X7EW6EMr7quJHFTzhSjR9ToGqQqmHH3446zHsonT5qODlgQcecPvpt13rO/30010FqipK9V3xLdW+qMr1vPPOc6Gfvo/hkMV/NttHb5J4ruTzmGhb0p0nl112mQtP33jjjbjKVX1OoZquAbpGJgZquWyjD8t0/dO1UeGxAqhwgOrn0foTr/2apmphjfepcz58jVXAp++5tlXhlwK7cJPBxRdf7K7/t99+e1x4Gp4v/Dx8DVTFo0J93/z3WduuikT90/ck/PfliCOOcJV/w4cPd9WR/rN6DC+bQC0sw3MEEEAAAQQQQAABBBBAAAEEaq8AgVq0Y0ugFs2r4HOrCy91+7TDDju4yg//63m/IeoOUcGZKmsGDhwYjK/m3y/mR92c1E1K3axU081nHyKpEkw3wfUL+48++igu+NK8VQ3UUoU1Bx54oOmGubr7e+aZZ7Qqd8P92muvdc9vvPHGuJvybmKS/yioUmCl7hpVOZKp+Zvc4fUmfiZToKZKF1XkJTZVWFx++eVu8r333utM9ULdSqobSVVL/e9//0v8mJ155pmuS8znnnuuUneElWb+a0I2YYqqNHUjOtkNaC3G3xBWJZe67MzU/E1mVZbccsstlWYPhxTh/a80Y2hC+DMKU8M337M5VlpUVQK1XM+fxJAkk004SMjWRvvmz0UF+6oyDLdszoHjjz/eVSomC1R001/fN10fsvm+hY9Vqgo1XT/DFaR+e3X90Y8aFGKrGjSbFiVQU9iYbHzIffbZx3beeedKFaCp9kVVnTJTF5F33313NpuZch5//iaeK/k8Jn7lyc4TBYqZrqdHHnmkq9RNDNRy2cZszvHwPKr0UuCW2PQDAwX94ZBL547OIVUb6rqWrPnwsHfv3ln/aOTwww+3Lbfc0oWtCl19899nhWj6EUT4uuTnOfvss93/lkh13Vb3o+rqlkDNi/GIAAIIIIAAAggggAACCCCAQO0WIFCLdnwJ1KJ5MXeBBXTzXDeo1U2VusTUL/11I11dWfnurMbExv4Kjw+jTaxqoJassk3L9RU76tpLVXO+6Ua9uuPSGE3JxtXy8/lHVVgoKFR3ieo2MVNLdZM7/Dl/czrxxqy/yarqCIVUyZqv9FHXdn5sKj+G3ZAhQ+yVV16p9LFTTjnFdfmXrDvASjP/NSFTmKIgzd941piCySptfHWWAg4FHZlapv33wYyWE97/dMsN32DX9uqGuW/ZHCvNW5VALV/nTyYbbWeyc0PT0zX//dN3RN+VcMt0Dmhev3+pgu3//Oc/rntEhUeJ44yF16XnqUIovZfpWJ111lnu2qPzX9+DbFqUQC3Vd3KvvfZy419pPD3fpavWnWpffIWaKglV8ZZYFZjNdvt5Upnk85j4dSU7T8LXAFV/JvsfdT5QSgzUctnG8Hc5MXD125nNPOpGce211477kYQPOlOF+Vq+Kgt1/LL9W6DPqDpWVbL6MYYfQ1PTs/k+eyNVYGvMt8SmMRUZQy1RhdcIIIAAAggggAACCCCAAAII1F6BZPdeau/eVn3PCNSqbsgSVpCAKjhUyaGWWDXgb9QmC8YUymUaQy3Z57SeVIGavwGueVRFpwoGVdSpUkC/9Ff1oMa88c3f1Mz2Jmqqm9x+eXqsrkBNY+qoGjCx6Sawxnoq9kBN+5UqNFIV4RZbbOGCDAW4GuNKTY+6ya62sgZq6q5OY0Mp5NHYZvpe+SYbGVU1UFNXovoOJTaNo6ZGoLasW1iFwgp0Onbs6Fz0ndU/XYMU5qhrWY2/qNeZWqprjb9mRT0mUc+TfARqUbYxm7Asm3mSBWqqKNd4kNkEaq+99poNGjQoODyq1FO3p+riUt8v/WDDN3U/LCcCNS/CIwIIIIAAAggggAACCCCAAAII5CpAoBZNjkAtmhdz1yAB3XBUd3ulpaX/396dQMlSFfYDvoCIIi6EXRBFVhdQBEVwARUwiKIgaBJF1BgggBhFE0mIEQwuhyiIoGAMKiSIxsSILLKDImpU1IjgAkQEFVmUfRPwz6/+uWO9ft09XdPzhjevv3vOvO7pvrXc71bVnHN/71YtNHA/14FaWPLMt/zUmXQJYDIQmpJZX5k5Up9lUwen50OglltF1llrTWN6/skMuzxzbpQy3eyk9mD6XM1Qy373C9Ryu9U8wy+zzzIbLoPitf8SJOaWmCmTGKglYMgxvPzyy5c8i+mGG25Y4NlzsYnRuIFabmfb7/Z6DfwD/5x66qnl5ptvrr/2fR00qyuVB4VHdUXzZYZa9jfXw9yuL6FaDX9XWmmlqSAmz9OK13RlkEm9ZnXpk5kcJ+1rwExnqHXdx/xnhJTZnqE2TqBWvfPMx8xkrLc7zn7m70xmOAvUoqEQIECAAAECBAgQIECAAAEC4wgI1LrpCdS6eam9mAkkzMgAbJ7xlWd91fJgBGp12+3XDG7vueeezUeHH3741EyvOlg6HwK1Qbd8bLdz1PfzKVDbeeedyzOf+cxy2mmnlQsvvHCBJrZnrExioJZZe3mWXWY+HX/88QvY5Jd6/o0bqA265eNCGxzywaQEaoMIMstpu+22a2b61eB4UN18Pl2g1qVPZnKczEag1mUf2+fy4hKo5T9lvPOd72xud5nbm9Ygv/abWz5WCa8ECBAgQIAAAQIECBAgQIDAuAICtW6CArVuXmovZgIHH3xwyXPWjjzyyAWeG1QH9PvdunHYLR/333//svrqqzchQcKC3rL99tuXbbbZppmVc9JJJ/V+3ff3Aw88sJkxkue8/eyB572l1JkvX/ziF8s3v/nN5rNh/wwa5G4vM+iWj095ylPKa17zmvLLX/6yHHXUUe1FmveZ4ZeZICnt0G+HHXZoZmFlBtKobW1WMuSfV7/61eVpT3taOf/888uZZ565UM3sS/o0twts70u74ste9rKy5ZZbNs+06vdst3bdvK/PFRrU/vbx0N5mvYVbb1ibdbYH4WcaqNXj4rjjjiuXX355VrtQGdTvs3X8TGcz6Niotz7NsZtjuLfU869foDbdMZB17bvvvmXNNdcc+ZmEvdtv/z7XgVpmib3iFa8oV111VTn22GPbuzL1vrrP1jPUplbc580qq6xS3vrWtza3ezzooIP61Fjwo0HH3Ez6ZCbHSa7nuQakdJ2hNpN9bJ/LgwK1zLbMbOiU7Nvdd9/dvG//s/fee5e11157gWM2t4x94xvfODTMrH9z8qy8PDMvJbc0fdOb3tT8B4xck3rLOIFavXZ4hlqvqt8JECBAgAABAgQIECBAgMBkCgjUuvW7QK2bl9pzKJDnAqX0/u/8ugsZvMwgZm6FlYHXdr06aNgvsGrPGjvssMNKbmlYSx3s//KXv1y+8pWv1I+nXvM8nNzG6+yzzy7nnnvu1OeD3uSWeAm6cju29nPeMrsnszcuuuiicsoppwxafOrzQYPcUxUeeDMoUMtt3w444IByzz33lHe/+93tRZr3uXVYZszdd999ze0L63OWNttss5KB29xS74gjjug7iLzQyqb5IDNlMmMmA8cZQO5X3v72t5c8d6lfGJr6r3vd68pGG200ch/U8CK3bkz728dJ1pfgJgPxve3fbbfdyqabbtr3GXErr7xyedvb3pbFZ3zLx8xczLGYUDCzAPuVQf0+W8fPTG3qsXHJJZeUE088caFdz+yazLLpF6iNcgxU+8suu6yccMIJC62/ywdzHajVECW3qsw5369U97kI1NZff/3yhje8obnO5Xo3XRl0zM2kT2Z6nNRrQI6tHGPtkmtprme5rWVvMD+TfRwlUMv26zH9sY99rLkFY3uf8rcqgVuec9b+jxN1plmuqbn23Hvv/3/mXV120HL1mL399tvLoYceWqtPvda/UzO55WMN4/Jcz5NPPnlqnfVNvb7m2Z/HHHNM/dgrAQIECBAgQIAAAQIECBAgsIQKCNS6daxArZuX2nMosM466zT/uz+BTn4SfOU1s2YSEmWgOIOruR1fbsvXLnV2VS4I+f66664rGbzMM8023njjZiZB6vcGapnNledmJaRLaJbl8v4Rj3hEWXfddctznvOcZlD0wx/+8AJBXGauJai58cYbyx133NHUyayGzTffvNnPX/3qV+UjH/nI1C5mllYGRRPiJFS79tprm9t7ZQA2g6n5+dznPtfMKslCgwa5p1b4wJtBgVrq1FtMJqDIM89uvfXWkplZ8UjAteqqq5beAda0OUFTBpzzjKyEYAkJMnssgVJ+8t3RRx/d3o2h7/Psn/pcstNPP73EJSUDzgkXUl7+8peXLbbYopmdkVls2Wac0tcJKzLrJSWecZuu1PAi9a644oqm/bfddltzHKX9W2+9dRPg9bY/fb3jjjuW3/zmNyX7mtfMnslAfm4FucEGGzSbnukMtZ122qk8+9nPnlp/ju20Ma85jlIG9ftsHT+DbNLHsdnmgdmYCTd7bWoIm4AggXBm/6WssMIKTR9lBmHOt36B2ijHQD33c67nGVKXXnppc8zmmMy5n2MvTl/4whea7Q77p4YTqdM7A2mQb11fDeaHhZ61bn2NQcKXGCbwyPMF6zWkPmuwus9WoJbjMsdTjtH85BqUkutJ+jBm44b3M+mTmR4nNRhLW2KY15Scezn2sy+5fp3fM9N1Jvs4aqBWZ8Zef/315ZxzzmmuS7luZZ9ync9/tMj1LM/KzPWqlswOzCzBzHhOHyQkS8nfh1xH0p4cyx/60Iea5zXW5XKsJqBL+3P85z8E5D9oZAb1C1/4wqnvcm2qZbrjKvVqyJlz97zzzmv2Oe+zP/FLW2IrUKuqXgkQIECAAAECBAgQIECAwJItIFDr1r8CtW5eas+hwFprrVX22GOPZqAvg9PtkoHMBC1nnXVW+f73v9/+qnmf5/DssssuJYP3GdhPSeCVZRJU7bXXXs1nvYFaPsyAYgahEyS0S5b/xS9+UTJ77corr2x/VfbZZ5+S/e0tGQRNiJXA75Zbblng64RwCR6yr70ls8ky664OzE438J/lhwVqCSIyMyGBVAZL2yWD/QnZEiBmu+2SgfgEWHHsXS4X2wQ/GUDuUl784heX5z73uU2gVZdrz3RKXydUy0BzAqbeEscEbRdffHHvV31/r4PMCQXT/zFol0Htz3GTkCKD3u3jL32a/sw+psw0UEu/55lyCYbrMZr1ZdZIAqyUYf0+G8dPtUk/JrDuZ/Otb32rCRB6j40sG4OEObXkeE39zB5NmNIvUEvd6Y6B1Mm+5DzMIH/bJ+dhAtEcM1/60pdSdWiZ60AtO5NgPn3XPrfbs42q+2wFatlOZki1j9OKEquE4WecccZUQF+/6/c67JibSZ/M5DjJtSa3zdxkk00WuO7k3M/tUdPOzPDtDdTSnq77OGqglmMwAXtmrSZ8apcc9wnMcl1oz3hOnYSaCQhzHPfrn4TROecTYLVL/p7kPx9k/2rJsZ9biSbUy3VpJjPUsq78Z4Ftt912geMz18FrrrmmWX+u+QK1qu6VAAECBAgQIECAAAECBAgs2QICtW79K1Dr5qX2gySQAczM/MjAcWZX5Seh2nQl9TPTJgOZCQ0ShoxaslxmBGRwN/+DP7Mk+j07p64v4U/2M8tkZk0GsvOTZQeVDNJmtk1mIqTUZbrs56B19/s8+5h2ZXsZnM1MlgwA5/2wkvbEP7MxMvCage3egGXY8r3fpd0ZKE7Ql31Iu3vXl20mDEkf5n36O/2e2RxdSm94kbYnLM0xMUr7s68xy76m3dmH2Sw5vrI/CaYSukx3zLS3Pe7xM51NnRnU3mbv+xwX8YllAsvpjqW6/CjHQOrmmM1xl3MrPumDGjTXdS2ur9nv2OTYTr/GaFGWHNtxyrEao3o8jXKt7LJfM+mTmR4nCaTimOt3rj2jlpns4yjrznUj16VY5336NmH9dMdk6qcduZ5ludTPtXe6YyLL5VpZ6w/7ezLK/rfr5FhJW3Js5rxSCBAgQIAAAQIECBAgQIAAgckTEKh163OBWjcvtQkQmGcCvaHRPNv9Rbq7bBYpr5UTIECAAAECBAgQIECAAAECBAgQWKwFBGrdukeg1s1LbQIE5pmA0Ghwh7EZbOMbAgQIECBAgAABAgQIECBAgAABAku6gECtWw8L1Lp5qU2AwDwTEBoN7jA2g218Q4AAAQIECBAgQIAAAQIECBAgQGBJFxCodethgVo3L7UJEJhnAgmNdtlll3L11VeXY489dp7t/aLd3di88pWvbGyOOeaYRbsxaydAgAABAgQIECBAgAABAgQIECBAYLESEKh16w6BWjcvtQkQIECAAAECBAgQIECAAAECBAgQIECAAAEC815AoNatCwVq3bzUJkCAAAECBAgQIECAAAECBAgQIECAAAECBAjMewGBWrcuFKh181KbAAECBAgQIECAAAECBAgQIECAAAECBAgQIDDvBQRq3bpQoNbNS20CBAgQIECAAAECBAgQIECAAAECBAgQIECAwLwXEKh160KBWjcvtQkQIECAAAECBAgQIECAAAECBAgQIECAAAEC815AoNatCwVq3bzUJkCAAAECBAgQIECAAAECBAgQIECAAAECBAjMewGBWrcuFKh181KbAAECBAgQIECAAAECBAgQIECAAAECBAgQIDDvBQRq3bpQoNbNS20CBAgQIECAAAECBAgQIECAAAECBAgQIECAwLwXEKh160KBWjcvtQkQIECAAAECBAgQIECAAAECBAgQIECAAAEC815AoNatCwVq3bzUJkCAAAECBAgQIECAAAECBAgQIECAAAECBAjMewGBWrcuFKh181KbAAECBAgQIECAAAECBAgQIECAAAECBAgQIDDvBQRq3bpQoNbNS20CBAgQIECAAAECBAgQIECAAAECBAgQIECAwLwXEKh160KBWjcvtQkQIECAAAECBAgQIECAAAECBAgQIECAAAEC815AoNatCwVq3bzUJkCAAAECBAgQIECAAAECBAgQIECAAAECBAjMewGBWrcuFKh181KbAAECBAgQIECAAAECBAgQIECAAAECBAgQIDDvBQRq3bpQoNbNS20CBAgQIECAAAECBAgQIECAAAECBAgQIECAwLwXEKh160KBWjcvtQkQIECAAAECBAgQIECAAAECBAgQIECAAAEC815AoNatCwVq3bzUJkCAAAECBAgQIECAAAECBAgQIECAAAECBAjMewGBWrcuFKh181KbAAECBAgQIECAAAECBAgQIECAAAECBAgQIDDvBQRq3bpQoNbNS20CBAgQIECAAAECBAgQIECAAAECBAgQIECAwLwXEKh160KBWjcvtQkQIECAAAECBAgQIECAAAECBAgQIECAAAEC815AoNatCwVq3bzUJkCAAAECBAgQIECAAAECBAgQIECAAAECBAjMewGBWrcuFKh181KbAAECBAgQIECAAAECBAgQIECAAAECBAgQIDDvBQRq3bpQoNbNS20CBAgQIECAAAECBAgQIECAAAECBAgQIECAwLwXEKh160KBWjcvtQkQIECAAAECBAgQIECAAAECBAgQIECAAAEC815AoNatCwVq3bzUJkCAAAECBAgQIECAAAECBAgQIECAAAECBAjMewGBWrcuFKh181KbAAECBAgQIECAAAECBAgQIECAAAECBAgQIDDvBQRq3bpwiQ3UHvawh5Wlllqqm4baBAgQIECAAAECBAgQIECAAAECBAgQIECAAIElXOD3v/99ueuuu5bwVs5u85bYQO2hD31oWWaZZWZXy9oIECBAgAABAgQIECBAgAABAgQIECBAgAABAvNc4L777iv33HPPPG/F3O7+EhuoPeQhDynLLrvs3GraGgECBAgQIECAAAECBAgQIECAAAECBAgQIEBgMRf43e9+V+69997FfC8Xr91bYgO13O4xt31UCBAgQIAAAQIECBAgQIAAAQIECBAgQIAAAQIE/r9Abvd49913l7wqowsssYFaCHLLx9z6USFAgAABAgQIECBAgAABAgQIECBAgAABAgQIECjNrR5zy0elm8ASHaiFYrnllitLL710NxW1CRAgQIAAAQIECBAgQIAAAQIECBAgQIAAAQJLmMD999/fzE5bwpo1J81Z4gO1KOZ5avnJbSAVAgQIECBAgAABAgQIECBAgAABAgQIECBAgMAkCeT2jnlmmuemzbzXJyJQC0/CtBqqZcaacG3mB40lCRAgQIAAAQIECBAgQIAAAQIECBAgQIAAgcVbICFaZqTVMM0z08brr4kJ1MZjsjQBAgQIECBAgAABAgQIECBAgAABAgQIECBAgMCkCgjUJrXntZsAAQIECBAgQIAAAQIECBAgQIAAAQIECBAgQGAkAYHaSEwqESBAgAABAgQIECBAgAABAgQIECBAgAABAgQITKqAQG1Se167CRAgQIAAAQIECBAgQIAAAQIECBAgQIAAAQIERhIQqI3EpBIBAgQIECBAgAABAgQIECBAgAABAgQIECBAgMCkCgjUJrXntZsAAQIECBAgQIAAAQIECBAgQIAAAQIECBAgQGAkAYHaSEwqESBAgAABAgQIECBAgAABAgQIECBAgAABAgQITKqAQG1Se167CRAgQIAAAQIECBAgQIAAAQIECBAgQIAAAQIERhIQqI3EpBIBAgQIECBAgAABAgQIECBAgAABAgQIECBAgMCkCgjUJrXntZsAAQIECBAgQIAAAQIECBAgQIAAAQIECBAgQGAkAYHaSEwqESBAgAABAgQIECBAgAABAgQIECBAgAABAgQITKqAQG1Se167CRAgQIAAAQIECBAgQIAAAQIECBAgQIAAAQIERhIQqI3EpBIBAgQIECBAgAABAgQIECBAgAABAgQIECBAgMCkCgjUJrXntZsAAQIECBAgQIAAAQIECBAgQIAAAQIECBAgQGAkAYHaSEwqESBAgAABAgQIECBAgAABAgQIECBAgAABAgQITKqAQG1Se167CRAgQIAAAQIECBAgQIAAAQIECBAgQIAAAQIERhIQqI3EpBIBAgQIECBAgAABAgQIECBAgAABAgQIECBAgMCkCgjUJrXntZsAAQIECBAgQIAAAQIECBAgQIAAAQIECBAgQGAkAYHaSEwqESBAgAABAgQIECBAgAABAgQIECBAgAABAgQITKqAQG1Se167CRAgQIAAAQIECBAgQIAAAQIECBAgQIAAAQIERhIQqI3EpBIBAgQIECBAgAABAgQIECBAgAABAgQIECBAgMCkCgjUJrXntZsAAQIECBAgQIAAAQIECBAgQIAAAQIECBAgQGAkAYHaSEwqESBAgAABAgQIECBAgAABAgQIECBAgAABAgQITKqAQG1Se167CRAgQIAAAQIECBAgQIAAAQIECBAgQIAAAQIERhIQqI3EpBIBAgQIECBAgAABAgQIECBAgAABAgQIECBAgMCkCgjUJrXntZsAAQIECBAgQIAAAQIECBAgQIAAAQIECBAgQGAkAYHaSEwqESBAgAABAgQIECBAgAABAgQIECBAgAABAgQITKqAQG1Se167CRAgQIAAAQIECBAgQIAAAQIECBAgQIAAAQIERhIQqI3EpBIBAgQIECBAgAABAgQIECBAgAABAgQIECBAgMCkCgjUJrXntZsAAQIECBAgQIAAAQIECBAgQIAAAQIECBAgQGAkAYHaSEwqESBAgAABAgQIECBAgAABAgQIECBAgAABAgQIhhCZMgAAJl1JREFUTKqAQG1Se167CRAgQIAAAQIECBAgQIAAAQIECBAgQIAAAQIERhIQqI3EpBIBAgQIECBAgAABAgQIECBAgAABAgQIECBAgMCkCgjUJrXntZsAAQIECBAgQIAAAQIECBAgQIAAAQIECBAgQGAkAYHaSEwqESBAgAABAgQIECBAgAABAgQIECBAgAABAgQITKqAQG1Se167CRAgQIAAAQIECBAgQIAAAQIECBAgQIAAAQIERhIQqI3EpBIBAgQIECBAgAABAgQIECBAgAABAgQIECBAgMCkCgjUJrXntZsAAQIECBAgQIAAAQIECBAgQIAAAQIECBAgQGAkAYHaSEwqESBAgAABAgQIECBAgAABAgQIECBAgAABAgQITKqAQG1Se167CRAgQIAAAQIECBAgQIAAAQIECBAgQIAAAQIERhIQqI3EpBIBAgQIECBAgAABAgQIECBAgAABAgQIECBAgMCkCgjUJrXntZsAAQIECBAgQIAAAQIECBAgQIAAAQIECBAgQGAkAYHaSEwqESBAgAABAgQIECBAgAABAgQIECBAgAABAgQITKqAQG1Se167CRAgQIAAAQIECBAgQIAAAQIECBAgQIAAAQIERhIQqI3EpBIBAgQIECBAgMBcCqy00kpl6623bjZ54YUXluuuu24uN29bIwi86EUvKo9+9KPLtddeWy666KIRlhityrjr3WSTTcp6661X7r333nLyySePttFZqvWoRz2qPOc5zylrrrlmyfull1663HnnneWkk04qN9544yxtZW5Ws+yyy5aXvexlzcZ+8IMflJ/+9Kdzs+EZbGWNNdYoW265ZbPkeeedV37729/OYC0PziI777xzWWqppcpPfvKTcskll8zpTjyY58qcNnSajfl7Mw2QrwkQIECAAAECBKYEBGpTFN4QIECAAAECBOa3wCqrrFKWWWaZphG33HJLueOOO6Zt0IorrliWW265ZtD/5ptvnrb+XFV4whOeUPbZZ59mc5/4xCeawea52rbt/EFg3XXXbcKh++67r3zta1/7wxcPvPurv/qr8tjHPrZcdtll5ZOf/OQC343zy7jrTQj0vOc9r9xzzz3loIMOGmdXOi0bi3333bckiErJOZifhz/84eXTn/50Ezx2WuGDXPlhD3tYOeSQQ5q9OPXUU8sFF1zQaY8e8pCHlK222qpZ5sorryzXXHNNp+W7VH7KU55S9thjj2aRI488cpFuq8t+jVL3/e9/fxO8Jgg8/fTTR1lk1uo8WOfKrDVgllbk780sQVoNAQIECBAgQGACBARqE9DJmkiAAAECBAhMhsDf/d3fNTOG0toMXh911FHl/vvvH9r4v/iLvyjrr79+ufjii5tZNEMrz+GXi3KAc+ONN54a6D/hhBNGCh7nsOmL1aaGDbiPG3wNaui46x22z4O2ORuf77fffmXttdcuv/71r8vxxx9frr/++tlY7ayvI7Nxdt1112a955xzTrn88sv7bmPcQG3c5fvu1IAPBWoDYKb5+ME6V6bZrTn/elH+vZnzxtggAQIECBAgQIDAIhUQqC1SXisnQIAAAQIECMydQDtQy1Yz2yGzHoaVSQzUMnspA8kp73nPe8qtt946jGiivxs24D5u8DUIdtz1DtvnQdsc9/Pcsu/QQw8tmZV1xhlnlARVi2vJTLoYp5x44onle9/7Xt9dHTcQG3f5vjs14EOB2gCYaT5+MM6VaXbpQflaoPagsNsoAQIECBAgQGBeCgjU5mW32WkCBAgQIECAwMICNVDLs6MysP+73/2ufPjDHx76/DGBmkBt4SPpD5888pGPLCussEIz0zEzr9pl3OCrva72+3HX+2CEBHleWr295H/+53+Wb3zjG+0mLVbv5ypQS8i4+uqrN23PrS9vv/32ReYgUJsZ7YNxrsxsTxftUgK1Retr7QQIECBAgACBJUlAoLYk9aa2ECBAgAABAhMtUAO1POtq0003Lcsvv3y56qqrykc/+tHy+9//vq/N4hqoPf7xj2+eR5Wdnu1nqJmh1vdQ6PzhuMHXoA2Ou94HIyR49KMfXXL+pQjUBvXsovt8Pgdq733ve5v/AOEZaovu+JhuzYvy78102/Y9AQIECBAgQIDA/BIQqM2v/rK3BAgQIECAAIGBAjVQ+/KXv1xuvvnm8upXv7qpe+qpp5YLLrig73LTBWorrrhi2Xzzzctaa63VzFTKzLeEc5n9llsl/uIXv2hm43SdffKIRzyibLbZZuVxj3tcs97llluu/Pa3v22eO3X11VeXzGh585vf3Oxzb6C2xhprlOc+97kly7R/7rvvvnL33Xc36/jOd77ThIm10euuu27ZaKONml/TlvyekplEWaaWzO7LLftSll122bLTTjstsI1sL+Wee+4pN910U/nxj3/cPH+u+XDEf/IMtyc/+cnNeh/60IdOvcb0rrvuKtdee2356le/2vRhXWWec7fBBhs0v6Yvb7vttvrVAq/rrbde2XDDDUu7HTPxqitNUJHZG7HNcdUuw4KvmbSxrruu94c//GE5++yzm+MkM50e/vCHTx131113XfnWt75VfvOb39TFpl5HCdTS/9nHzCzLT541mOP5hhtuKN/85jf7rndqA//3JufGVltt1fyW4+LZz3528/6nP/1p+eUvfzlVPcfKWWedNfV7+vxZz3pWySB+1pFzKrO5av//6le/Kjl+cxz0luc///klswZ/9rOflUsvvbRsscUWzTMQV1555fL1r3994My49r5mxmHOvZTLLrtsoRmsOfZy/vXesjHHepbLDLf0RY6xXGeuuOKK8u1vf7v5vb2/OX+23377qe1ceeWV7a+bwP9JT3pSyTGbfco1Yemll27OgZwH+fmP//iPxmWBBfv8MkqgtsoqqzTXsj/6oz9q+jzuaWd+vvvd7zamvase9xqQbTz1qU9tzsn0W/6TQz3OMuMz233Xu97VXAMGBWoz2e+cL7WPzzzzzPKYxzymbLnlls11PMfq4Ycf3jS1niuxPuyww5pjOM8BTP+mL7KvuS7ntqA55gaVpz/96U0/rrrqqs11M8dzzqkc+zlXc6z+6Ec/WmjxcXxHbWM2Os7fm4V22gcECBAgQIAAAQITLSBQm+ju13gCBAgQIEBgSRJoB2rnnntuedOb3tSEMBnUPOKII5qwoLe9wwK1hDivf/3rmwHSDI5m8DzhUwZLM+CaICLlzjvvLB/72Mf6BgC928vvCXj23XffkmAhpQZ0eV8/yyB9Db16A7X24HmWyb5lcL8um8/y+3/913+V//7v/86vZZtttikveclLmvfD/snAcga4U9qBQn7PfsYy24lBLQkTPve5z9Vfp32tg9i1YvY1687gci0ZyP7Upz5VEi6mJATcf//9m/dp10UXXdS87/2n9vkPfvCDcsIJJzRfz8Srrrfua9pdb2lYv6vBV0KZT37yk/Xj5rUuVz8cpY21bl3vjTfe2AROGdhPSai3zDLL1GqNWcLir3zlK1Of5U3ddr99TsCx5557lic8EBKm5HhOGJzPM+ie9ed4OuWUU8qFF17Y1Bn0T4KH/fbbb9DXU5+nL/OsvpQER295y1tKZrSl5LucP9lmjqt8Xvfh3//935tgran4f/9Um/T/mmuu2YRy9fthz24bdV+zrlwrEgi2j/9LLrmkCaTj1K/kOD366KObdtTv28v3hvo5t1/3utc115HUT6iVcy/nQIzquZBzMZ9PV9rH+JFHHlmuueaaBRbZcccdS8LIGlymz3POtbfVPmfqwu025LMu14AEVzk+Vltttbq6JhxMX9dgPvuZwCy/9wvUZrrfbY/Pf/7z5eUvf/mUabb/zne+s9mneq7kPMhPvab3nmupnGMg15QYtEv9G5LP0lc5prN8jpWsr16Xcy3OvrTLOL6jtnHcvzft/fWeAAECBAgQIECAgEDNMUCAAAECBAgQWEIEegO1zEo54IADmgHN//3f/21Cr96m1sHQiy++uJx00kkLfP22t72teQZSBtePP/74hWbtZHZZBsUTAvQLVRZYWeuXhGmZnZMZOJ/5zGdKZuTUksHXDLZnZthKK63UfNwbqCX4SNvuuOOO5qcOuGcANyHDq171qmaQOrO4DjnkkGYdWW8dxM5Mou222675POFBBoBryWBxnf2VICdtrNvJa77PoHy2n0HqzLBJ+dCHPjRyoJgZMtmXBClZZ4KflOxj1rfbbrs173sH+N/+9reXzADJTJ9jjjmmWab9T0LOBBAJZDLwneVTZuJV11sH3PuFUzXc6df3M21jtlvXm/c5LjNLLWFuZnBlAD4BxM4779yEjOmP9GH7GBq2zy996UubYCXr/pd/+ZdmhmHep6RPdt111/K0pz2tCWQ/+MEPloR6g0qOj9imJDhIUJZy2mmnLRSE1WMs+52ZQun7f/3Xfy2ZzdYuCXh23333ss466zTH5Qc+8IGp4yP1qk0NoOKTmZLpn8x4uv7669urm3rf3tfM7Ml5n5LbU2YmYLskbEro0g47co6dfvrpjVfOj3yf837bbbedmgl14oknNjOZ6rray/cGan/zN3/TnN9x+chHPtK0oS6X1xzLsciMwd4Ap12vvm+HK72BWvu7HEv5zwYJeFPiktmuOS5SPvvZzy7Qd+NcA3bYYYfyghe8oOmbnI/5TwLt7SYkz3UoM0pTegO1cfa7vWyOj8svv7z8/Oc/b643Cbtqn9dzJdtPuJewPjPK0t8JNTOr7sUvfnFzC+HU+eIXv1hyS+FaNtlkk/La1762+TUhdG+4nWtRtlFncqav638SyELj+I7axnH/3tS2eiVAgAABAgQIECAQAYGa44AAAQIECBAgsIQI9AZqaVYGixNOpfQOhuazQYFaBsuzvpSTTz554GydXXbZpblNWGY3/P3f/31Tf9g/CaP+8R//sRmszQB9BpH7ldwmLWFdSm+g1q9++7MMYmcwO+Uf/uEfmvCi/f1sPUOt/dydBI6ZwTEbpc4yS0hUb82W9b7oRS9qBrcTZsSwBn91m894xjPKn/zJnzSD4QkS6+B9/X7Q6zCvOuDeNVAbtK36+aA25vsaGiVsfPe7310XWeA1twnMTLOU3hl7w/b5He94RxPI5fZzxx133ALrzC8JLBNcpmTWYWYfjlLa58uwZ6jVICnHSo6ZfiWB3mte85rmq94AotokZErgl/Cja8ktG7OelN4QrL2udiDWb3ZR6ibEzrGW1wRV7duCtpdvB2oJIXNepiR8PP/885v34/zTDld6A7V6jcr58r73vW+hW0gm1DnwwAObgDC32kyoNmoZdg2ox/hPfvKT5hrWb525BWQ9xnsDtXH2u+2R2zWmn/uVeq7ku1xr2sF0rZ++zQzLhGO9IX8C6Ny+NAFx7dO6XH1NKFf/NrSPg/r9sNdhvqO0cS7+3gzbf98RIECAAAECBAgseQICtSWvT7WIAAECBAgQmFCBfoFaKOr/0E8okplU7edODQrUnvjEJ5a99967keydydPmbQd2GXStM3HaddrvM/Pk4IMPbj7qDULa9XJLvn322af5qGug9sxnPrOZ5ZWFM4CeZwC1y2wFapmFVW+d1juzpb29ru/z7Ls8/yj99P73v39q8WwvgUwGifuFNgkgE0R2DQWGedUB99kO1Aa1MY2toVFm1Xz84x+fan/7TTuU6Q0iBu1zgoEEkQlQhoW5CYgSBvWut7393vejBGrZ7qGHHtoEEwmREib1K7lF3Vvf+tbmq97Aq9pkttOxxx7bb/FpP5tJoNZv9lHdUMKShCZ59lyeeVbLKIHasGtAXc8or+1wpTdQy3Uk15NhwdYee+xRso6rrrqquXXlKNtMnWHXgPRh+rI3hOpdd87xHBu9x9s4+932yGzW3ufX1X2o50rC99zSNWF9v1JnK/f67LXXXs2M4sx+O+qoo/ot2nyWa36u/XlmZa5do5ZhvqO0cS7+3ozaFvUIECBAgAABAgSWDAGB2pLRj1pBgAABAgQIEGhmlGVgP7NEMluklsy6yUB8AoXcYu6f//mf61cDZ6i1Z4hl4D4D+P1Kbp+YmRQp//RP/zTtjJm5GODMjInMnEjJYHU7QMxnsxWo5ZaUCbhSusxmahYY8k9mmWW2WYLABILtUgfZe8Om3C4yt3vMa9cAcphXHXCf7UBtWBtraNTvVpLVIu1MOJbSG0QM2uf2sTdKoJZb22VW5yhllECtvf2zzjqr5KdfyS0tM5MupTc4HcWm3zrbn80kUBs2s6gGar2z2AYFatmXzGZKKJpbav7bv/1bc7vK3NJzpqUdrvQGajXYGiVQ650VOt3+DLsG1O3ONFCry89kv4d5tNs06Fxp18n7N7/5zc3tb3sDtbqPg25DW9dTj5Hvf//7TX/Xz6d7HeY7Shvb59yw8Hac/8AxXRt8T4AAAQIECBAgsGQJCNSWrP7UGgIECBAgQGCCBQbNUAtJvV1g3rcH6QfNUFucA7XM5shzfTKgmiAj4UpmbfUr4wZqmSmWZ14l5MgztrLtfqVLoJZnQ+U2nLmdWd7nWUX9Sr9ArQaYvbd9rP2VGYKZBdWeaTKO17AB92HhzjhtHLbe6jRuoJbbSeY2df1Kno8XM4Haw6aeQTjbgVp7Zmv6IMdrArW85hjOcxvzPK4812uUMixcqaFPQuFBM2hzvOb87heozfQaULc7bqA2k/0e5tH2HHZ+t+stykBtpr6jtFGg1u5F7wkQIECAAAECBGZDQKA2G4rWQYAAAQIECBBYDASGBWoJCPbff/+S2Sl33XVXc+vHm266aV7OUKvPJspAc2ZvZJC8/byw1VZbrWywwQZNj4wTqL3whS8sf/zHf9ysJzP7MtMt26wlg7Wbb7558+uogVpujbfffvuVhDY333xz+dnPftbsf56JVcuGG27YPMurX6CWbWa2R2YbtoPROuProosuap4pVteV13G8hg24Dwq+xm3joPW22zRuoJZjP/7DSoKQhDqjFDPUHlm6zFCL6UYbbdQ8f3HllVcueZZYrlF5rSUBW25XePXVV9ePBr4OC1dqsJUAdbpnzuUc/8xnPjO1nXGuAXW74wZqM9nvYR5TjXvgzbDzu11vUQVq4/iO0kaBWrsXvSdAgAABAgQIEJgNAYHabChaBwECBAgQIEBgMRAYFqhl99Zaa60mzMnA9Y9//OOSZ6PNtxlq7WdnZeD7u9/97kLy7WeCjROo1ecG9T4bqm6w/XyfUQO1jTfeuOy+++7NKjKTrF+oU58v1i9Qy4L1WWn19p3LLLNMcwu93GLvox/9aBPS1X0c12vYgPug4GvcNg5ab21TXscN1Ibd8rG9nVHfC9S6B2r9bBOAPOlJTyoJiFO+/vWvly984Qv9qi7w2bBwpQZbw26duMDKWr+Mcw2o2x03UJvJfg/zaDXvQQ/UxvEdpY0CtXZve0+AAAECBAgQIDAbAgK12VC0DgIECBAgQIDAYiAwXaCWXdxxxx3L1ltv3extQqBNN920rL/++uXiiy8uJ5100lQr2oOVi9Mz1NZbb72y5557Nvv5wQ9+sHn20tRO/9+b2QjUMgMsz+hK+JgB/Qzs95aZBGrbb7992Xbbbcttt902dTu93vVOF6jVwOq+++5r9jFB6Z//+Z/3febauF4zCdTGbWNmUqZNoz5D7ZxzzilnnHHGFOOgfW4Prvc+Z3Bq4Rm+GSVQaz9TbNKfoTYdcw1VRw2T2termTxDrd/+jHsNmA+BWv17kJm3Bx10UD+G5rM6Qy0zahPa11L7aSbPUBvXd1if1/1rn/OeoVZVvBIgQIAAAQIECIwjIFAbR8+yBAgQIECAAIHFSGCUQC3P68qsgJVWWql5hlRmSK2++uoLBWprrLFGyYBwyvHHH18uueSSvi3dZpttykte8pLmu3e9613N7ST7Vmx9mKAqM4zOPPPMcvbZZ7e++cPb3LIxtypM+cQnPtHc2jHv24OoMw3UnvGMZ0zNgDnssMPK9ddfn1UvUNrhx2wGajXsGSdQy0B0bvuYweLPf/7z5XGPe1zZYostyvnnn19OO+20Bdoxrlfd334D7nUwvTf4qsvMtI1/+qd/2gS9eY7WEUccsUB76i95pt073vGO5tfPfvaz5Tvf+U79auCsm4Sj73nPe5pn1vXennBq4Rm+GSVQy6oPPvjgpt8uvPDCcvLJJ/fd2tprr93MJM2Xn/70p8sPf/jDqXqDzKcqjPDmMY95TPnbv/3bpmb7tqG9i7bPgdl+hlrvtnp/33vvvcsTn/jEcumll5ZPfepTvV8v9Hv7OO8N1Oos3BtvvLF84AMfWGjZQR+02z+Ta8Ab3/jG5raWl19+efn4xz/edzM5l9/73vc235133nklMydrmel+Z/lhHnX9ec1145WvfGXz0bDrd643uZXrt7/97ZL/iFFLnS3b79lztU5e6zX/q1/9avnSl77UfDWu76htrNueyd+bdhu8J0CAAAECBAgQIBABgZrjgAABAgQIECCwhAiMEqilqeuuu27Za6+9Fmh17wy19uyBPEfqlFNOWaB+/eUNb3hDc4u2YeFJrVtf//Iv/7Kss846ze0Oc0vGzLTqLa961aumnk/WDtQycykzmFIG3fJxu+22K/lJ6XfLxzXXXLO85S1vab4/8cQTy/e+973mfe8/CV+WW265MuiWj23HUW/5mNmBmRWSkoHeW265pXezpYYJg275mAV23XXX8qxnPatcccUVzfPWMth9+OGHlwxst8u4XjUc6xKojdvGF7zgBWWHHXZonov3vve9r3nGXLtNeb/VVluVV7ziFc3Hve0ets/77LNPecITntAEvzmufv7zn/euuvk9sw/zPK1Ry6iBWt1+tpuZPvfff/9Cm3j+859fXvrSlzaf94bGsxGoZcWHHHJISaDxjW98o3kW30I78cAH7cBjLgO1PFMtoX+uQb2zD/vtZz4bFq7kOYh5VlfKsABxhRVWKHlu2913393UzT/jXAPqTM08HzHH6LXXXju13vomz2DMtS6lN1AbZ7+HedRt5/Xxj3982XfffZuPesPbWi//4SL9kZIQOGFwLXUfc33ItTZ/B3pL+xrUG0yO4ztqG8f5e9PbFr8TIECAAAECBAgQEKg5BggQIECAAAECS4jAqIFamptZCZmdUEtvoJbP26FWQqfc7isDp5npk6Bpww03LJlJltLlmVTtwCCDzHkW2O23317yLLA88ytBVQa38z6lHajl97/+678uGXS/8847m0AgM0+yTwmVMnPpyU9+cjMDLnX7BWqZpZcZOll/Bs8TmNXwJJ/ldnwpu+22W8ntIzMgnjoJqxL+pU5m+Tz1qU9ttpm6owZq2b+EeZmhl7b/z//8T7npppsaz7Q5YU8GuRMmDAvUMnsnwVstv/71r0vCl35lHK9h4dSgcGfcNiacSvC04oorNmFajs0Ejzn2YrTqqquWpz/96WWppZZaaGZl2j9sn2ObmT/xT7nqqquaGYp33XVX06fZ94RpOUZyC7xsc5QyaqCWACXHVfY951Nmn+U4TrCWPk/4kDo5nvvd7nCQ+Sj72K5TZ0/ls/jm2I7Box71qJLZe5m5uigDtYQcMb7hhhuabcUgJjmHN9poo6YP7rjjjnL00Uf3nUHabkveDwtXcr7meErfpuR6kX7P+nM85VqSn7T3uOOOKz/60Y+aevlnnGtAjrXcnjbtvPXWW5u+zmv6OtvKzNLHPvaxzXUvdXoDtXH2e5jHVOMeeJPjLMdCruO5tmUGWnxikxmwOa4T3Od8SV8lGEzoWEtmMuc6lLpZrp6rWVeO55xLOZ7jnLZnRnCOs1rG8R21jeP+van76pUAAQIECBAgQIBABARqjgMCBAgQIECAwBIi0CVQy4DuAQcc0AyYpvn9ArUMcGc2VW6RmAHRfiUDr1/72tfKueee23emWb9l8lkGWXfaaadmYLld5957722ChAzs5nZiKb2BWvZl9913b2a5tZfN+9y+MeHfsBlqqZfB9de//vVTg+z5LCWDvbn1WUoGmzMLKsFjLNol7c4txOosqVEDtawjockee+wxZV/Xm+Au4WIGnjfbbLOhgVqWOfDAA5vQKe/zDLHM5ulXxvEaFk4NC3fGbWNuSZrjI8/3y8B8b4lRZlddcMEFC4Vew/Y568m+Pe95z2sC0QQZ7ZKwI+tOyJlnB+Z4HKWMGqhlXTn2MwuvBjy9609gkaA1t+/MvrTLMPN2veneJyDJORTfHOftktts5nabizJQq8/Ja2+3vk/7E2rleM5+jFKmC1cSFKbPc171u5Yl0E+ImBls7VmL414DEpr92Z/9WXOL3d52XHPNNc1/RHjta1/bBFK9gVrqz3S/p/No70vOgZxreTbj8ssv3/6qeZ//dJBb/ua5gzHqLblFaWZU5rX3WErdnFMJjzPLOW1ul3F8u7RxnL837f31ngABAgQIECBAgIBAzTFAgAABAgQIECAwrcBqq63WzMzKLLIEPwkaMmuozuyadgUDKmS2UQZxs96EVJnlMOqsoMxmySymhAMZhM/+ZFZXl5KZdglvEh5kUD0/vbctS52EH3nNzIvs53XXXddlM33rZrsZ3M+Adgat68yQvpVn4cPZ8Oq6G+O2MX2bPk7/xCn9nEH9BF7jlgR1MclPBvaz3vwkAJiLktk7CUxqqJdzKjO1cmzN1T7EIL7ZjxzX+cl5lHN8UZe0O+d+fjLDKedWAsT8pJ8XRUkwnnMufZ5jqoan021v3GtAjLPNHM8J7XOc9Yalw9o70/0ets7e73IO5HxNX6S9MelyrcuMuiyffs260p+5lud4nu6aPq5vb1sG/T7O35tB6/Q5AQIECBAgQIDAZAkI1Carv7WWAAECBAgQIECAAAECBAgQIECAAAECBAgQIECgo4BArSOY6gQIECBAgAABAgQIECBAgAABAgQIECBAgAABApMlIFCbrP7WWgIECBAgQIAAAQIECBAgQIAAAQIECBAgQIAAgY4CArWOYKoTIECAAAECBAgQIECAAAECBAgQIECAAAECBAhMloBAbbL6W2sJECBAgAABAgQIECBAgAABAgQIECBAgAABAgQ6CgjUOoKpToAAAQIECBAgQIAAAQIECBAgQIAAAQIECBAgMFkCArXJ6m+tJUCAAAECBAgQIECAAAECBAgQIECAAAECBAgQ6CggUOsIpjoBAgQIECBAgAABAgQIECBAgAABAgQIECBAgMBkCQjUJqu/tZYAAQIECBAgQIAAAQIECBAgQIAAAQIECBAgQKCjgECtI5jqBAgQIECAAAECBAgQIECAAAECBAgQIECAAAECkyUgUJus/tZaAgQIECBAgAABAgQIECBAgAABAgQIECBAgACBjgICtY5gqhMgQIAAAQIECBAgQIAAAQIECBAgQIAAAQIECEyWgEBtsvpbawkQIECAAAECBAgQIECAAAECBAgQIECAAAECBDoKCNQ6gqlOgAABAgQIECBAgAABAgQIECBAgAABAgQIECAwWQICtcnqb60lQIAAAQIECBAgQIAAAQIECBAgQIAAAQIECBDoKCBQ6wimOgECBAgQIECAAAECBAgQIECAAAECBAgQIECAwGQJCNQmq7+1lgABAgQIECBAgAABAgQIECBAgAABAgQIECBAoKOAQK0jmOoECBAgQIAAAQIECBAgQIAAAQIECBAgQIAAAQKTJSBQm6z+1loCBAgQIECAAAECBAgQIECAAAECBAgQIECAAIGOAgK1jmCqEyBAgAABAgQIECBAgAABAgQIECBAgAABAgQITJaAQG2y+ltrCRAgQIAAAQIECBAgQIAAAQIECBAgQIAAAQIEOgoI1DqCqU6AAAECBAgQIECAAAECBAgQIECAAAECBAgQIDBZAgK1yepvrSVAgAABAgQIECBAgAABAgQIECBAgAABAgQIEOgoIFDrCKY6AQIECBAgQIAAAQIECBAgQIAAAQIECBAgQIDAZAkI1Carv7WWAAECBAgQIECAAAECBAgQIECAAAECBAgQIECgo4BArSOY6gQIECBAgAABAgQIECBAgAABAgQIECBAgAABApMlIFCbrP7WWgIECBAgQIAAAQIECBAgQIAAAQIECBAgQIAAgY4CArWOYKoTIECAAAECBAgQIECAAAECBAgQIECAAAECBAhMloBAbbL6W2sJECBAgAABAgQIECBAgAABAgQIECBAgAABAgQ6CgjUOoKpToAAAQIECBAgQIAAAQIECBAgQIAAAQIECBAgMFkCArXJ6m+tJUCAAAECBAgQIECAAAECBAgQIECAAAECBAgQ6CggUOsIpjoBAgQIECBAgAABAgQIECBAgAABAgQIECBAgMBkCQjUJqu/tZYAAQIECBAgQIAAAQIECBAgQIAAAQIECBAgQKCjgECtI5jqBAgQIECAAAECBAgQIECAAAECBAgQIECAAAECkyUgUJus/tZaAgQIECBAgAABAgQIECBAgAABAgQIECBAgACBjgICtY5gqhMgQIAAAQIECBAgQIAAAQIECBAgQIAAAQIECEyWgEBtsvpbawkQIECAAAECBAgQIECAAAECBAgQIECAAAECBDoKCNQ6gqlOgAABAgQIECBAgAABAgQIECBAgAABAgQIECAwWQICtcnqb60lQIAAAQIECBAgQIAAAQIECBAgQIAAAQIECBDoKCBQ6wimOgECBAgQIECAAAECBAgQIECAAAECBAgQIECAwGQJCNQmq7+1lgABAgQIECBAgAABAgQIECBAgAABAgQIECBAoKOAQK0jmOoECBAgQIAAAQIECBAgQIAAAQIECBAgQIAAAQKTJSBQm6z+1loCBAgQIECAAAECBAgQIECAAAECBAgQIECAAIGOAgK1jmCqEyBAgAABAgQIECBAgAABAgQIECBAgAABAgQITJaAQG2y+ltrCRAgQIAAAQIECBAgQIAAAQIECBAgQIAAAQIEOgoI1DqCqU6AAAECBAgQIECAAAECBAgQIECAAAECBAgQIDBZAgK1yepvrSVAgAABAgQIECBAgAABAgQIECBAgAABAgQIEOgoIFDrCKY6AQIECBAgQIAAAQIECBAgQIAAAQIECBAgQIDAZAkI1Carv7WWAAECBAgQIECAAAECBAgQIECAAAECBAgQIECgo8D/A6XQC/VOnaDcAAAAAElFTkSuQmCC;" vertex="1" parent="1">
          <mxGeometry x="880" y="398.95000000000005" width="251.51" height="92.09" as="geometry" />
        </mxCell>
        <mxCell id="PmZtbSstt38Pnc2JY4bf-15" style="edgeStyle=orthogonalEdgeStyle;rounded=0;orthogonalLoop=1;jettySize=auto;html=1;exitX=1;exitY=0.5;exitDx=0;exitDy=0;entryX=0;entryY=0.5;entryDx=0;entryDy=0;" edge="1" parent="1" source="PmZtbSstt38Pnc2JY4bf-13" target="PmZtbSstt38Pnc2JY4bf-12">
          <mxGeometry relative="1" as="geometry" />
        </mxCell>
        <mxCell id="PmZtbSstt38Pnc2JY4bf-13" value="projects/web/src/views/ClanLeaderboards/index.tsx" style="rounded=1;whiteSpace=wrap;html=1;" vertex="1" parent="1">
          <mxGeometry x="540" y="430" width="310" height="30" as="geometry" />
        </mxCell>
      </root>
    </mxGraphModel>
  </diagram>
</mxfile>
